<svg xmlns="http://www.w3.org/2000/svg" width="80" height="81" viewBox="0 0 80 81" fill="none"><path d="M44.5062 71.866C19.8925 76.0325 -2.112 44.6224 11.2074 25.1119C24.6653 5.39847 67.458 10.5215 73.6072 32.4016C78.5698 50.0598 64.5772 68.4685 44.5062 71.866Z" fill="#E6EFFF"></path><path fill-rule="evenodd" clip-rule="evenodd" d="M30.1531 46.3143C30.2569 44.2368 28.7012 42.4688 26.6783 42.3654C24.6554 42.262 22.9313 43.8624 22.8275 45.9399L22.8132 46.2267L22.6934 45.4543C22.8958 47.0462 22.7263 50.0598 20.5828 51.3338L18.7426 51.9011C24.3815 57.7409 29.5581 56.5166 31.7073 53.153C31.1152 52.9083 30.2226 52.6756 29.5581 52.4302C29.5945 52.2468 29.6181 52.0582 29.6277 51.8656L30.1531 46.3143Z" fill="#B67A4B"></path><path d="M29.665 52.4258L29.8355 50.478C25.9704 50.8362 23.8136 48.8085 23.2277 47.6454C24.6425 52.8705 28.0116 53.0524 29.665 52.4258Z" fill="#A75925"></path><path d="M32.1592 38.4831C31.0698 35.509 29.6747 32.7878 25.202 33.4639C21.5022 34.0232 20.6548 36.6285 20.6428 38.8278C20.6308 41.0272 21.6237 45.1574 21.6237 45.1574C21.899 46.934 22.942 48.5002 24.4548 49.4462C25.3837 50.0271 25.9573 50.3795 26.3336 50.5225C26.9622 50.7614 28.6287 50.9101 29.528 50.7742C30.4272 50.6383 31.3994 50.2709 31.8713 49.3515C32.307 48.5025 32.7794 44.6063 32.9286 43.4484C33.048 42.5222 32.5148 41.4853 32.203 40.8869C32.6633 39.6152 32.5532 39.5588 32.1592 38.4831Z" fill="#B67A4B"></path><path d="M27.4051 37.5222C29.45 37.4637 30.7277 37.0382 31.237 36.3903C30.8412 33.8409 28.9491 33.123 27.7283 32.9059C26.9759 31.8822 25.705 32.4755 25.412 32.8542C24.6154 31.971 23.4078 32.6885 22.9836 33.3547C22.6549 33.8708 22.3368 33.72 21.9728 33.6411L22.0845 34.3602C20.915 34.6438 20.2766 35.0346 20.0081 36.2793C19.6 36.341 18.7259 36.9413 18.5726 38.5032C18.4437 39.8173 18.1073 40.1791 17.4223 40.0149C17.6151 41.2569 18.2504 41.4062 18.5726 41.3575C18.4503 41.8443 18.6695 42.1013 17.9266 42.4141C18.0322 43.094 18.2261 43.4434 18.6443 43.4471C18.3537 44.2938 18.96 44.6523 19.3408 44.8401C19.4163 46.0062 20.2512 46.4713 20.7339 46.4654C20.9344 47.0773 21.9872 47.1734 22.3591 47.1619L21.7778 45.9807C21.2763 44.8744 20.5271 42.5969 21.5419 42.3366C22.8104 42.0113 23.1077 40.5275 22.9403 39.4494C22.6508 37.5841 25.545 37.5754 27.4051 37.5222Z" fill="#003D9F"></path><path d="M22.1962 43.2599L22.618 45.8998C20.4515 46.2224 19.9265 44.5334 19.8323 43.9444C19.7382 43.3555 19.7255 42.0476 20.8184 41.8849C21.6926 41.7548 22.1012 42.7473 22.1962 43.2599Z" fill="#B67A4B"></path><path d="M31.4431 35.0905C30.934 33.2955 29.1202 32.4329 27.6157 32.9275L28.8378 35.2834L31.3138 36.3803C31.5336 35.7588 31.4916 35.2615 31.4431 35.0905Z" fill="#003D9F"></path><path d="M25.4947 55.7372C30.3023 56.3978 30.4756 52.6081 30.4756 52.6081L34.9016 53.925C36.5619 54.419 37.8494 55.7351 38.3069 57.4057L43.0701 74.8014L11.3832 74.4982L17.4494 52.2989L20.0094 51.5632C20.0094 51.5632 21.461 55.1829 25.4947 55.7372Z" fill="#FFCC60"></path><path d="M19.3254 61.3372L34.0786 68.7916C35.8139 69.6684 35.1097 72.2933 33.1686 72.1838L16.2129 71.2276C15.5073 71.1878 15.0309 70.4904 15.2503 69.8187L17.8168 61.9636C18.0217 61.3368 18.7368 61.0398 19.3254 61.3372Z" fill="#F4A04F"></path><path d="M25.3979 70.429H33.8184C34.3461 70.429 34.8508 70.6453 35.2147 71.0275L37.6837 73.6209C38.2274 74.192 37.8226 75.1364 37.0341 75.1364H26.2423L25.3979 70.429Z" fill="#C0885E"></path><path d="M15.1454 53.075L17.6117 52.2178L16.094 70.5534C15.8726 73.2272 13.278 75.0432 10.6901 74.3357C9.14848 73.9142 8.18755 72.3811 8.48012 70.81L10.8531 58.0667C11.2839 55.7529 12.9222 53.8476 15.1454 53.075Z" fill="#FFCC60"></path><path d="M18.6458 59.9436L15.8353 68.375" stroke="#D3602F" stroke-width="0.812605" stroke-linecap="round"></path><path d="M33.5 60.9177L35 70.4177" stroke="#D3602F" stroke-width="0.812605" stroke-linecap="round"></path><path d="M8.53336 70.9518L8.56453 70.8211C8.99013 69.0364 10.6936 67.8603 12.5133 68.0949L25.2557 69.7376L26.014 68.8889L27.426 68.986C27.8115 69.0125 28.0477 69.4254 27.8844 69.7755C27.5108 70.5761 26.9627 71.8483 26.8542 72.632C26.7277 73.546 27.0307 74.9465 27.1739 75.5321C27.2158 75.7034 27.169 75.8827 27.0022 75.9401C26.0506 76.2674 22.9342 76.2221 22.9342 75.8042C22.6617 75.7989 22.5333 75.3876 22.2664 75.3824C19.1661 75.6836 15.7274 75.5584 12.0402 75.4242L11.9529 75.421C9.66479 75.3377 8.00222 73.179 8.53336 70.9518Z" fill="#FFCC60"></path><path d="M22.3002 71.8208C22.1905 72.2243 22.2183 73.233 22.3002 73.7452C22.4312 74.5652 22.587 75.16 22.8707 75.7721" stroke="#D3602F" stroke-width="0.812605" stroke-linecap="round"></path><path d="M25.6265 68.8725C25.1622 69.2317 24.5883 70.0813 24.4085 70.5188C24.1124 71.2395 24.1096 72.214 24.2872 72.8435" stroke="#D3602F" stroke-width="0.812605" stroke-linecap="round"></path><path d="M27.9206 69.3342C27.2945 69.9881 26.7366 71.2561 26.6634 72.3216C26.5831 73.4906 26.7362 74.9482 27.0858 75.7482" stroke="#D3602F" stroke-width="0.812605" stroke-linecap="round"></path><path d="M12.8387 67.9695L21.6418 69.1911" stroke="#D3602F" stroke-width="0.812605" stroke-linecap="round"></path><path d="M57.4929 35.4822C56.044 34.3492 53.9081 34.8006 53.9081 34.8006C53.9081 34.8006 52.4592 33.5732 50.5274 34.5174C48.5956 35.4615 47.443 37.3074 47.443 37.3074C47.443 37.3074 45.3204 38.2653 45.1603 39.256C44.8139 41.4004 45.4081 41.0321 44.5387 42.7523C43.6694 44.4725 44.1846 44.743 43.766 46.1643C43.5045 47.0523 43.61 47.5949 43.3797 48.491C43.0559 49.7508 44.0099 50.5188 43.766 51.7956C43.5769 52.7856 41.0191 53.4454 40.8224 56.3276C40.7721 57.0639 42.2887 60.0519 42.5934 60.7265C43.1428 61.9426 45.9876 57.1774 45.9876 57.1774L54.5842 56.3276L62.0218 59.349C62.0218 59.349 66.8226 59.1688 66.6013 57.3811C66.4526 56.1804 66.3446 55.861 65.7429 55.1358C64.8302 54.0357 65.5172 52.9962 65.4206 51.6743C65.324 50.3525 63.201 49.6267 62.9877 48.3966C62.801 47.3201 63.9777 46.9873 63.5672 45.6585C63.1006 44.1479 61.9643 44.4987 61.6354 43.3925C61.4061 42.6214 61.6354 42.3505 61.6354 41.3361C61.6354 38.6924 58.9418 36.6152 57.4929 35.4822Z" fill="#003384"></path><path d="M54.8328 36.7708C54.8328 36.7708 54.9051 37.9196 55.5542 38.9214C56.4629 40.3239 58.2992 41.4445 58.2992 41.4445" stroke="#1E6DEB" stroke-width="0.812605" stroke-linecap="round"></path><path d="M42.6255 58.8604L41.0191 73.0488C41.0191 73.0488 40.7717 75.3389 46.5246 75.1946C52.2775 75.0502 61.8074 75.1946 61.8074 75.1946L62.5597 62.7983L63.0452 61.4546C64.1656 58.354 62.724 54.912 59.7284 53.5352L56.2016 51.9143C56.1393 51.8857 56.0715 51.8708 56.0029 51.8708H50.2416C50.1674 51.8708 50.0942 51.8882 50.0279 51.9215L46.0793 53.9067C44.1655 54.8689 42.8665 56.7319 42.6255 58.8604Z" fill="#E5BBFB"></path><path d="M55.975 47.9351H49.6778V53.2553C49.6778 54.9942 51.0875 56.4038 52.8264 56.4038C54.5653 56.4038 55.975 54.9942 55.975 53.2553V47.9351Z" fill="#BE865D"></path><path d="M55.8754 53.5904L49.6778 52.5629V50.3193L55.975 49.9036V53.506C55.975 53.5588 55.9276 53.599 55.8754 53.5904Z" fill="#AE7331"></path><path d="M47.4895 43.272C47.4149 42.3617 47.8243 40.6445 48.2495 39.6937C48.8218 38.4139 51.5979 38.3652 53.2095 38.5967C54.1633 40.9735 55.308 41.7048 56.9552 43.0785C56.9552 43.0785 58.3281 42.8886 58.8337 43.9526C59.3393 45.0165 59.2271 46.3706 58.1452 47.4346C57.6353 47.9361 57.1229 47.6891 57.1229 47.6891L56.2998 49.8544C56.1575 50.2287 55.8907 50.5426 55.5444 50.7435L52.9074 52.2729C52.4776 52.5221 51.9766 52.62 51.4846 52.5509L50.5829 52.4242C49.8945 52.3275 49.2923 51.9132 48.9292 51.3205C48.0085 49.8179 47.0304 48.3548 46.9231 46.5605C46.8248 44.9162 47.564 44.1822 47.4895 43.272Z" fill="#BE865D"></path><path d="M47.2497 70.0249C46.5768 70.2147 45.8797 70.7313 45.4825 71.0616C45.2713 71.2371 45.187 71.5169 45.2453 71.7852L45.824 74.4507C45.9067 74.8314 46.2537 75.0956 46.6427 75.0741L50.1905 74.8779L55.4621 74.8747L55.6474 70.3704L52.7362 70.2506C52.7362 70.2506 48.271 69.7367 47.2497 70.0249Z" fill="#BE865D"></path><path d="M65.2316 57.5202C63.9496 55.4751 59.3299 53.3698 59.3299 53.3698C59.3299 53.3698 59.9595 59.7476 59.9726 61.7823C59.9858 63.8169 62.0149 68.6468 62.0149 68.6468L54.4064 69.9633C54.2413 69.9918 54.1269 70.1439 54.1452 70.3104L54.6948 75.3119C54.7132 75.4799 54.8602 75.6039 55.0289 75.5938L67.776 74.8344C69.8989 74.7079 71.2971 72.5734 70.5477 70.5831C68.8152 65.9818 66.0845 58.8808 65.2316 57.5202Z" fill="#E5BBFB"></path><path d="M60.3494 64.1049L65.3926 67.7831C65.4034 67.791 65.3999 67.8079 65.3869 67.8108L62.127 68.5385C62.1194 68.5402 62.1116 68.5359 62.109 68.5285L61.694 67.3538L60.3259 64.1235C60.3197 64.109 60.3366 64.0956 60.3494 64.1049Z" fill="#C97FF0"></path><path d="M65.4204 68.0398L54.1241 69.376" stroke="#75299E" stroke-width="0.812605" stroke-linecap="round"></path><path d="M62.0858 68.3186L59.8866 62.8346" stroke="#75299E" stroke-width="0.812605" stroke-linecap="round"></path><path d="M47.6102 64.755L53.9019 70.2411L47.9323 70.2422L47.6102 64.755Z" fill="#C97FF0"></path><path d="M47.9319 66.8245L47.0814 61.2829" stroke="#75299E" stroke-width="0.812605" stroke-linecap="round"></path><path d="M56.4365 8.91797C61.9034 8.91797 66.3352 13.3497 66.3352 18.8166C66.3352 22.9089 63.8518 26.4212 60.3099 27.9287V31.4355C60.3099 32.1586 59.4723 32.5595 58.9092 32.1059L54.7002 28.7153H47.3986C41.9317 28.7153 37.4999 24.2835 37.4999 18.8166C37.4999 13.3497 41.9317 8.91797 47.3986 8.91797H56.4365Z" fill="#85B3FF"></path><path d="M66.3351 18.8167C66.3351 22.909 63.8517 26.4213 60.3098 27.9288V31.4356C60.3098 32.1587 59.4722 32.5595 58.9091 32.1059L54.7001 28.7153H47.3985C42.3692 28.7153 38.2159 24.9646 37.5833 20.1078" stroke="#0452D0" stroke-width="1.04833"></path><circle cx="52.3373" cy="18.8277" r="5.67569" transform="rotate(-7.64677 52.3373 18.8277)" fill="white"></circle><path d="M49.9206 18.5589L51.2283 21.5089L54.5316 16.6896" stroke="#0452D0" stroke-width="1.04833" stroke-linecap="round" stroke-linejoin="round"></path><path d="M25.8709 4.91797C20.4194 4.91797 16 9.34651 16 14.8094C16 18.8987 18.4764 22.4085 22.0084 23.9149V27.4191C22.0084 28.1417 22.8436 28.5422 23.4052 28.0889L27.6024 24.7008H34.8834C40.335 24.7008 44.7543 20.2723 44.7543 14.8094C44.7543 9.34651 40.335 4.91797 34.8834 4.91797H25.8709Z" fill="#468CFB"></path><path d="M16 14.5027C16 18.6851 18.4836 22.2747 22.0258 23.8154V27.3994C22.0258 28.1385 22.8635 28.5481 23.4267 28.0845L27.636 24.6193H34.9382C39.968 24.6193 44.1216 20.786 44.7543 15.8222" stroke="#0452D0" stroke-width="1.04833"></path><circle cx="30.3268" cy="14.8153" r="5.67569" transform="rotate(-7.64677 30.3268 14.8153)" fill="white"></circle><path d="M29.9113 15.7157C29.7387 15.7162 29.5984 15.5766 29.5979 15.404C29.5974 15.2125 29.6224 15.0435 29.673 14.8969C29.7236 14.7475 29.8051 14.6065 29.9175 14.4739C30.0299 14.3384 30.1786 14.2 30.3635 14.0587C30.5296 13.9344 30.6622 13.8228 30.7613 13.7239C30.863 13.6251 30.9366 13.5278 30.982 13.4319C31.03 13.3332 31.0539 13.2219 31.0535 13.098C31.053 12.915 30.9882 12.7758 30.8591 12.6804C30.73 12.585 30.5499 12.5376 30.319 12.5382C30.0881 12.5389 29.8587 12.5775 29.6306 12.6542C29.5665 12.676 29.502 12.6997 29.4373 12.7254C29.1608 12.8351 28.8357 12.7318 28.7074 12.4634C28.5907 12.2193 28.6788 11.9231 28.9268 11.8149C29.0704 11.7523 29.2195 11.6972 29.3742 11.6496C29.688 11.5502 30.0316 11.5 30.4048 11.4989C30.9794 11.4974 31.4241 11.6412 31.7391 11.9304C32.0567 12.2167 32.2161 12.5823 32.2173 13.0273C32.2179 13.2638 32.1822 13.4694 32.1102 13.6442C32.0409 13.8162 31.9339 13.977 31.7894 14.1266C31.6475 14.2734 31.4693 14.4288 31.255 14.5927C31.0942 14.717 30.971 14.8216 30.8853 14.9063C30.7996 14.991 30.7408 15.0756 30.7088 15.1602C30.6795 15.2419 30.665 15.3419 30.6653 15.4602C30.6657 15.6002 30.5525 15.7139 30.4126 15.7143L29.9113 15.7157ZM29.4738 17.1615C29.4731 16.8968 29.541 16.7107 29.6777 16.6033C29.817 16.496 29.9847 16.442 30.1807 16.4415C30.3713 16.4409 30.5352 16.494 30.6725 16.6006C30.8124 16.7073 30.8827 16.8929 30.8834 17.1576C30.8841 17.411 30.8148 17.5943 30.6755 17.7073C30.5389 17.8203 30.3752 17.877 30.1846 17.8776C29.9886 17.8781 29.8206 17.8222 29.6807 17.71C29.5435 17.5977 29.4745 17.4149 29.4738 17.1615Z" fill="#0452D0"></path><path d="M30.0206 35.8097C29.7111 34.9584 28.674 33.4415 27.0024 34.1845C26.7702 33.8749 26.0737 33.3951 25.145 33.9523" stroke="#1E6DEB" stroke-width="0.812605" stroke-linecap="round"></path><path d="M30.253 50.4125C28.7052 50.8769 25.1452 51.0626 23.2878 48.0908" stroke="#764123" stroke-width="0.812605" stroke-linecap="round"></path><path d="M49.7553 52.448C51.1999 52.948 52.7735 53.1987 56.0239 50.6448" stroke="#764123" stroke-width="0.812605" stroke-linecap="round"></path></svg>