<svg xmlns="http://www.w3.org/2000/svg" width="80" height="81" viewBox="0 0 80 81" fill="none"><path d="M10.4305 50.8797C-3.26852 14.3903 51.5777 -1.5226 66.7368 23.535C90.0587 62.0854 25.2006 90.2218 10.4305 50.8797Z" fill="#E6EFFF"></path><path d="M64.3212 12.9071C64.7812 12.166 62.2049 9.73461 58.567 7.47647C57.6071 6.88068 56.6693 6.35649 55.8002 5.92118L55.3557 6.63717C52.9308 5.42259 51.0411 4.90009 50.7024 5.44569L12.3636 67.2118C12.0249 67.7574 13.3317 69.2189 15.4963 70.8531L15.0518 71.5691C15.8276 72.1548 16.7135 72.7626 17.6734 73.3584C21.3114 75.6165 24.6335 76.8463 25.0935 76.1052L64.3212 12.9071Z" fill="white"></path><path d="M15.4961 70.8538L55.3555 6.63783C54.4133 6.16593 53.552 5.7985 52.831 5.5576L13.4077 69.0707C13.9435 69.6099 14.6551 70.2188 15.4961 70.8538Z" fill="#DCE9FE"></path><path d="M64.3209 12.9078L25.0933 76.1058C24.8244 76.539 23.5777 76.2989 21.8617 75.5736L62.41 10.248C63.8214 11.464 64.5898 12.4746 64.3209 12.9078Z" fill="#DCE9FE"></path><path d="M62.7088 15.5027L25.0918 76.1059C24.6318 76.847 21.3097 75.6172 17.6717 73.3591C16.7118 72.7633 15.8259 72.1555 15.0501 71.5698L15.4945 70.8538M19.4252 55.833L12.3619 67.2125C12.0232 67.7581 13.33 69.2197 15.4945 70.8538M15.4945 70.8538L39.3542 32.4145" stroke="#85B3FF" stroke-width="1.32646" stroke-linecap="round"></path><path d="M49.6055 28.9587L39.2306 30.3102L40.0712 55.2939L45.0778 49.2453L50.446 53.9425L49.6055 28.9587Z" fill="#FA3E70"></path><path d="M42.9316 26.5735L48.3774 33.5753L23.4766 49.3654L26.1088 42.4688L18.0309 42.3636L42.9316 26.5735Z" fill="#FA3E70"></path><path d="M48.3768 33.5768L23.6469 49.2586M26.1082 42.4704L18.2261 42.3678" stroke="#A3183D" stroke-width="0.996808" stroke-linecap="round"></path><path d="M49.6055 28.9587L50.4379 53.7032M45.0778 49.2454L40.1903 55.1499" stroke="#A3183D" stroke-width="0.996808" stroke-linecap="round"></path><circle cx="9.82797" cy="9.82797" r="9.82797" transform="matrix(0.442885 -0.896578 0.947165 0.320747 31.2793 33.9753)" fill="#B75327"></circle><circle cx="9.82797" cy="9.82797" r="9.82797" transform="matrix(0.442885 -0.896578 0.947165 0.320747 30.612 32.7727)" fill="#FCBE5B"></circle><path d="M43.3039 18.9351C45.8703 18.4804 48.4344 19.0018 50.3757 20.347M40.2891 19.9456C40.6508 19.7622 41.0178 19.601 41.388 19.4616" stroke="#FFEBBF" stroke-width="0.629999" stroke-linecap="round"></path><path d="M53.5174 23.2874C55.3701 27.7597 52.7321 33.1001 47.6253 35.2155C42.8415 37.1972 37.5883 35.6461 35.4201 31.7658" stroke="#E86F3C" stroke-width="1.06499" stroke-linecap="round"></path><circle opacity="0.45" cx="6.81592" cy="6.81592" r="6.81592" transform="matrix(0.947165 0.320747 -0.442885 0.896578 40.8328 18.8196)" stroke="#ED8244" stroke-width="0.755998"></circle><circle cx="7.55998" cy="7.55998" r="7.55998" transform="matrix(0.947165 0.320747 -0.442885 0.896578 40.4519 17.9216)" stroke="#B75327" stroke-width="0.755998"></circle><path d="M46.3079 23.1867C46.761 22.7666 47.5013 23.073 47.3883 23.6339L46.9394 25.8622C46.8888 26.113 47.0212 26.3518 47.2673 26.4537L49.4531 27.3584C50.0033 27.5861 49.8512 28.3408 49.2312 28.4598L46.7679 28.9322C46.4906 28.9854 46.2686 29.1913 46.2181 29.4421L45.7691 31.6704C45.6561 32.2313 44.8218 32.3914 44.5516 31.9039L43.4782 29.9677C43.3573 29.7497 43.0878 29.6381 42.8105 29.6913L40.3472 30.1637C39.7271 30.2827 39.3636 29.6269 39.8166 29.2067L41.6165 27.5375C41.8191 27.3496 41.8745 27.0748 41.7536 26.8568L40.6802 24.9205C40.41 24.4331 41.0196 23.8678 41.5698 24.0955L43.7556 25.0002C44.0017 25.1021 44.3055 25.0438 44.5081 24.8559L46.3079 23.1867Z" fill="#E86F3C"></path><path d="M45.7482 22.3313C46.2013 21.9111 46.9416 22.2175 46.8286 22.7784L46.3796 25.0067C46.3291 25.2576 46.4615 25.4964 46.7075 25.5982L48.8933 26.5029C49.4436 26.7307 49.2915 27.4854 48.6714 27.6043L46.2082 28.0768C45.9309 28.13 45.7089 28.3358 45.6583 28.5867L45.2094 30.8149C45.0964 31.3759 44.2621 31.5359 43.9919 31.0485L42.9184 29.1122C42.7976 28.8942 42.528 28.7826 42.2507 28.8358L39.7875 29.3083C39.1674 29.4272 38.8038 28.7714 39.2569 28.3512L41.0567 26.6821C41.2594 26.4942 41.3147 26.2193 41.1939 26.0014L40.1204 24.0651C39.8502 23.5776 40.4598 23.0123 41.0101 23.24L43.1959 24.1447C43.4419 24.2466 43.7457 24.1883 43.9483 24.0004L45.7482 22.3313Z" fill="#FFEBBF"></path></svg>