<svg xmlns="http://www.w3.org/2000/svg" width="81" height="81" viewBox="0 0 81 81" fill="none"><rect x="0.614807" y="0.771484" width="80" height="80" rx="40" fill="#1E6DEB"></rect><circle cx="40.6148" cy="36.7715" r="9" stroke="white" stroke-width="2" stroke-linecap="square" stroke-linejoin="round"></circle><path d="M50.6148 32.7715C50.6148 28.7715 48.3281 23.7715 40.433 23.7715C32.5379 23.7715 30.6148 28.7715 30.6148 32.7715" stroke="white" stroke-width="2" stroke-linecap="square" stroke-linejoin="round"></path><path d="M53.6148 35.7715C53.6148 34.1146 52.2717 32.7715 50.6148 32.7715H49.6148V40.7715H50.6148C52.2717 40.7715 53.6148 39.4283 53.6148 37.7715V35.7715Z" fill="white" fill-opacity="0.4" stroke="white" stroke-width="2"></path><path d="M27.6148 35.7715C27.6148 34.1146 28.958 32.7715 30.6148 32.7715H31.6148V40.7715H30.6148C28.958 40.7715 27.6148 39.4283 27.6148 37.7715V35.7715Z" fill="white" fill-opacity="0.4" stroke="white" stroke-width="2"></path><path d="M26.6148 60.3315V59.4515V59.4515C26.6148 54.1054 30.9487 49.7715 36.2948 49.7715H45.9348C51.2809 49.7715 55.6148 54.1054 55.6148 59.4515V59.4515V60.7715" stroke="white" stroke-width="2" stroke-linecap="round" stroke-linejoin="round"></path><line x1="32.6148" y1="39.7715" x2="36.6148" y2="39.7715" stroke="white" stroke-width="2" stroke-linecap="round" stroke-linejoin="round"></line></svg>