<svg xmlns="http://www.w3.org/2000/svg" width="81" height="80" viewBox="0 0 81 80" fill="none"><rect x="0.500183" y="-0.00585938" width="80" height="80" rx="40" fill="#1E6DEB"></rect><g clip-path="url(#clip0_1300_6408)"><path d="M63.1742 20.9488C63.1742 18.9457 61.5491 17.3206 59.546 17.3206C57.5429 17.3206 55.9177 18.9457 55.9177 20.9488V22.7629H63.1742V20.9488V20.9488Z" stroke="white" stroke-width="2" stroke-linecap="round" stroke-linejoin="round"></path><path d="M46.4403 50.6739L49.8701 50.1732C50.4087 50.0976 50.8622 49.7574 51.1079 49.2755L52.6385 46.167C53.2432 44.9481 54.9818 44.9481 55.577 46.167L55.9172 46.8662V20.9488C55.9172 18.9457 57.5423 17.3206 59.5454 17.3206H28.7053C25.7102 17.3206 23.263 19.7677 23.263 22.7629V55.4171H47.5269L45.5332 53.4707C44.56 52.5258 45.0986 50.8723 46.4403 50.6739V50.6739Z" stroke="white" stroke-width="2" stroke-linecap="round" stroke-linejoin="round"></path><path d="M48.4812 57.3352C48.5756 56.8061 48.3961 56.2581 48.0087 55.8801L47.5268 55.4077H17.8206V57.2218C17.8206 59.2249 19.4458 60.8501 21.4489 60.8501H47.8953C47.8953 60.8501 47.8953 60.7839 47.8953 60.7462L48.4812 57.3352V57.3352Z" stroke="white" stroke-width="2" stroke-linecap="round" stroke-linejoin="round"></path><path d="M48.6614 28.1958H30.5202V28.2147H48.6614V28.1958Z" stroke="white" stroke-width="2" stroke-linecap="round" stroke-linejoin="round"></path><path d="M39.5906 33.6382H30.52V33.6571H39.5906V33.6382Z" stroke="white" stroke-width="2" stroke-linecap="round" stroke-linejoin="round"></path><path d="M48.6612 39.0806H30.52V39.0995H48.6612V39.0806Z" stroke="white" stroke-width="2" stroke-linecap="round" stroke-linejoin="round"></path><path d="M39.5906 44.5229H30.52V44.5419H39.5906V44.5229Z" stroke="white" stroke-width="2" stroke-linecap="round" stroke-linejoin="round"></path><path d="M53.3385 60.8689L50.2771 62.4752C49.0772 63.1083 47.6693 62.0878 47.8961 60.7461L48.4819 57.3352C48.5764 56.8061 48.3969 56.258 48.0095 55.8801L45.534 53.4613C44.5608 52.5164 45.0993 50.8629 46.441 50.6645L49.8709 50.1637C50.4094 50.0881 50.863 49.748 51.1086 49.2661L52.6393 46.1576C53.244 44.9387 54.9825 44.9387 55.5778 46.1576L57.1084 49.2661C57.3446 49.748 57.8076 50.0881 58.3462 50.1637L61.776 50.6645C63.1177 50.8629 63.6563 52.5164 62.6831 53.4613L60.2075 55.8801C59.8202 56.258 59.6406 56.7966 59.7351 57.3352L60.321 60.7461C60.5477 62.0878 59.1399 63.1083 57.9399 62.4752L54.8786 60.8689C54.3967 60.6138 53.8298 60.6138 53.3479 60.8689H53.3385Z" stroke="white" stroke-width="2" stroke-linecap="round" stroke-linejoin="round"></path></g><defs><clipPath id="clip0_1300_6408"><rect width="48" height="48" fill="white" transform="translate(16.5002 15.9941)"></rect></clipPath></defs></svg>