<svg xmlns="http://www.w3.org/2000/svg" width="81" height="80" viewBox="0 0 81 80" fill="none"><rect x="0.384888" y="-0.00585938" width="80" height="80" rx="40" fill="#1E6DEB"></rect><path d="M29.3849 47.4941L32.7231 46.2803C34.1457 45.7629 35.6672 45.5753 37.1729 45.7316L49.3365 46.9941V48.0436C49.3365 49.5198 48.2625 50.7766 46.8044 51.0069L43.1345 51.5863C42.0244 51.7616 42.0029 53.352 43.1078 53.5573L46.1412 54.1208C46.4944 54.1864 46.8564 54.188 47.2101 54.1256L58.3849 52.1554V56.0973C58.3849 57.4314 57.5039 58.6053 56.2229 58.9779L49.9187 60.8119C45.0661 62.2235 39.8755 61.9215 35.2194 59.9565L29.3849 57.4941" stroke="white" stroke-width="2" stroke-linejoin="round"></path><rect x="22.3849" y="44.9941" width="7" height="15" rx="1" fill="white" fill-opacity="0.4" stroke="white" stroke-width="2"></rect><path d="M53.3849 29.9941C53.3849 36.0693 48.46 40.9941 42.3849 40.9941C36.3098 40.9941 31.3849 36.0693 31.3849 29.9941C31.3849 23.919 36.3098 18.9941 42.3849 18.9941C48.46 18.9941 53.3849 23.919 53.3849 29.9941Z" stroke="white" stroke-width="2"></path><path d="M44.3849 26.4941L42.045 26.1863C41.1933 26.0742 40.379 26.5722 40.0907 27.3814V27.3814C39.7183 28.4267 40.3587 29.5593 41.4463 29.7791L43.3364 30.161C44.2688 30.3494 44.9019 31.22 44.7939 32.1651V32.1651C44.6786 33.1739 43.7651 33.8965 42.7568 33.7765L40.3849 33.4941" stroke="white" stroke-width="2" stroke-linecap="round"></path><path d="M42.3849 23.9941V25.9941M42.3849 34.4941V35.9941" stroke="white" stroke-width="2" stroke-linecap="round"></path></svg>