<svg xmlns="http://www.w3.org/2000/svg" width="80" height="81" viewBox="0 0 80 81" fill="none"><g clip-path="url(#clip0_1300_6368)"><circle cx="39.849" cy="40.3224" r="34.6615" transform="rotate(-9.86729 39.849 40.3224)" fill="#1E6DEB"></circle><path d="M45.7888 74.4712C64.6487 71.1907 77.2782 53.2424 73.9977 34.3826C70.7173 15.5228 52.769 2.89323 33.9092 6.17371C33.1804 6.30046 36.7645 5.69836 36.0549 5.86812C51.7738 4.08639 64.1675 16.1219 67.0991 32.976C70.1348 50.4283 57.8294 64.6808 41.6438 67.4961C21.5113 70.9979 9.30735 61.0086 6.27169 43.5563C5.56106 39.4708 5.60096 35.4413 6.28659 31.6294C5.08209 36.2682 4.82547 41.2328 5.70029 46.2623C8.98076 65.1221 26.929 77.7516 45.7888 74.4712Z" fill="#034FCA"></path><path d="M36.7567 73.1103C35.8739 73.8937 35.937 74.7187 35.937 74.7187C35.937 74.7187 41.7078 75.801 47.9231 74.0998C57.7182 71.4188 61.4093 67.3563 61.4093 67.3563C61.4093 67.3563 58.5158 66.1915 56.1272 66.4379C53.8367 66.6743 52.964 68.7858 50.6603 68.6714C48.6857 68.5733 48.9072 68.351 46.9332 68.4083C44.0643 68.4916 43.3507 71.1201 40.5458 71.7182C39.2492 71.9947 37.7588 72.2209 36.7567 73.1103Z" fill="#5093FD"></path><path d="M11.3494 19.3931C12.283 18.3009 13.9196 16.4095 15.1677 15.0924C18.24 11.8502 22.8718 9.40263 25.3476 8.23651C26.218 7.82655 27.2061 8.37304 27.371 9.32094L27.8447 12.0444C27.8737 12.2111 27.8745 12.3814 27.8472 12.5483L27.1188 17.0041C27.0762 17.2646 26.9663 17.5095 26.7999 17.7144L25.5872 19.2081C25.4627 19.3614 25.3094 19.4889 25.136 19.5834L22.7297 20.8943C22.4287 21.0583 22.2225 21.3545 22.173 21.6936L22.1173 22.076C22.0108 22.8066 22.7841 23.3451 23.4324 22.9919L25.3753 21.9335C25.6471 21.7854 25.867 21.5576 26.0053 21.2808L26.0899 21.1116C26.3049 20.6815 26.7113 20.3791 27.185 20.2967L27.7764 20.1938C28.3219 20.099 28.8757 20.3093 29.2206 20.7425L30.2569 22.0439C30.4151 22.2425 30.5208 22.4776 30.5643 22.7277L30.9874 25.1602C31.022 25.3593 31.0164 25.5634 30.971 25.7603L30.6787 27.0266C30.5949 27.3893 30.3805 27.7085 30.0763 27.9232L28.373 29.1254L26.6067 30.4292C26.4858 30.5184 26.3523 30.5892 26.2105 30.6391L24.867 31.1124C24.5344 31.2296 24.2531 31.4592 24.0717 31.7615L21.8717 35.4276C21.6282 35.8333 21.0904 35.9448 20.7057 35.6694C20.5328 35.5457 20.4155 35.359 20.3791 35.1496L20.2043 34.1445C20.1335 33.7373 19.8662 33.3914 19.4901 33.2202L19.3621 33.1619C19.2273 33.1005 19.113 33.0017 19.0328 32.8772C18.6537 32.2886 17.7499 32.4675 17.6237 33.1562L17.0918 36.0581L16.7692 37.4556C16.6671 37.8978 16.841 38.3581 17.2101 38.6223C17.45 38.794 17.6127 39.0531 17.6633 39.3437L18.1865 42.3518C18.2978 42.9914 18.8042 43.4889 19.4456 43.5887L21.9138 43.9729L26.1804 45.1566C26.3514 45.204 26.5127 45.2812 26.657 45.3844L28.219 46.5025C28.3433 46.5915 28.4804 46.6611 28.6256 46.7091L33.3325 48.2634C33.8629 48.4386 34.2539 48.8915 34.3496 49.4419L34.5702 50.7103C34.6443 51.1363 34.5327 51.5738 34.2636 51.9123L33.2252 53.2182C32.9561 53.5568 32.8445 53.9942 32.9186 54.4203L33.1419 55.7038C33.2362 56.2461 33.0288 56.7969 32.6002 57.1424L30.9483 58.4738C30.6746 58.6944 30.4861 59.0035 30.4153 59.3479L29.6757 62.9456C29.6207 63.213 29.639 63.4903 29.7287 63.7482L31.1642 67.8747C31.2603 68.1509 31.2407 68.4542 31.1099 68.7159C30.8626 69.2105 30.2828 69.4399 29.764 69.2482L28.8093 68.8955C28.6233 68.8268 28.4527 68.7222 28.307 68.5878L24.1164 64.7201C23.8719 64.4944 23.7085 64.1945 23.6515 63.8667L23.2191 61.3811C23.1727 61.1143 23.0556 60.8648 22.88 60.6586L22.3014 59.9793C22.1466 59.7976 21.953 59.6559 21.7331 59.563C20.7453 59.1452 17.85 57.9025 17.0651 57.3631C16.114 56.7095 14.3025 52.6222 15.096 50.9945C15.6442 49.8701 16.1336 47.5989 16.3839 46.3019C16.4971 45.7151 16.2413 45.1249 15.7532 44.7801C14.1016 43.6134 10.4667 40.8866 10.1909 39.3009C10.0656 38.5806 9.84013 37.7176 9.59997 36.9003C9.34486 36.0321 8.15493 36.1127 7.94308 36.9925C7.92769 37.0564 7.90341 37.1187 7.87131 37.176C7.49668 37.8449 6.47495 37.5394 6.52903 36.7746L6.76265 33.4707C6.78222 33.1939 6.88037 32.9284 7.04555 32.7054L8.27739 31.0427C8.52413 30.7097 8.62358 30.29 8.55255 29.8817L8.35568 28.7499C8.27091 28.2625 8.42948 27.7645 8.78041 27.4159L11.8609 24.3559C12.0423 24.1757 12.1751 23.9526 12.247 23.7073L12.5702 22.604C12.7298 22.0594 12.4219 21.4877 11.8795 21.3211C11.7251 21.2737 11.584 21.191 11.4673 21.0794L11.4367 21.0501C10.9728 20.6068 10.9325 19.8808 11.3494 19.3931Z" fill="#72D0C0"></path><path d="M43.4049 9.92054L39.7354 8.23802C39.2447 8.01303 38.9322 7.52048 38.9378 6.98069C38.9453 6.24524 39.5349 5.6448 40.2703 5.64808C51.2766 5.69723 59.0082 10.1882 64.4767 15.4621C72.0631 22.7786 74.5775 30.8435 74.7796 40.4374C74.808 41.7808 73.1873 42.4081 72.2613 41.4345L70.1581 39.2233C69.952 39.0066 69.8146 38.7338 69.7634 38.4391L69.4864 36.8465C69.4055 36.3817 69.1127 35.9811 68.6943 35.7631L67.058 34.9102C66.1049 34.4134 65.0758 35.4327 65.5633 36.3906C65.6778 36.6156 65.7118 36.873 65.6596 37.12L65.3433 38.6155C65.2308 39.1474 64.6221 39.4037 64.1631 39.1124C63.4802 38.6791 62.6707 39.4441 63.0648 40.1504L64.1625 42.1173C64.3641 42.4786 64.3889 42.9124 64.2298 43.2944L63.2356 45.6813C63.1249 45.9472 63.0923 46.2392 63.1416 46.5231L63.473 48.428C63.5232 48.7168 63.4886 49.0139 63.3733 49.2833L61.004 54.8204C60.9352 54.9813 60.8389 55.1292 60.7195 55.2572L56.8225 59.4377C56.297 60.0014 55.432 60.0806 54.8129 59.6216L54.1471 59.1281C53.7397 58.8261 53.5106 58.3402 53.5366 57.8338L53.8009 52.6899C53.8146 52.4229 53.7574 52.157 53.6351 51.9193L52.1655 49.063C51.8624 48.4741 51.2119 48.1504 50.5593 48.2639L47.644 48.771C47.3565 48.821 47.0606 48.7869 46.792 48.6727L42.6986 46.9327C42.2258 46.7317 41.8845 46.3048 41.8069 45.7969C41.2477 42.1377 41.5073 39.8263 43.4755 36.2119C43.6594 35.8743 43.972 35.6245 44.3392 35.5107L51.7081 33.2272C52.0277 33.1282 52.3055 32.926 52.4982 32.6524L53.6793 30.9744C53.9104 30.6461 54.2625 30.423 54.6581 30.3541L56.5952 30.0172C57.3359 29.8884 57.8319 29.1835 57.7031 28.4428C57.6097 27.9063 57.2056 27.477 56.6757 27.3515L54.6767 26.878C53.928 26.7007 53.1653 27.113 52.9036 27.8365L52.1128 30.0226C51.928 30.5335 51.4836 30.9063 50.9483 30.9994L47.6396 31.5749L44.307 32.1546C43.6434 32.27 42.9833 31.9333 42.6872 31.3283L40.8305 27.5342C40.5713 27.0048 40.643 26.373 41.0142 25.915L42.3924 24.2145C42.6678 23.8747 42.7828 23.4324 42.7078 23.0015L42.1817 19.9769C42.1129 19.5811 42.2041 19.1742 42.4354 18.8457L45.2499 14.8473C45.561 14.4053 45.613 13.831 45.3862 13.3403L44.1484 10.6618C43.9969 10.334 43.7332 10.0711 43.4049 9.92054Z" fill="#72D0C0"></path><path d="M55.7176 59.9173L59.5031 56.078C59.8847 55.6909 60.2045 55.2475 60.4513 54.7632L62.5553 50.6342C63.076 49.6124 63.2513 48.4492 63.0548 47.3194L62.8625 46.2143" stroke="#003DA1" stroke-width="1.51441" stroke-linecap="round"></path><path d="M42.8181 32.1096L49.4057 30.9638C50.8186 30.7181 51.9713 29.6952 52.3833 28.3216L52.8708 26.6963" stroke="#003DA1" stroke-width="1.51441" stroke-linecap="round"></path><path d="M27.9547 11.9732C27.9547 11.9732 28.1559 15.2365 27.6301 16.4274C27.1043 17.6183 26.5166 18.4535 25.2175 19.4124C23.9183 20.3714 22.2635 21.3922 22.2635 21.3922" stroke="#003DA1" stroke-width="1.51441" stroke-linecap="round"></path><path d="M17.1602 38.405L18.0612 42.1066C18.2903 43.0476 19.0909 43.7399 20.0551 43.8308L22.5425 44.0654L25.7612 44.7457C26.1453 44.8269 26.5017 45.0062 26.7959 45.2662L27.7626 46.1207C27.972 46.3057 28.2137 46.4506 28.4756 46.5479L32.7811 48.1482" stroke="#003DA1" stroke-width="1.51441" stroke-linecap="round" stroke-linejoin="round"></path><path d="M21.4751 35.8223L24.1059 31.6778C24.2662 31.4254 24.4975 31.2261 24.7709 31.1049L27.0736 30.0843L30.6772 27.6251" stroke="#003DA1" stroke-width="1.51441" stroke-linecap="round"></path><path d="M68.112 48.6648C68.8148 47.6925 70.0373 48.2025 70.9134 47.3804C71.9924 46.3679 73.3933 46.2712 73.6402 47.9722C73.6402 47.9722 73.8458 49.5883 71.9272 54.3655C71.144 56.3157 69.4655 58.6848 68.2512 60.2645C67.933 60.6784 67.0687 60.246 66.7457 59.8358C64.7634 57.3185 65.1691 58.8985 64.6642 55.4197C64.4927 54.2376 64.2919 53.3456 65.1113 52.052C65.9073 50.7955 67.2104 49.9124 68.112 48.6648Z" fill="#72D0C0"></path></g><defs><clipPath id="clip0_1300_6368"><rect width="80" height="80" fill="white" transform="translate(0 0.417969)"></rect></clipPath></defs></svg>