<svg data-v-0dd9719b="" version="1.0" xmlns="http://www.w3.org/2000/svg" xmlns:xlink="http://www.w3.org/1999/xlink" width="100%" height="100%" viewBox="0 0 340.000000 250.000000" preserveAspectRatio="xMidYMid meet" color-interpolation-filters="sRGB" style="margin: auto;"> <rect data-v-0dd9719b="" x="0" y="0" width="100%" height="100%" fill="#FFFFFF" fill-opacity="0" class="background"></rect> <rect data-v-0dd9719b="" x="0" y="0" width="100%" height="100%" fill="url(#watermark)" fill-opacity="1" class="watermarklayer"></rect> <g data-v-0dd9719b="" fill="#38202d" class="iconlinesvg-g iconlinesvg" transform="translate(81.71081852912903,106.47100257873535)"><g class="tp-name"><g transform="translate(0, 0)"><g data-gra="path-name" fill="#38202d" transform="scale(1)"><path d="M29.08-35.63L29.08-35.63Q30.40-35.63 31.21-34.74Q32.02-33.85 32.02-32.53L32.02-32.53L32.02-14.13Q32.02-9.91 30.22-6.66Q28.42-3.41 25.26-1.58Q22.11 0.25 17.94 0.25L17.94 0.25Q13.78 0.25 10.60-1.58Q7.42-3.41 5.62-6.66Q3.81-9.91 3.81-14.13L3.81-14.13L3.81-32.53Q3.81-33.85 4.73-34.74Q5.64-35.63 7.07-35.63L7.07-35.63Q8.23-35.63 9.18-34.74Q10.12-33.85 10.12-32.53L10.12-32.53L10.12-14.13Q10.12-11.59 11.21-9.73Q12.30-7.88 14.11-6.86Q15.91-5.85 17.94-5.85L17.94-5.85Q20.13-5.85 22.01-6.86Q23.89-7.88 25.06-9.73Q26.23-11.59 26.23-14.13L26.23-14.13L26.23-32.53Q26.23-33.85 26.99-34.74Q27.75-35.63 29.08-35.63Z" transform="translate(-3.812482349618751, 36.5489974583451)"></path></g></g><g transform="translate(32, 0)"><g data-gra="path-name" fill="#38202d" transform="scale(1)"><path d="M17.84-27.70L17.84-27.70Q21.60-27.70 23.56-26.13Q25.52-24.55 26.26-21.93Q26.99-19.32 26.99-16.11L26.99-16.11L26.99-3.10Q26.99-1.78 26.13-0.89Q25.26 0 23.94 0L23.94 0Q22.62 0 21.76-0.89Q20.89-1.78 20.89-3.10L20.89-3.10L20.89-16.11Q20.89-17.79 20.46-19.14Q20.03-20.49 18.91-21.30Q17.79-22.11 15.71-22.11L15.71-22.11Q13.67-22.11 12.28-21.30Q10.88-20.49 10.14-19.14Q9.40-17.79 9.40-16.11L9.40-16.11L9.40-3.10Q9.40-1.78 8.54-0.89Q7.68 0 6.35 0L6.35 0Q5.03 0 4.17-0.89Q3.30-1.78 3.30-3.10L3.30-3.10L3.30-24.09Q3.30-25.42 4.17-26.31Q5.03-27.20 6.35-27.20L6.35-27.20Q7.68-27.20 8.54-26.31Q9.40-25.42 9.40-24.09L9.40-24.09L9.40-21.91L8.64-22.06Q9.10-22.93 9.96-23.92Q10.83-24.91 12.00-25.77Q13.17-26.64 14.64-27.17Q16.11-27.70 17.84-27.70Z" transform="translate(-3.3041513696695843, 36.5489974583451)"></path></g></g><g transform="translate(59, 0)"><g data-gra="path-name" fill="#38202d" transform="scale(1)"><path d="M9.05-24.09L9.05-3.10Q9.05-1.78 8.18-0.89Q7.32 0 6.00 0L6.00 0Q4.68 0 3.81-0.89Q2.95-1.78 2.95-3.10L2.95-3.10L2.95-24.09Q2.95-25.42 3.81-26.31Q4.68-27.20 6.00-27.20L6.00-27.20Q7.32-27.20 8.18-26.31Q9.05-25.42 9.05-24.09L9.05-24.09ZM5.95-30.50L5.95-30.50Q4.22-30.50 3.51-31.06Q2.80-31.62 2.80-33.04L2.80-33.04L2.80-34.01Q2.80-35.48 3.58-36.02Q4.37-36.55 6.00-36.55L6.00-36.55Q7.78-36.55 8.49-35.99Q9.20-35.43 9.20-34.01L9.20-34.01L9.20-33.04Q9.20-31.57 8.44-31.03Q7.68-30.50 5.95-30.50Z" transform="translate(-2.7958203897204177, 36.5489974583451)"></path></g></g><g transform="translate(69, 0.28940019197651523)"><g><g class="imagesvg"><g><rect fill="#38202d" fill-opacity="0" stroke-width="2" x="0" y="0" width="42.272777450492796" height="36.47852805434123" class="image-rect"></rect> <svg filter="url(#colors32394237)" x="0" y="0" width="42.272777450492796" height="36.47852805434123" filtersec="colorsf3177477093" class="image-svg-svg primary" style="overflow: visible;"><svg xmlns="http://www.w3.org/2000/svg" xmlns:xlink="http://www.w3.org/1999/xlink" version="1.1" x="0px" y="0px" viewBox="3.0899999141693115 4.860000133514404 25.819000244140625 22.280000686645508" enable-background="new 0 0 32 32" xml:space="preserve"><path d="M28.245,4.86C20.391,9.676,14.691,15.751,12.131,18.8L5.86,13.887L3.09,16.12l10.836,11.02  c1.865-4.777,7.771-14.113,14.983-20.746L28.245,4.86z"></path></svg></svg> <defs><filter id="colors32394237"><feColorMatrix type="matrix" values="0 0 0 0 0.1015625  0 0 0 0 0.28125  0 0 0 0 0.80859375  0 0 0 1 0" class="icon-fecolormatrix"></feColorMatrix></filter> <filter id="colorsf3177477093"><feColorMatrix type="matrix" values="0 0 0 0 0.99609375  0 0 0 0 0.99609375  0 0 0 0 0.99609375  0 0 0 1 0" class="icon-fecolormatrix"></feColorMatrix></filter> <filter id="colorsb8684722854"><feColorMatrix type="matrix" values="0 0 0 0 0  0 0 0 0 0  0 0 0 0 0  0 0 0 1 0" class="icon-fecolormatrix"></feColorMatrix></filter></defs></g></g></g></g><g transform="translate(115, 0)"><g data-gra="path-name" fill="#38202d" transform="scale(1)"><path d="M9.05-24.09L9.05-3.10Q9.05-1.78 8.18-0.89Q7.32 0 6.00 0L6.00 0Q4.68 0 3.81-0.89Q2.95-1.78 2.95-3.10L2.95-3.10L2.95-24.09Q2.95-25.42 3.81-26.31Q4.68-27.20 6.00-27.20L6.00-27.20Q7.32-27.20 8.18-26.31Q9.05-25.42 9.05-24.09L9.05-24.09ZM5.95-30.50L5.95-30.50Q4.22-30.50 3.51-31.06Q2.80-31.62 2.80-33.04L2.80-33.04L2.80-34.01Q2.80-35.48 3.58-36.02Q4.37-36.55 6.00-36.55L6.00-36.55Q7.78-36.55 8.49-35.99Q9.20-35.43 9.20-34.01L9.20-34.01L9.20-33.04Q9.20-31.57 8.44-31.03Q7.68-30.50 5.95-30.50Z" transform="translate(-2.7958203897204177, 36.5489974583451)"></path></g></g><g transform="translate(125, 0)"><g data-gra="path-name" fill="#38202d" transform="scale(1)"><path d="M9.76-5.59L20.64-5.59Q21.86-5.59 22.67-4.80Q23.48-4.02 23.48-2.80L23.48-2.80Q23.48-1.63 22.67-0.81Q21.86 0 20.64 0L20.64 0L4.27 0Q3.00 0 2.24-0.91Q1.47-1.83 1.52-2.74L1.52-2.74Q1.58-3.51 1.73-4.09Q1.88-4.68 2.49-5.44L2.49-5.44L15.15-21.81L15.05-21.10L4.73-21.10Q3.51-21.10 2.69-21.91Q1.88-22.72 1.88-23.94L1.88-23.94Q1.88-25.11 2.69-25.90Q3.51-26.69 4.73-26.69L4.73-26.69L20.38-26.69Q21.55-26.69 22.37-25.82Q23.18-24.96 23.08-23.64L23.08-23.64Q23.03-23.13 22.90-22.62Q22.77-22.11 22.21-21.40L22.21-21.40L9.76-5.29L9.76-5.59Z" transform="translate(-1.5218158712228187, 36.5489974583451)"></path></g></g><g transform="translate(150, 0)"><g data-gra="path-name" fill="#38202d" transform="scale(1)"><path d="M25.31-27.70L25.31-27.70Q26.64-27.70 27.50-26.84Q28.36-25.98 28.36-24.60L28.36-24.60L28.36-3.10Q28.36-1.78 27.50-0.89Q26.64 0 25.31 0L25.31 0Q23.99 0 23.13-0.89Q22.26-1.78 22.26-3.10L22.26-3.10L22.26-5.59L23.38-5.13Q23.38-4.47 22.67-3.53Q21.96-2.59 20.74-1.68Q19.52-0.76 17.87-0.13Q16.22 0.51 14.28 0.51L14.28 0.51Q10.78 0.51 7.93-1.30Q5.08-3.10 3.43-6.28Q1.78-9.45 1.78-13.57L1.78-13.57Q1.78-17.74 3.43-20.92Q5.08-24.09 7.88-25.90Q10.67-27.70 14.08-27.70L14.08-27.70Q16.27-27.70 18.10-27.04Q19.93-26.38 21.27-25.37Q22.62-24.35 23.36-23.31Q24.09-22.26 24.09-21.55L24.09-21.55L22.26-20.89L22.26-24.60Q22.26-25.92 23.13-26.81Q23.99-27.70 25.31-27.70ZM15.05-5.08L15.05-5.08Q17.28-5.08 18.96-6.20Q20.64-7.32 21.58-9.25Q22.52-11.18 22.52-13.57L22.52-13.57Q22.52-16.01 21.58-17.94Q20.64-19.88 18.96-20.99Q17.28-22.11 15.05-22.11L15.05-22.11Q12.86-22.11 11.18-20.99Q9.51-19.88 8.57-17.94Q7.62-16.01 7.62-13.57L7.62-13.57Q7.62-11.18 8.57-9.25Q9.51-7.32 11.18-6.20Q12.86-5.08 15.05-5.08Z" transform="translate(-1.779158429822084, 36.5489974583451)"></path></g></g></g> <!----></g><defs v-gra="od"></defs></svg>