<svg xmlns="http://www.w3.org/2000/svg" width="80" height="81" viewBox="0 0 80 81" fill="none"><path d="M73.4456 28.2505C77.069 41.6769 73.4456 52.6618 55.1244 62.1981C34.6531 70.8914 15.8644 62.1964 14.1816 48.0364C12.4989 33.8764 20.4123 15.2749 37.6752 10.6161C54.9381 5.95724 69.8222 14.8242 73.4456 28.2505Z" fill="#DCE9FE"></path><path d="M44.7222 11.9703C44.7222 12.7911 44.2108 13.4924 43.4892 13.7729C43.501 13.8866 43.507 14.0021 43.507 14.1189C43.507 15.8863 42.1272 17.3314 40.386 17.4357C40.18 18.3067 39.5749 19.0234 38.7744 19.3821C39.4674 20.129 39.8911 21.1293 39.8911 22.2285C39.8911 22.7852 39.7824 23.3166 39.5851 23.8024C41.516 27.1136 43.7829 35.9812 43.7829 37.6111C43.7829 39.6234 38.7995 41.4796 36.7873 41.4796C36.1655 41.4796 35.5801 41.3238 35.068 41.0492C34.7311 41.3048 34.3111 41.4564 33.8556 41.4564C32.7466 41.4564 31.8476 40.5574 31.8476 39.4483C31.8476 39.1092 31.9316 38.7898 32.08 38.5096C30.5324 37.7246 29.4718 36.1182 29.4718 34.2641C29.4718 33.1923 29.8262 32.2033 30.4242 31.4079C30.0233 31.1024 29.7646 30.6199 29.7646 30.077C29.7646 29.3322 30.2515 28.7012 30.9243 28.4848C30.8433 28.186 30.8 27.8716 30.8 27.5472C30.8 26.3523 31.3864 25.2944 32.2871 24.6456C31.8034 23.9628 31.5192 23.1289 31.5192 22.2285C31.5192 20.131 33.0619 18.3938 35.0745 18.0898C34.8704 17.6966 34.7551 17.25 34.7551 16.7765C34.7551 15.4585 35.6485 14.3492 36.8627 14.0212C36.9144 12.2313 38.3817 10.7961 40.1842 10.7961C40.5212 10.7961 40.8466 10.8463 41.1532 10.9396C41.4956 10.3973 42.1002 10.0371 42.789 10.0371C43.8567 10.0371 44.7222 10.9027 44.7222 11.9703Z" fill="#301601"></path><path d="M60.4481 21.9062C60.5034 21.6445 60.5325 21.3731 60.5325 21.0949C60.5325 18.9401 58.7858 17.1934 56.6311 17.1934C54.4763 17.1934 52.7296 18.9401 52.7296 21.0949C52.7296 23.0004 54.0957 24.5869 55.902 24.9284C55.4799 25.5151 55.2313 26.2351 55.2313 27.0131C55.2313 27.8005 55.4859 28.5284 55.9173 29.119C54.7904 29.9121 54.054 31.2229 54.054 32.7057C54.054 33.5121 54.2718 34.2677 54.6519 34.9168C53.5221 35.5402 52.7569 36.743 52.7569 38.1245C52.7569 40.1465 54.396 41.7856 56.418 41.7856C58.4399 41.7856 60.079 40.1465 60.079 38.1245C60.079 37.6781 59.9991 37.2502 59.8528 36.8546C61.5784 36.2658 62.8195 34.6307 62.8195 32.7057C62.8195 31.4262 62.2713 30.2748 61.3969 29.4736C62.0054 28.8328 62.3788 27.9666 62.3788 27.0131C62.3788 25.996 61.9539 25.0781 61.2719 24.4273C61.4873 24.156 61.616 23.8127 61.616 23.4394C61.616 22.7074 61.1213 22.091 60.4481 21.9062Z" fill="#301601"></path><path d="M40.4512 27.3412C40.7041 27.0345 40.8559 26.6414 40.8559 26.2129C40.8559 25.2327 40.0612 24.438 39.081 24.438C38.1007 24.438 37.306 25.2327 37.306 26.2129C37.306 26.6544 37.4672 27.0583 37.734 27.3689C36.8498 27.8572 36.2509 28.7989 36.2509 29.8805C36.2509 30.6662 36.5669 31.3781 37.0788 31.896C35.6953 32.0566 34.6214 33.2323 34.6214 34.6588C34.6214 35.9842 35.5484 37.0931 36.7894 37.3725C36.5623 37.6707 36.4275 38.043 36.4275 38.4469C36.4275 39.4271 37.2221 40.2218 38.2024 40.2218C38.8603 40.2218 39.4346 39.8638 39.7412 39.3321C40.3066 39.6502 40.9593 39.8317 41.6543 39.8317C43.8122 39.8317 45.5615 38.0823 45.5615 35.9245C45.5615 33.7666 43.8122 32.0172 41.6543 32.0172C41.4171 32.0172 41.1849 32.0384 40.9593 32.0789C41.5867 31.5529 41.9856 30.7633 41.9856 29.8805C41.9856 28.7782 41.3635 27.8211 40.4512 27.3412Z" fill="#0A0400"></path><path d="M57.9788 27.6098C57.9788 27.9409 57.854 28.2429 57.6489 28.4712C58.0046 28.8016 58.2273 29.2735 58.2273 29.7973C58.2273 30.3261 58.0004 30.8019 57.6387 31.1328C58.1334 31.6554 58.4368 32.361 58.4368 33.1375C58.4368 34.6018 57.3577 35.8141 55.9514 36.0226C56.0105 36.2288 56.0422 36.4467 56.0422 36.6719C56.0422 37.9697 54.9902 39.0218 53.6924 39.0218C52.3946 39.0218 51.3425 37.9697 51.3425 36.6719C51.3425 35.8397 51.7751 35.1086 52.4277 34.691C52.4338 34.4383 52.4772 34.1619 52.5194 33.8935C52.5621 33.6221 52.6034 33.3591 52.6034 33.1375C52.6034 31.9681 53.0715 30.2773 54.065 29.8123C54.2146 29.7422 54.4062 29.7931 54.6104 29.8795C54.6092 29.8523 54.6086 29.8249 54.6086 29.7973C54.6086 29.1133 54.9882 28.5179 55.5482 28.2103C55.4536 28.031 55.4001 27.8267 55.4001 27.6098C55.4001 26.8977 55.9774 26.3205 56.6894 26.3205C57.4015 26.3205 57.9788 26.8977 57.9788 27.6098Z" fill="#0A0400"></path><path d="M47.8447 43.6311C41.1193 44.5553 41.7217 38.8213 41.7217 38.8213L34.6007 41.0598C32.3257 41.775 30.5701 43.5974 29.9403 45.8975L23.2584 70.3002L67.5853 69.8759L58.4717 40.3153L53.7217 39.0653C53.7217 39.0653 53.4875 42.8558 47.8447 43.6311Z" fill="#FFCC60"></path><path d="M56.5365 51.3002L22.8203 65.3409C20.1187 66.466 21.2013 70.5188 24.104 70.1468L60.9785 65.4217C61.9155 65.3016 62.5118 64.3584 62.2184 63.4605L58.5466 52.2226C58.2738 51.3877 57.3473 50.9625 56.5365 51.3002Z" fill="#F4A04F"></path><path d="M47.9801 64.1836H36.2007C35.4625 64.1836 34.7564 64.4862 34.2474 65.021L30.7935 68.6489C30.0329 69.4478 30.5992 70.7688 31.7023 70.7688H46.7989L47.9801 64.1836Z" fill="#BD823F"></path><path d="M60.8996 40.6815L58.4719 40.3152L60.8779 64.4125C61.2508 68.1472 64.892 70.65 68.5123 69.6602C70.6928 69.064 72.052 66.8955 71.6382 64.6732L68.5465 48.0701C67.8314 44.2299 64.7621 41.2642 60.8996 40.6815Z" fill="#FFCC60"></path><path d="M57.4255 49.5154L61.3571 61.3101" stroke="#D3602F" stroke-width="0.875" stroke-linecap="round"></path><path d="M37.4219 48.3255C37.3013 47.8459 36.8701 47.5098 36.3756 47.5098H6.37358C5.66555 47.5098 5.14948 48.1803 5.33071 48.8647L11.1406 70.8059C11.2572 71.2462 11.6556 71.5528 12.111 71.5528H43.2627L37.4219 48.3255Z" fill="#CCDFFF"></path><ellipse cx="2.00131" cy="3.0756" rx="2.00131" ry="3.0756" transform="matrix(-0.906308 0.422618 0.422618 0.906308 23.3394 57.4148)" fill="#1E6DEB"></ellipse><path d="M37.4747 48.2522L43.4113 71.1079" stroke="#1E6DEB" stroke-width="0.875" stroke-linecap="round"></path><path d="M71.5719 64.9149L71.5283 64.7321C70.933 62.2355 68.55 60.5903 66.0044 60.9184L48.1789 63.2164L47.1182 62.0291L45.1429 62.1649C44.6037 62.202 44.2732 62.7796 44.5017 63.2693C45.0243 64.3894 45.7911 66.1691 45.9428 67.2653C46.1198 68.5439 45.6959 70.5031 45.4956 71.3223C45.437 71.562 45.5024 71.8127 45.7358 71.893C47.067 72.3509 51.4266 72.2875 51.4266 71.7029C51.8077 71.6956 51.9874 71.1202 52.3608 71.113C56.6977 71.5343 61.5082 71.3592 66.6662 71.1713L66.7883 71.1669C69.9892 71.0504 72.3149 68.0306 71.5719 64.9149Z" fill="#FFCC60"></path><path d="M52.3138 66.1309C52.4672 66.6953 52.4283 68.1064 52.3138 68.8229C52.1304 69.97 51.9125 70.802 51.5156 71.6584" stroke="#D3602F" stroke-width="0.875" stroke-linecap="round"></path><path d="M47.6603 62.0062C48.3098 62.5087 49.1126 63.6973 49.3642 64.3093C49.7784 65.3175 49.7823 66.6807 49.5339 67.5614" stroke="#D3602F" stroke-width="0.875" stroke-linecap="round"></path><path d="M44.4512 62.6521C45.3271 63.5669 46.1075 65.3406 46.2099 66.8312C46.3222 68.4665 46.1081 70.5055 45.619 71.6246" stroke="#D3602F" stroke-width="0.875" stroke-linecap="round"></path><path d="M65.5491 60.7429L53.2345 62.4518" stroke="#D3602F" stroke-width="0.875" stroke-linecap="round"></path><circle cx="54.4443" cy="24.5107" r="1.42058" fill="#301601"></circle><path d="M53.2542 31.7493L43.4743 36.0541C43.7968 36.9515 43.8717 37.7372 43.7968 38.4172L41.7908 38.9457C39.3398 44.0547 40.6329 48.665 44.5202 49.2319C50.1061 50.0466 54.7016 44.7381 55.6642 39.6712L53.6423 38.9457C51.9888 36.2106 52.632 33.2727 53.2542 31.7493Z" fill="#D68B3E"></path><g style="mix-blend-mode:multiply" opacity="0.65"><path d="M53.6886 38.9631L55.7833 39.6713C55.6411 40.4198 55.4196 41.1736 55.1273 41.9122C51.3763 41.0494 50.8962 35.3097 51.3381 33.7836L53.4197 31.5198C53.4561 32.6655 53.0482 37.9037 53.6886 38.9631Z" fill="#D68B3E"></path></g><g style="mix-blend-mode:multiply" opacity="0.65"><path d="M43.4741 36.0542C43.7966 36.9515 43.8714 37.7373 43.7966 38.4172V40.7389C45.7151 40.0359 49.4659 37.9972 49.1208 35.4663L48.2184 33.9854L43.4741 36.0542Z" fill="#D68B3E"></path></g><path d="M38.4522 22.2717C38.9888 18.1326 40.541 13.9036 46.7654 13.9036C51.9142 13.9036 53.8132 17.5744 54.1516 19.6623C54.4899 21.7502 54.1516 28.0488 54.1516 28.0488C54.1516 30.4997 53.0972 32.8805 51.0637 34.2485C49.9397 35.0047 49.2225 35.3798 48.7882 35.6971C47.5725 36.5854 43.5605 37.5173 42.0279 35.5888C41.3128 34.689 41.0908 34.0968 40.5977 33.2493C38.4342 29.531 38.3629 28.0935 38.3629 27.5806C38.3629 26.9507 38.9886 24.6112 38.9886 24.1613C38.9886 23.8014 38.5416 22.9316 38.4522 22.2717Z" fill="#D68B3E"></path><path d="M43.546 36.5638C44.4598 36.8761 48.5199 36.6332 50.7019 34.1926" stroke="#994D00" stroke-width="0.875" stroke-linecap="round"></path><path d="M55.5113 23.9309C54.6473 23.8585 54.0436 24.8061 53.8497 25.2889L53.6053 30.3487C54.3253 30.1676 55.4614 29.6889 55.9267 29.1819C56.5082 28.5482 57.339 26.647 57.1728 25.8322C57.0067 25.0174 56.5913 24.0215 55.5113 23.9309Z" fill="#D68B3E"></path><path d="M55.8232 24.9954C55.4641 24.8773 54.6382 24.96 54.2072 26.2354C54.1175 26.4421 53.9918 27.0326 54.2072 27.7412C54.4227 28.4498 54.1175 28.9222 53.9379 29.0699" stroke="#994D00" stroke-width="0.875"></path><path d="M54.2808 26.1576C54.9535 26.1291 56.1835 26.3286 55.7222 27.3547" stroke="#994D00" stroke-width="0.875"></path><path d="M45.2189 28.9866C45.4231 29.0622 45.7497 29.3394 45.4231 29.8435" stroke="#994D00" stroke-width="0.875" stroke-linecap="round"></path><path d="M42.6477 29.9863C42.5496 30.0425 42.2652 30.0538 41.9122 29.6493C41.6157 29.3096 41.9209 28.7877 42.2005 28.4628C42.2965 28.3513 42.3843 28.232 42.4418 28.0965C42.582 27.7664 42.7849 27.2639 42.889 26.9197" stroke="#994D00" stroke-width="0.875" stroke-linecap="round"></path><path d="M42.4768 29.8425C42.6405 30.0139 43.0723 30.3567 43.4898 30.3567C43.9073 30.3567 44.3595 30.1282 44.5335 30.0139" stroke="#994D00" stroke-width="0.875" stroke-linecap="round"></path><path d="M48.2839 25.4718C48.2669 25.1091 47.9664 24.8286 47.6126 24.8451C47.2588 24.8617 46.9858 25.1692 47.0028 25.5318C47.0198 25.8945 47.3204 26.175 47.6741 26.1585C48.0279 26.1419 48.3009 25.8344 48.2839 25.4718Z" fill="#001535"></path><path d="M45.7026 25.5727C46.1521 25.2048 47.0517 24.1951 49.3903 25.3644L49.9752 24.9965" stroke="#001535" stroke-width="0.875"></path><path d="M40.0026 25.4718C40.0196 25.1091 40.3202 24.8286 40.674 24.8451C41.0277 24.8617 41.3008 25.1692 41.2838 25.5318C41.2668 25.8945 40.9662 26.175 40.6124 26.1585C40.2586 26.1419 39.9856 25.8344 40.0026 25.4718Z" fill="#001535"></path><path d="M42.5989 25.5727C42.1495 25.2048 40.6649 24.161 38.9112 25.3644L38.3263 24.9965" stroke="#001535" stroke-width="0.875"></path><path d="M45.4045 23.1139C45.9529 22.6394 48.7165 22.0919 50.6119 23.9911" stroke="#0A0400" stroke-width="0.875"></path><path d="M43.0657 23.1625C42.5931 22.6709 40.0065 22.2868 38.35 23.8727" stroke="#0A0400" stroke-width="0.875"></path><path d="M42.3601 33.1643C42.185 32.4436 42.1735 32.6813 41.9972 32.1404C42.5748 31.8564 42.8375 32.0261 42.8967 32.1464L43.6193 31.7015L47.1713 32.1404C45.7176 34.2894 43.4069 34.0033 42.3601 33.1643Z" fill="#813B19"></path><path d="M46.4828 32.9674C44.8025 33.8306 43.8736 33.7507 43.0292 33.4747L41.7805 31.9767L42.8688 31.7401L47.3455 31.8506L46.4828 32.9674Z" fill="white"></path><path d="M41.5722 32.0174C41.8518 31.8299 42.1933 31.4238 43.1013 32.0277C43.4622 31.8663 44.0539 31.648 44.6347 31.7289C45.312 31.8233 46.6631 32.1387 47.4997 31.8432C47.1635 32.7966 43.565 35.9069 41.7957 32.1636" stroke="#813B19" stroke-width="0.875" stroke-linecap="round" stroke-linejoin="round"></path><path d="M43.2133 32.0277C42.2803 31.4905 41.9638 31.8299 41.6842 32.0174C41.9468 32.2535 43.3254 32.7507 47.4106 32.1002C46.539 32.0036 45.4322 31.8322 44.755 31.7378C44.1742 31.6568 43.5742 31.8663 43.2133 32.0277Z" fill="#813B19"></path><path d="M56.0657 18.3219C56.8442 17.8354 57.3621 16.9707 57.3621 15.985C57.3621 14.4641 56.1292 13.2312 54.6083 13.2312C54.2363 13.2312 53.8816 13.3049 53.5578 13.4386C53.572 13.3229 53.5793 13.2051 53.5793 13.0855C53.5793 11.4961 52.2908 10.2077 50.7014 10.2077C50.2624 10.2077 49.8464 10.3059 49.4741 10.4817C48.9702 9.21254 47.7311 8.31519 46.2824 8.31519C44.4386 8.31519 42.9343 9.76889 42.8531 11.5927C41.7653 12.2412 41.0366 13.4294 41.0366 14.7878C41.0366 15.0184 41.0576 15.2441 41.0978 15.463L35.7818 20.9855L36.6164 23.3289C36.7225 23.3152 36.8277 23.2993 36.932 23.2811C37.1047 23.5618 37.4147 23.749 37.7684 23.749C38.3104 23.749 38.7498 23.3096 38.7498 22.7676C38.7498 22.7472 38.7491 22.727 38.7479 22.7069C40.7231 21.774 42.1642 19.972 42.6469 17.8507C43.2457 18.2633 43.9715 18.5049 44.7537 18.5049C46.1069 18.5049 47.2913 17.7818 47.9414 16.7009C48.3962 17.305 49.1195 17.6956 49.9339 17.6956C50.5512 17.6956 51.116 17.4713 51.5513 17.0997C51.2523 17.5118 51.076 18.0186 51.076 18.5667C51.076 19.2498 51.35 19.869 51.7939 20.3203C51.383 21.135 51.7859 22.1955 52.6236 22.3682C52.2772 22.8658 52.2482 24.1723 53.1592 24.464L53.1556 24.5132C53.1008 25.261 53.016 26.4173 53.5784 26.6763C53.7181 25.9389 54.0524 24.7993 54.2909 24.5607L55.0271 20.6041C55.6629 20.1507 56.0775 19.4071 56.0775 18.5667C56.0775 18.4841 56.0735 18.4025 56.0657 18.3219Z" fill="#301601"></path><path d="M35.2651 23.5604C34.6574 23.896 33.989 24.4112 34.9647 25.5749C33.788 25.8569 32.5767 27.2368 34.0914 28.2693" stroke="#663000" stroke-width="0.875"></path><path d="M55.8233 19.2952C56.1694 19.6447 56.7063 20.4937 56.0856 21.093C56.5974 21.4056 57.3692 22.2875 56.3624 23.3142" stroke="#663000" stroke-width="0.875"></path><path d="M42.7984 12.3228C42.4862 12.2819 41.8145 12.3548 41.6251 12.9734C41.2435 12.9649 40.4404 13.2214 40.2812 14.3152" stroke="#663000" stroke-width="0.875"></path><path fill-rule="evenodd" clip-rule="evenodd" d="M18.3723 32.4147C18.1917 31.482 17.8059 30.6043 17.2792 29.8137C16.1081 28.0559 14.0826 24.7532 13.9683 22.7805C13.7178 18.4551 17.0212 14.7456 21.3466 14.4951C25.6721 14.2446 29.3816 17.548 29.6321 21.8734C29.7422 23.7748 28.2253 27.2648 27.3506 29.1019C26.9694 29.9025 26.7209 30.7619 26.6562 31.6463L26.4853 33.9784L18.7615 34.4257L18.3723 32.4147Z" fill="#FFD680"></path><circle cx="4.92359" cy="4.92359" r="4.92359" transform="matrix(-0.998327 0.0578156 0.0578156 0.998327 26.5825 18.5264)" fill="#FFEBBF"></circle><path d="M23.6856 33.4898L23.8696 24.7001C23.8805 24.181 24.4133 23.838 24.8904 24.0429L24.9527 24.0697C25.3298 24.2317 25.4145 24.7286 25.1124 25.0064L24.9901 25.1189C23.9479 26.0773 22.3064 25.9281 21.4542 24.7974V24.7974C21.1726 24.4237 21.4211 23.8871 21.8881 23.86L22.092 23.8482C22.5382 23.8224 22.8367 24.2999 22.6179 24.6897V24.6897C21.9049 25.9601 20.2094 26.2634 19.1002 25.3189L18.9737 25.2113C18.6244 24.9138 18.7769 24.3442 19.2281 24.2611L19.3955 24.2302C19.8119 24.1535 20.2092 24.4362 20.2734 24.8546L21.616 33.6097" stroke="#F14F5F" stroke-width="0.875"></path><ellipse cx="3.24621" cy="2.70518" rx="3.24621" ry="2.70518" transform="matrix(-0.998327 0.0578156 0.0578156 0.998327 25.6506 32.6716)" fill="#1E6DEB"></ellipse><rect width="8.92708" height="3.78725" rx="0.286958" transform="matrix(-0.998327 0.0578156 0.0578156 0.998327 26.954 31.7834)" fill="#1E6DEB"></rect><line x1="0.4375" y1="-0.4375" x2="9.15055" y2="-0.4375" transform="matrix(-0.998327 0.0578155 0.0578155 0.998327 27.4813 34.0486)" stroke="#70A7FF" stroke-width="0.875" stroke-linecap="round"></line><rect width="6.49242" height="0.811553" rx="0.286958" transform="matrix(-0.998327 0.0578156 0.0578156 0.998327 25.8229 35.6426)" fill="#00307A"></rect><path d="M22.3092 16.1085C22.7333 16.084 23.1484 16.1126 23.5484 16.1888M24.9227 16.6643C26.0848 17.2647 27.0028 18.3031 27.4572 19.5795" stroke="white" stroke-width="0.875" stroke-linecap="round" stroke-linejoin="round"></path><path fill-rule="evenodd" clip-rule="evenodd" d="M11.0781 33.0976C11.3628 32.2427 12.5586 32.2066 12.8945 33.0427C13.0894 33.5281 13.6349 33.7707 14.126 33.5905C14.9718 33.2801 15.7457 34.1925 15.3014 34.9763C15.0434 35.4314 15.1938 36.0091 15.6409 36.2807C16.411 36.7485 16.1801 37.9224 15.2903 38.0637C14.7736 38.1458 14.4157 38.6236 14.4821 39.1425C14.5965 40.0362 13.5348 40.5876 12.8695 39.98C12.4832 39.6273 11.8865 39.6453 11.5222 40.0208C10.8948 40.6674 9.80175 40.1812 9.86195 39.2822C9.8969 38.7602 9.51076 38.3049 8.9901 38.2542C8.09331 38.1669 7.79197 37.0091 8.53238 36.4957C8.96226 36.1976 9.07744 35.6118 8.79246 35.1731C8.3016 34.4176 9.01889 33.4601 9.88197 33.7188C10.3831 33.8691 10.9128 33.5939 11.0781 33.0976ZM12.1471 38.3834C11.1116 38.4147 10.2468 37.6007 10.2155 36.5652C10.1842 35.5297 10.9982 34.6649 12.0337 34.6336C13.0692 34.6023 13.934 35.4163 13.9653 36.4518C13.9966 37.4873 13.1826 38.3521 12.1471 38.3834Z" fill="#1E6DEB"></path><path fill-rule="evenodd" clip-rule="evenodd" d="M8.22117 22.8295C8.48943 22.024 9.6162 21.9899 9.93265 22.7778C10.1164 23.2352 10.6303 23.4638 11.0931 23.294C11.8901 23.0015 12.6193 23.8612 12.2006 24.5998C11.9576 25.0286 12.0992 25.573 12.5205 25.8289C13.2462 26.2697 13.0287 27.3758 12.1901 27.509C11.7033 27.5863 11.3661 28.0365 11.4287 28.5255C11.5365 29.3676 10.5361 29.8872 9.90912 29.3147C9.54513 28.9823 8.98288 28.9993 8.63963 29.3531C8.04843 29.9624 7.01847 29.5042 7.07519 28.6571C7.10813 28.1653 6.74428 27.7363 6.25367 27.6885C5.40865 27.6062 5.1247 26.5153 5.82237 26.0315C6.22743 25.7506 6.33597 25.1986 6.06743 24.7853C5.60491 24.0733 6.2808 23.1711 7.09406 23.4149C7.56623 23.5565 8.06542 23.2972 8.22117 22.8295ZM9.22814 27.8102C8.25243 27.8397 7.43754 27.0726 7.40804 26.0969C7.37853 25.1212 8.14558 24.3063 9.12129 24.2768C10.097 24.2473 10.9119 25.0144 10.9414 25.9901C10.9709 26.9658 10.2038 27.7807 9.22814 27.8102Z" fill="#1E6DEB"></path></svg>