<svg xmlns="http://www.w3.org/2000/svg" width="280" height="81" viewBox="0 0 280 81" fill="none"><g clip-path="url(#clip0_1300_6384)"><path d="M27.9137 22.7715C28.6666 22.9328 29.4195 23.121 30.1724 23.2824C34.4209 24.0622 36.7603 26.4015 37.0292 30.1391C37.3518 34.549 35.2276 37.9639 31.248 39.2815C30.6295 39.4966 29.9573 39.631 29.0968 39.8461C30.6564 41.6477 32.1084 43.3417 33.5873 45.0358C35.2814 46.9718 37.0292 48.9078 38.6963 50.8707C39.8794 52.269 41.439 52.7799 43.1868 53.0219C43.1868 53.6941 43.1868 54.2857 43.1868 55.0386C40.5248 55.0386 37.8896 55.0923 35.2814 54.9848C34.8511 54.9579 34.3671 54.3663 34.0176 53.9361C30.6295 49.8489 27.2953 45.7349 23.961 41.6208C23.2619 40.7873 22.509 40.1688 21.4872 40.4108C21.4872 43.9064 21.4603 47.3482 21.5141 50.8169C21.541 52.1614 22.4821 52.753 23.719 52.8874C24.3375 52.9681 24.9559 52.8874 25.6819 52.8874C25.6819 53.5865 25.6819 54.205 25.6819 55.0654C20.815 55.0654 15.9211 55.0654 11.0273 55.0654C11.0273 54.3663 11.0273 53.6403 11.0273 52.9412C15.1144 52.9412 15.5985 52.511 15.6253 48.4776C15.6522 42.1317 15.6522 35.7859 15.6253 29.44C15.5716 25.4604 15.222 25.1377 11.2693 24.8957C11.2693 24.2773 11.2693 23.6588 11.2693 23.0673C11.9953 23.0404 12.7213 23.0135 13.4204 22.9597C15.0338 22.9597 16.6471 22.9597 18.2605 22.9866C20.331 22.9059 22.3745 22.8522 24.4181 22.7715C25.6012 22.7715 26.7575 22.7715 27.9137 22.7715ZM21.2183 38.1521C22.9661 38.0177 24.4988 37.9101 26.0584 37.8026C29.6884 37.5606 30.8178 35.3825 30.9253 32.3172C30.9522 31.7794 30.9253 31.2416 30.8984 30.7307C30.6295 27.7191 28.8817 25.81 25.8701 25.3797C24.687 25.2184 23.477 25.2722 22.267 25.2184C21.5141 25.1646 21.2183 25.5142 21.2183 26.2402C21.2183 30.1391 21.2183 34.0381 21.2183 38.1521Z" fill="#00215C"></path><path d="M96.6425 23.0942C96.6425 25.7831 96.6425 28.499 96.6425 31.2417C95.8896 31.2417 95.298 31.2417 94.6527 31.2417C94.5451 30.5963 94.4913 29.9779 94.3569 29.3863C93.846 26.8856 92.7973 25.8369 90.2697 25.5411C88.7639 25.3798 87.2312 25.4336 85.7254 25.4605C84.7843 25.4874 84.3272 25.9445 84.3272 26.9932C84.3541 34.4146 84.3272 41.836 84.3541 49.2574C84.3541 51.5968 85.4297 52.5917 88.0917 52.8875C88.5757 52.9413 89.0597 52.9682 89.5975 53.0219C89.5975 53.6942 89.5975 54.2857 89.5975 54.9311C84.2465 54.9311 78.9494 54.9311 73.5446 54.9311C73.5446 54.3395 73.5446 53.7479 73.5446 53.0757C74.3782 52.9413 75.2118 52.8606 76.0184 52.6724C77.8738 52.269 78.6267 51.4355 78.6805 49.5263C78.7611 46.9181 78.7342 44.2829 78.7342 41.6478C78.7342 36.8346 78.7342 32.0483 78.7342 27.2352C78.7342 25.6756 78.5191 25.4336 76.9864 25.4067C75.642 25.3798 74.2975 25.3529 72.9531 25.4336C70.2104 25.5949 69.1079 26.5898 68.6508 29.2519C68.5432 29.8703 68.5163 30.4888 68.4357 31.1879C67.8172 31.1879 67.1719 31.1879 66.3921 31.1879C66.3921 28.4452 66.3921 25.7563 66.3921 23.0404C70.4524 23.0136 74.5126 23.0136 78.5729 22.9598C78.9762 22.9598 79.3796 22.7984 79.7829 22.7178C80.9392 22.7178 82.1223 22.7178 83.2785 22.7178C83.6819 22.7984 84.0852 22.9598 84.4885 22.9598C88.5219 23.0673 92.5822 23.0673 96.6425 23.0942Z" fill="#00215C"></path><path d="M61.7673 22.7715C61.9018 23.4437 62.0362 24.0891 62.1976 24.842C61.3371 24.9227 60.6918 24.9495 60.0464 25.0571C58.4331 25.326 57.8684 25.8907 57.7608 27.5309C57.6264 29.8703 57.5188 32.2365 57.5188 34.5759C57.5188 39.5504 57.5457 44.5249 57.7071 49.4994C57.7877 52.3497 58.46 52.8606 61.3102 52.9143C61.5253 52.9143 61.7404 52.9412 62.0093 52.9412C62.0093 53.6135 62.0093 54.205 62.0093 54.8773C57.1962 54.8773 52.383 54.8773 47.4891 54.8773C47.4891 54.2857 47.4891 53.6672 47.4891 53.0219C47.5429 52.995 47.5967 52.9412 47.6236 52.9412C51.5494 52.9143 51.8452 51.9463 51.8721 48.5852C51.899 41.8898 51.899 35.1674 51.8452 28.472C51.8183 25.6487 51.0654 25.0302 48.1883 24.9227C47.9732 24.9227 47.758 24.8689 47.3816 24.842C47.3816 24.2504 47.3816 23.6858 47.3816 23.1211C48 23.0942 48.5916 23.0673 49.2101 23.0135C50.447 22.9329 51.6839 22.8253 52.8939 22.7446C55.8517 22.7715 58.8095 22.7715 61.7673 22.7715Z" fill="#00215C"></path><path d="M121.945 22.7715C121.999 22.8522 122.026 22.9597 122.08 22.9597C124.123 23.3362 125.36 24.5462 125.629 26.5898C125.871 28.5796 124.984 30.0316 123.048 30.8651C124.123 32.6667 125.199 34.4145 126.248 36.1623C126.086 36.2699 126.06 36.3237 126.033 36.3237C124.043 36.6732 122.483 36.243 121.73 34.1187C121.542 33.581 121.166 33.1238 120.843 32.6398C119.902 31.0803 119.902 31.0803 117.858 31.2954C117.858 32.9087 117.858 34.549 117.858 36.2699C116.863 36.2699 116.003 36.2699 114.927 36.2699C114.927 31.8063 114.927 27.3158 114.927 22.7984C117.294 22.7715 119.606 22.7715 121.945 22.7715ZM117.912 25.326C117.912 26.5898 117.912 27.6653 117.912 28.8484C119.015 28.8484 120.09 28.9291 121.139 28.8216C122.134 28.7409 122.752 28.1493 122.752 27.0469C122.752 25.9444 122.107 25.4066 121.085 25.326C120.063 25.2722 119.041 25.326 117.912 25.326Z" fill="#00215C"></path><path d="M150.152 22.7715C150.152 24.3311 150.152 25.8638 150.152 27.4234C150.851 27.1007 151.497 26.6436 152.223 26.4822C154.32 26.0251 156.121 27.262 156.256 29.44C156.417 31.6719 156.283 33.9574 156.283 36.2699C155.422 36.2699 154.643 36.2699 153.675 36.2699C153.675 34.5221 153.675 32.7474 153.675 30.9996C153.675 29.4132 153.164 28.714 152.115 28.6603C150.986 28.6334 150.152 29.5476 150.125 30.9996C150.098 32.7205 150.125 34.4414 150.125 36.243C149.238 36.243 148.458 36.243 147.49 36.243C147.49 31.7525 147.49 27.262 147.49 22.7446C148.351 22.7715 149.238 22.7715 150.152 22.7715Z" fill="#00215C"></path><path d="M206.001 22.7715C206.082 23.0942 206.27 23.4168 206.27 23.7664C206.297 27.9073 206.27 32.0214 206.27 36.2699C205.356 36.2699 204.495 36.2699 203.42 36.2699C203.42 35.7859 203.42 35.275 203.42 34.7641C203.393 30.7845 203.339 26.778 203.312 22.7984C204.226 22.7715 205.114 22.7715 206.001 22.7715Z" fill="#00215C"></path><path d="M106.08 22.7715C106.08 33.5003 106.08 44.256 106.08 54.9848C105.946 54.9848 105.785 55.0117 105.65 55.0117C105.596 54.689 105.516 54.3932 105.516 54.0706C105.516 43.9065 105.516 33.7154 105.516 23.5513C105.516 23.2824 105.543 23.0135 105.57 22.7446C105.731 22.7715 105.919 22.7715 106.08 22.7715Z" fill="#00215C"></path><path d="M236.358 22.7715C236.358 23.5513 236.358 24.3311 236.358 25.1646C235.417 25.1646 234.638 25.1646 233.67 25.1646C233.67 24.3848 233.67 23.5782 233.67 22.7715C234.584 22.7715 235.471 22.7715 236.358 22.7715Z" fill="#00215C"></path><path d="M96.6423 23.0942C92.582 23.0673 88.5218 23.0673 84.4615 23.0135C84.0581 23.0135 83.6548 22.8522 83.2515 22.7715C87.7151 22.7715 92.2056 22.7715 96.6692 22.7715C96.6692 22.879 96.6692 22.9866 96.6423 23.0942Z" fill="#00215C"></path><path d="M79.7557 22.7715C79.3523 22.8522 78.949 23.0135 78.5457 23.0135C74.4854 23.0404 70.4251 23.0673 66.3648 23.0942C66.3648 22.9866 66.338 22.879 66.338 22.7715C70.8016 22.7715 75.2921 22.7715 79.7557 22.7715Z" fill="#00215C"></path><path d="M24.4176 22.7715C22.3741 22.8522 20.3305 22.9059 18.26 22.9866C18.26 22.9059 18.26 22.8522 18.26 22.7715C20.3036 22.7715 22.3741 22.7715 24.4176 22.7715Z" fill="#00215C"></path><path d="M52.8938 22.7715C51.6569 22.8522 50.42 22.9597 49.21 23.0404C48.5916 23.0942 48 23.121 47.3815 23.1479C47.3547 23.0135 47.3009 22.9059 47.274 22.7715C49.1562 22.7715 51.0116 22.7715 52.8938 22.7715Z" fill="#00215C"></path><path d="M18.26 22.7715C18.26 22.8522 18.26 22.9059 18.2869 22.9866C16.6735 22.9866 15.0602 22.9866 13.4468 22.9597C13.4199 22.9059 13.4199 22.8253 13.4199 22.7715C15.0333 22.7715 16.6466 22.7715 18.26 22.7715Z" fill="#00215C"></path><path d="M13.4199 22.7715C13.4199 22.8253 13.4199 22.9059 13.4199 22.9597C12.7208 23.0135 11.9948 23.0404 11.2688 23.0673C11.2688 22.9597 11.2688 22.879 11.2688 22.7715C11.9948 22.7715 12.6939 22.7715 13.4199 22.7715Z" fill="#00215C"></path><path d="M11.2689 22.7715C11.2689 22.879 11.2689 22.9597 11.2689 23.0673C11.2689 23.6857 11.2689 24.3042 11.2689 24.8957C11.1882 24.8957 11.0807 24.8957 11 24.8957C11.0807 24.1966 11.1882 23.4706 11.2689 22.7715Z" fill="#00215C"></path><path d="M217.537 53.9092C214.66 54.9041 212.724 54.5815 211.379 52.8068C210.088 51.0859 210.196 48.0474 211.594 46.4609C212.966 44.9013 215.036 44.7131 217.133 45.5736C218.021 45.4929 218.881 45.4122 219.903 45.3316C219.903 48.6658 219.984 51.8388 219.876 55.0386C219.822 56.6519 218.774 57.8888 217.16 58.0771C215.628 58.2384 213.987 58.0502 212.482 57.7275C211.46 57.5124 210.841 56.5713 210.814 55.3612C211.917 55.3881 212.939 55.0386 213.961 55.9528C214.445 56.383 215.762 56.3561 216.407 56.0066C216.999 55.6839 217.187 54.6352 217.537 53.9092ZM217.429 49.7414C217.402 48.2356 216.542 47.2676 215.224 47.2676C213.88 47.2676 212.993 48.2894 213.046 49.8758C213.073 51.3547 213.987 52.3765 215.251 52.3765C216.596 52.3765 217.456 51.3279 217.429 49.7414Z" fill="#00215C"></path><path d="M164.404 41.6211C165.264 41.6211 166.017 41.6211 166.877 41.6211C166.877 43.1538 166.877 44.6596 166.877 46.1116C167.792 45.762 168.545 45.278 169.378 45.1705C171.449 44.9016 172.981 46.1923 173.089 48.2627C173.196 50.0912 173.116 51.8928 173.116 53.7212C173.116 54.1246 173.116 54.501 173.116 54.985C172.255 54.985 171.475 54.985 170.507 54.985C170.507 53.2104 170.507 51.4088 170.507 49.6072C170.507 48.1821 169.97 47.4292 168.948 47.3754C167.845 47.3216 167.012 48.2358 166.958 49.6072C166.904 51.3819 166.958 53.1566 166.958 54.985C166.071 54.985 165.291 54.985 164.43 54.985C164.404 50.5752 164.404 46.1654 164.404 41.6211Z" fill="#00215C"></path><path d="M192.234 32.2633C190.002 32.2633 187.743 32.2633 185.485 32.2633C185.404 32.3978 185.296 32.5322 185.216 32.6667C185.78 33.2582 186.264 34.038 186.937 34.3876C187.743 34.7909 188.55 34.4951 189.383 33.9036C190.056 33.4195 191.104 33.4464 192.099 33.2044C191.615 35.7589 189.41 37.0227 186.775 36.5656C184.059 36.0816 182.339 33.6616 182.742 30.892C183.172 27.9341 185.269 26.1326 188.012 26.4284C190.809 26.7241 192.503 29.0097 192.234 32.2633ZM185.431 30.3811C186.856 30.3811 188.2 30.3811 189.572 30.3811C189.357 29.1173 188.711 28.445 187.528 28.445C186.318 28.4182 185.646 29.1442 185.431 30.3811Z" fill="#00215C"></path><path d="M262.683 32.183C263.436 34.7374 264.915 35.1139 266.824 33.7425C267.443 33.2854 268.491 33.4467 269.379 33.3123C269.056 35.6248 267.066 36.8886 264.431 36.6197C261.715 36.3777 259.86 34.0921 260.048 31.2149C260.209 28.3109 262.334 26.2673 265.049 26.4018C267.927 26.5362 269.621 28.6067 269.648 32.2098C267.389 32.183 265.103 32.183 262.683 32.183ZM266.824 30.4083C266.609 29.01 265.937 28.3378 264.807 28.4185C263.597 28.4991 262.871 29.1445 262.791 30.4083C264.189 30.4083 265.507 30.4083 266.824 30.4083Z" fill="#00215C"></path><path d="M166.715 33.2045C166.473 35.8128 163.811 36.9153 161.445 36.5657C158.568 36.1355 156.955 33.6885 157.385 30.5425C157.734 27.9074 160.047 26.1058 162.682 26.4285C165.452 26.7511 167.038 28.9292 166.796 32.2365C164.564 32.2365 162.306 32.2365 160.074 32.2365C159.993 32.371 159.885 32.5323 159.805 32.6668C160.369 33.2583 160.853 34.1726 161.526 34.3339C162.225 34.5221 163.139 34.0112 163.946 33.823C164.86 33.6348 165.747 33.4197 166.715 33.2045ZM160.047 30.435C161.499 30.435 162.763 30.435 164.161 30.435C164.053 29.1712 163.435 28.4989 162.252 28.4452C160.988 28.3914 160.262 29.0636 160.047 30.435Z" fill="#00215C"></path><path d="M153.137 51.032C150.825 51.032 148.62 51.032 146.361 51.032C146.361 52.1614 146.872 52.9681 147.813 53.1025C148.593 53.2101 149.426 52.7529 150.233 52.5647C151.12 52.3496 152.035 52.1614 153.029 51.9194C152.492 54.5007 150.314 55.7376 147.598 55.2805C144.828 54.7965 143.269 52.4034 143.672 49.2573C144.022 46.5953 146.2 44.9013 148.996 45.1433C151.658 45.3853 153.271 47.5902 153.137 51.032ZM146.334 49.1229C147.786 49.1229 149.05 49.1229 150.448 49.1229C150.287 47.9398 149.722 47.2675 148.566 47.2138C147.329 47.1062 146.576 47.7247 146.334 49.1229Z" fill="#00215C"></path><path d="M204.71 55.3343C201.753 55.3343 199.575 53.1025 199.628 50.1716C199.682 47.2676 201.833 45.1433 204.737 45.1433C207.749 45.1433 209.846 47.2407 209.846 50.2523C209.819 53.2639 207.722 55.3343 204.71 55.3343ZM207.265 50.3329C207.104 49.6338 207.023 49.0154 206.781 48.4507C206.216 47.1869 204.791 46.7567 203.662 47.3751C201.941 48.3431 201.86 51.8387 203.5 52.9143C204.549 53.6134 206.028 53.3445 206.62 52.2421C206.942 51.6774 207.05 50.9514 207.265 50.3329Z" fill="#00215C"></path><path d="M131.33 36.6196C128.318 36.6196 126.221 34.5222 126.221 31.5106C126.221 28.5259 128.372 26.3479 131.33 26.3748C134.261 26.4016 136.358 28.5259 136.385 31.4568C136.439 34.4146 134.314 36.5927 131.33 36.6196ZM128.802 31.5375C128.964 32.1828 128.964 32.9357 129.34 33.3391C129.878 33.8769 130.684 34.4415 131.384 34.4684C132.029 34.4953 132.916 33.9306 133.266 33.3391C134.019 32.1559 134.019 30.7308 133.212 29.5746C132.836 29.0099 131.948 28.4183 131.33 28.4452C130.631 28.4721 129.824 29.0906 129.34 29.6552C128.937 30.1392 128.964 30.919 128.802 31.5375Z" fill="#00215C"></path><path d="M119.283 55.3343C116.379 55.3343 114.201 53.1563 114.201 50.2523C114.201 47.2676 116.379 45.1164 119.364 45.1433C122.348 45.1702 124.392 47.2407 124.392 50.2254C124.419 53.2639 122.348 55.3343 119.283 55.3343ZM121.864 50.3329C121.649 49.58 121.568 48.9078 121.3 48.3162C120.816 47.3482 119.928 46.9449 118.853 47.1869C117.696 47.4289 116.997 48.4776 116.89 50.0372C116.809 51.4085 117.454 52.8067 118.449 53.1563C119.444 53.5059 120.466 53.3983 121.058 52.4841C121.488 51.8387 121.622 51.0321 121.864 50.3329Z" fill="#00215C"></path><path d="M189.625 55.3343C186.64 55.3343 184.489 53.1832 184.516 50.1985C184.543 47.2138 186.667 45.1164 189.679 45.1433C192.61 45.1702 194.707 47.2676 194.734 50.1985C194.761 53.1832 192.61 55.3343 189.625 55.3343ZM187.017 50.1716C187.071 50.1985 187.151 50.2254 187.205 50.2523C187.205 50.4674 187.205 50.6825 187.232 50.9245C187.447 52.5379 188.469 53.479 189.84 53.3445C191.319 53.1832 192.207 51.7043 192.018 49.7952C191.83 48.1011 190.781 46.9718 189.437 47.1869C188.899 47.2676 188.254 47.5365 187.958 47.9398C187.528 48.5583 187.34 49.3918 187.017 50.1716Z" fill="#00215C"></path><path d="M210.733 36.2968C209.792 36.2968 209.039 36.2968 208.206 36.2968C208.206 33.097 208.206 29.924 208.206 26.6704C209.147 26.8318 210.33 25.9982 210.733 27.2082C211.809 26.9393 212.857 26.4553 213.879 26.4553C215.493 26.4553 216.703 27.5578 216.783 29.198C216.918 31.5374 216.81 33.8767 216.81 36.2968C215.977 36.2968 215.224 36.2968 214.256 36.2968C214.256 34.8716 214.256 33.4465 214.256 31.9945C214.256 31.5105 214.256 31.0265 214.256 30.5156C214.256 29.4669 213.772 28.7678 212.723 28.6871C211.647 28.6333 210.895 29.2518 210.787 30.3274C210.653 31.6181 210.706 32.9087 210.679 34.1725C210.706 34.8448 210.733 35.517 210.733 36.2968Z" fill="#00215C"></path><path d="M244.103 26.6704C245.044 26.6704 245.797 26.6704 246.711 26.6704C246.711 28.5795 246.738 30.408 246.711 32.2634C246.711 33.3389 246.846 34.2801 248.19 34.3338C249.32 34.3876 250.072 33.5809 250.099 32.2365C250.126 30.408 250.099 28.6064 250.099 26.6973C251.014 26.6973 251.82 26.6973 252.708 26.6973C252.708 29.8971 252.708 33.0163 252.708 36.2699C251.793 36.1623 250.745 36.8345 250.126 35.6245C249.588 35.8934 249.024 36.2699 248.405 36.4581C246.039 37.1303 244.157 35.7052 244.13 33.2852C244.076 31.134 244.103 28.956 244.103 26.6704Z" fill="#00215C"></path><path d="M177.283 55.0385C176.315 55.0385 175.563 55.0385 174.729 55.0385C174.729 51.8924 174.729 48.7464 174.729 45.4659C175.616 45.7079 176.799 44.6324 177.364 46.165C178.009 45.8424 178.655 45.3853 179.354 45.2239C181.613 44.7399 183.307 46.0844 183.495 48.3968C183.522 48.7464 183.522 49.096 183.522 49.4724C183.522 51.3009 183.522 53.1025 183.522 55.0116C182.634 55.0116 181.801 55.0116 180.833 55.0116C180.833 53.21 180.833 51.4084 180.833 49.58C180.833 48.128 180.322 47.4288 179.273 47.4019C178.251 47.3751 177.364 48.2893 177.31 49.5262C177.23 51.3278 177.283 53.1562 177.283 55.0385Z" fill="#00215C"></path><path d="M145.124 41.648C145.124 42.4547 145.124 43.1538 145.124 43.9873C143.779 43.9873 142.515 43.9873 141.063 43.9873C141.063 45.9234 141.063 47.7249 141.063 49.5265C141.063 51.3281 141.063 53.1566 141.063 55.0119C140.122 55.0119 139.289 55.0119 138.321 55.0119C138.321 53.2104 138.321 51.4088 138.321 49.5803C138.321 47.7787 138.321 45.9503 138.321 44.0142C136.949 44.0142 135.686 44.0142 134.341 44.0142C134.341 43.1538 134.341 42.4278 134.341 41.6211C137.89 41.648 141.44 41.648 145.124 41.648Z" fill="#00215C"></path><path d="M220.763 45.5468C220.924 45.4662 221.005 45.4124 221.085 45.4124C223.479 45.251 223.479 45.251 224.205 47.5097C224.581 48.6929 224.957 49.876 225.361 51.0322C225.388 51.1129 225.441 51.1667 225.549 51.328C226.033 49.7953 226.625 48.3433 226.92 46.8375C227.189 45.5199 227.861 45.1704 229.045 45.3586C229.313 45.3855 229.582 45.3586 229.959 45.3586C229.905 45.6813 229.932 45.9233 229.851 46.1653C228.856 49.0962 227.835 52.0271 226.84 54.958C225.791 57.9427 225.092 58.3999 221.811 58.1041C221.811 57.4587 221.811 56.8403 221.811 56.195C224.178 55.9261 224.473 55.4689 223.667 53.2102C222.726 50.6558 221.731 48.1013 220.763 45.5468Z" fill="#00215C"></path><path d="M175.831 29.6282C174.782 29.6282 173.76 30.0047 172.981 28.714C172.739 28.3107 171.287 28.3375 170.561 28.6064C169.808 28.8753 169.915 29.6551 170.722 29.9509C171.555 30.2467 172.47 30.3273 173.33 30.5425C175.32 30.9996 176.207 31.9407 176.154 33.5272C176.127 35.1136 175.078 36.2161 173.142 36.5388C170.319 36.9959 167.603 35.8665 167.522 33.2583C168.571 33.3121 169.7 32.6667 170.426 34.1456C170.803 34.8985 172.55 34.9792 173.249 34.4683C173.949 33.9843 173.895 33.2583 173.061 32.9356C172.281 32.6398 171.421 32.5323 170.587 32.344C168.598 31.8869 167.656 30.9189 167.71 29.3862C167.791 27.746 168.92 26.6973 170.937 26.4553C174.002 26.052 175.992 27.6922 175.831 29.6282Z" fill="#00215C"></path><path d="M217.859 33.2046C219.015 33.2584 220.198 32.7744 220.897 34.2264C221.059 34.576 221.946 34.7911 222.457 34.7104C223.021 34.6297 223.532 34.1457 224.043 33.8231C223.586 33.4466 223.183 32.9088 222.645 32.6937C221.731 32.3442 220.709 32.2904 219.822 31.9408C217.966 31.2417 217.509 29.0368 218.8 27.5579C220.279 25.8907 224.231 25.9714 225.549 27.773C225.926 28.257 226.06 28.9292 226.356 29.6283C225.092 29.6283 224.124 29.951 223.344 28.7679C223.075 28.3377 221.704 28.3914 220.924 28.5797C220.225 28.741 220.306 29.6821 221.032 29.951C221.865 30.2468 222.779 30.3544 223.64 30.5426C225.657 30.9997 226.49 31.887 226.463 33.5004C226.436 35.1138 225.442 36.2162 223.505 36.5389C220.709 36.9691 218.047 35.9473 217.859 33.2046Z" fill="#00215C"></path><path d="M146.334 32.7744C146.2 35.1676 144.64 36.5658 142.247 36.6196C139.343 36.6733 137.326 34.8987 137.03 32.0215C136.761 29.3326 138.402 26.9394 140.795 26.5092C143.645 25.9983 145.608 27.1546 146.307 29.9242C145.178 29.8973 144.102 30.4619 143.188 29.0906C142.408 27.9343 140.418 28.4721 140.015 29.9242C139.746 30.8922 139.746 32.0484 140.015 33.0164C140.203 33.608 141.091 34.3071 141.709 34.3878C142.328 34.4684 143.242 33.9306 143.645 33.3929C144.479 32.2904 145.474 33.2315 146.334 32.7744Z" fill="#00215C"></path><path d="M163.22 51.7044C162.844 54.2588 161.069 55.5495 158.246 55.3344C155.557 55.1193 153.836 52.9413 153.916 49.9028C153.997 47.2139 155.906 45.2241 158.514 45.1434C161.123 45.0627 162.844 46.3803 163.032 48.6659C161.929 48.639 160.854 49.0961 159.993 47.7516C159.375 46.7567 157.358 47.1332 157.009 48.3701C156.686 49.5263 156.659 50.9246 156.982 52.0808C157.358 53.3984 159.294 53.6135 160.208 52.6724C161.365 51.4624 161.365 51.4624 163.22 51.7044Z" fill="#00215C"></path><path d="M130.442 47.1333C129.797 47.1871 129.313 47.2409 128.721 47.2947C128.721 49.9029 128.721 52.4574 128.721 55.0388C127.807 55.0388 127 55.0388 126.113 55.0388C126.113 52.4843 126.113 49.9836 126.113 47.3753C125.629 47.2678 125.226 47.1602 124.768 47.0796C124.768 46.5418 124.768 46.0847 124.768 45.52C125.172 45.4393 125.548 45.3855 126.005 45.3049C125.898 42.3202 127.565 41.3522 130.388 41.6479C130.388 42.3202 130.388 42.9117 130.388 43.584C129.367 43.6646 128.425 43.8797 128.775 45.3587C129.313 45.4124 129.824 45.4393 130.388 45.4931C130.442 46.0309 130.442 46.5418 130.442 47.1333Z" fill="#00215C"></path><path d="M226.867 26.7243C227.324 26.6436 227.674 26.5898 228.131 26.536C228.131 25.5949 228.131 24.6807 228.131 23.6858C229.045 23.6858 229.798 23.6858 230.685 23.6858C230.685 24.6269 230.685 25.5411 230.685 26.536C231.25 26.5898 231.707 26.6436 232.299 26.6974C232.299 27.2352 232.299 27.773 232.299 28.4183C231.788 28.4183 231.331 28.4183 230.739 28.4183C230.739 30.1123 230.632 31.7794 230.793 33.3928C230.847 33.9037 231.653 34.307 232.11 34.7642C232.218 34.6835 232.326 34.6028 232.406 34.5222C232.406 35.0868 232.406 35.6246 232.406 36.3775C231.707 36.3775 231.062 36.4313 230.416 36.3775C228.884 36.2431 228.185 35.4902 228.158 33.9575C228.131 32.1828 228.158 30.4081 228.158 28.5527C227.728 28.4721 227.324 28.3914 226.867 28.3107C226.867 27.773 226.867 27.2889 226.867 26.7243Z" fill="#00215C"></path><path d="M238.644 23.6589C239.639 23.6589 240.365 23.6589 241.172 23.6589C241.172 24.6269 241.172 25.5412 241.172 26.5361C241.737 26.5899 242.194 26.6436 242.785 26.6974C242.785 27.2083 242.785 27.773 242.785 28.3646C242.301 28.3914 241.844 28.4183 241.226 28.4452C241.226 30.0855 241.118 31.7526 241.279 33.3659C241.333 33.8768 242.113 34.3071 242.57 34.7642C242.678 34.6835 242.785 34.6029 242.893 34.5222C242.893 35.0869 242.893 35.6246 242.893 36.4044C242.274 36.4044 241.656 36.4313 241.064 36.4044C239.397 36.2969 238.671 35.544 238.644 33.85C238.617 32.0753 238.644 30.3275 238.644 28.4721C238.16 28.4183 237.784 28.3914 237.354 28.3377C237.354 27.7999 237.354 27.3159 237.354 26.7781C237.73 26.6974 238.106 26.6168 238.644 26.4823C238.644 25.5681 238.644 24.6269 238.644 23.6589Z" fill="#00215C"></path><path d="M182.043 34.5491C182.043 35.1137 182.043 35.6784 182.043 36.3507C181.37 36.3507 180.752 36.3775 180.133 36.3507C178.52 36.2162 177.794 35.4633 177.794 33.8768C177.767 32.1022 177.794 30.3275 177.794 28.4721C177.364 28.4183 176.934 28.3646 176.503 28.3108C176.503 27.773 176.503 27.3159 176.503 26.7512C176.907 26.6705 177.31 26.6168 177.821 26.5092C177.821 25.5681 177.821 24.6538 177.821 23.6589C178.654 23.6589 179.407 23.6589 180.322 23.6589C180.322 24.5732 180.322 25.5143 180.322 26.5092C180.967 26.563 181.451 26.6168 181.989 26.6705C181.989 27.2083 181.989 27.7192 181.989 28.3108C181.505 28.3377 181.021 28.3646 180.402 28.4183C180.402 30.1124 180.295 31.7795 180.456 33.4197C180.51 33.8768 181.29 34.2533 181.747 34.6835C181.854 34.6297 181.962 34.6029 182.043 34.5491Z" fill="#00215C"></path><path d="M259.403 34.9523C259.403 35.1137 259.403 35.6783 259.403 36.3775C258.731 36.3775 258.112 36.4044 257.494 36.3775C255.881 36.2699 255.155 35.4901 255.155 33.9305C255.155 32.1559 255.155 30.3812 255.155 28.5258C254.724 28.472 254.294 28.4183 253.864 28.3645C253.864 27.8536 253.864 27.3696 253.864 26.8049C254.267 26.7242 254.671 26.6705 255.181 26.5629C255.181 25.6218 255.181 24.7075 255.181 23.7126C256.015 23.7126 256.768 23.7126 257.682 23.7126C257.682 24.6269 257.682 25.568 257.682 26.5629C258.328 26.6167 258.812 26.6705 259.349 26.7242C259.349 27.262 259.349 27.7729 259.349 28.3645C258.838 28.3914 258.381 28.4183 257.736 28.4451C257.736 30.1392 257.628 31.8332 257.79 33.4734C257.844 33.9037 258.65 34.2801 259.403 34.9523Z" fill="#00215C"></path><path d="M198.418 55.0117C197.558 55.0117 196.778 55.0117 195.918 55.0117C195.918 50.548 195.918 46.1382 195.918 41.6477C196.751 41.6477 197.531 41.6477 198.418 41.6477C198.418 46.0844 198.418 50.4943 198.418 55.0117Z" fill="#00215C"></path><path d="M193.497 36.2699C193.497 33.0701 193.497 29.9241 193.497 26.7243C194.331 26.7243 195.111 26.7243 195.944 26.7243C195.998 27.0469 196.052 27.3696 196.079 27.4772C196.966 27.1007 197.853 26.6974 198.956 26.2134C198.956 27.3158 198.956 28.0418 198.956 28.7947C196.643 29.1712 196.079 29.8165 196.079 32.2097C196.079 33.5272 196.079 34.8717 196.079 36.2699C195.218 36.2699 194.438 36.2699 193.497 36.2699Z" fill="#00215C"></path><path d="M236.251 26.6975C236.251 29.9511 236.251 33.0703 236.251 36.2701C235.391 36.2701 234.611 36.2701 233.751 36.2701C233.751 33.0971 233.751 29.9242 233.751 26.6975C234.557 26.6975 235.364 26.6975 236.251 26.6975Z" fill="#00215C"></path></g><defs><clipPath id="clip0_1300_6384"><rect width="258.647" height="35.44" fill="white" transform="translate(11 22.7715)"></rect></clipPath></defs></svg>