<svg xmlns="http://www.w3.org/2000/svg" width="80" height="81" viewBox="0 0 80 81" fill="none"><path d="M69.4593 38.3872C69.4593 53.4527 56.7986 65.3592 39.7131 65.3592C22.6277 65.3592 9.37207 48.5487 9.37207 33.4832C9.37207 18.4176 25.0794 9.18181 39.7131 9.57609C55.3363 9.99703 69.4593 23.3216 69.4593 38.3872Z" fill="#D9E7FE"></path><rect x="59.6484" y="37.7681" width="14.1021" height="27.5911" fill="#FFCC60"></rect><rect x="6.30566" y="37.7681" width="14.1021" height="27.5911" fill="#FFCC60"></rect><path d="M59.6488 28.5708L20.4082 65.3589H59.6488V28.5708Z" fill="#FFCC60"></path><rect x="20.4082" y="21.2134" width="39.2406" height="44.1457" fill="#FEEDC8"></rect><path d="M15.5471 56.5395C17.2102 55.1691 20.4521 55.6198 20.4521 55.6198V65.43L4.51064 65.43C4.51064 65.43 3.89751 62.3643 7.26975 59.9117C9.72229 58.1281 13.7077 59.2986 13.7077 59.2986C13.7077 59.2986 14.2601 57.5999 15.5471 56.5395Z" fill="#00368A"></path><path d="M65.1668 56.5395C63.5036 55.1691 60.2617 55.6198 60.2617 55.6198V65.43L76.2032 65.43C76.2032 65.43 76.8164 62.3643 73.4441 59.9117C70.9916 58.1281 67.0062 59.2986 67.0062 59.2986C67.0062 59.2986 66.4538 57.5999 65.1668 56.5395Z" fill="#00368A"></path><path d="M51.6779 9.23928C51.6779 8.7803 51.2154 8.46468 50.7754 8.59529C45.9783 10.0193 45.5568 6.74925 40.492 8.15247C40.2159 8.22898 40.0284 8.48488 40.0284 8.77143V15.1162C40.0284 15.6234 40.5939 15.9661 41.0713 15.7948C42.1809 15.3966 43.9876 15.0277 45.5466 16.0021C47.4806 17.2108 50.1772 16.6741 51.231 16.3931C51.5014 16.321 51.6779 16.0731 51.6779 15.7932V9.23928Z" fill="#5093FD"></path><path d="M40.0283 7.72437V21.5199" stroke="#003DA1" stroke-width="1.97043" stroke-linecap="round"></path><path d="M50.5119 8.84895L44.9334 15.6953C47.2407 17.1374 48.4888 16.9779 51.1567 16.4185C51.4604 16.3548 51.6779 16.0864 51.6779 15.7761V9.26384C51.6779 8.64592 50.9022 8.36992 50.5119 8.84895Z" fill="#0064E1"></path><path d="M53.7822 24.8921H59.6486V65.359H27.7656L53.7822 24.8921Z" fill="#FED680"></path><path d="M18.5693 21.8702C18.5693 21.5074 18.8634 21.2134 19.2261 21.2134H60.832C61.1947 21.2134 61.4888 21.5074 61.4888 21.8702V22.3086C61.4888 23.3969 60.6066 24.2791 59.5183 24.2791H20.5398C19.4515 24.2791 18.5693 23.3969 18.5693 22.3086V21.8702Z" fill="#FB517E"></path><path d="M5.08008 37.1988C5.08008 36.8361 5.37414 36.542 5.73689 36.542H20.4084V39.6077H7.0505C5.96227 39.6077 5.08008 38.7255 5.08008 37.6372V37.1988Z" fill="#FB658D"></path><path d="M20.4082 24.2788H59.6488" stroke="#891433" stroke-width="1.31362" stroke-linecap="round"></path><path d="M59.6484 36.542H74.32C74.6827 36.542 74.9768 36.8361 74.9768 37.1988V37.6372C74.9768 38.7255 74.0946 39.6077 73.0064 39.6077H59.6484V36.542Z" fill="#FB658D"></path><path d="M73.7505 40.2647C74.1133 40.2647 74.4073 39.9707 74.4073 39.6079C74.4073 39.2452 74.1133 38.9511 73.7505 38.9511V40.2647ZM59.6484 40.2647L73.7505 40.2647V38.9511L59.6484 38.9511V40.2647Z" fill="#891433"></path><path d="M6.3061 40.2647C5.94336 40.2647 5.6493 39.9707 5.6493 39.6079C5.6493 39.2452 5.94336 38.9511 6.3061 38.9511V40.2647ZM20.4082 40.2647L6.3061 40.2647V38.9511L20.4082 38.9511V40.2647Z" fill="#891433"></path><rect x="9.37207" y="44.5122" width="3.06567" height="9.81016" rx="0.656809" fill="#E6EFFE"></rect><rect x="62.1016" y="44.5122" width="3.06568" height="9.81016" rx="0.656809" fill="#E6EFFE"></rect><rect x="14.8906" y="44.5122" width="3.06567" height="9.81016" rx="0.656809" fill="#E6EFFE"></rect><rect x="67.6201" y="44.5122" width="3.06568" height="9.81016" rx="0.656809" fill="#E6EFFE"></rect><rect x="27.7666" y="61.0674" width="24.7836" height="6.74448" rx="1.31362" fill="#FEEDC8"></rect><rect x="25.3135" y="64.7458" width="29.4305" height="4.29194" rx="1.31362" fill="#FEEDC8"></rect><circle cx="40.3347" cy="33.7824" r="5.21164" fill="white"></circle><line x1="12.1962" y1="45.4974" x2="12.1961" y2="53.3372" stroke="#0A5ADA" stroke-width="1.97043" stroke-linecap="round"></line><line x1="64.9256" y1="45.4974" x2="64.9256" y2="53.3372" stroke="#0A5ADA" stroke-width="1.97043" stroke-linecap="round"></line><line x1="17.7147" y1="45.4974" x2="17.7147" y2="53.3372" stroke="#0A5ADA" stroke-width="1.97043" stroke-linecap="round"></line><line x1="70.4442" y1="45.4974" x2="70.4442" y2="53.3372" stroke="#0A5ADA" stroke-width="1.97043" stroke-linecap="round"></line><path d="M31.4443 49.8346L40.0282 43.8999L48.6121 49.8346V60.4545H31.4443V49.8346Z" fill="#FEEDC8"></path><path d="M26.5391 64.7463H53.517" stroke="#D96432" stroke-width="1.97043" stroke-linecap="round"></path><path d="M28.9922 60.4546H50.4519" stroke="#D96432" stroke-width="1.97043" stroke-linecap="round"></path><path d="M49.5316 50.0311L40.028 43.2866L30.5244 50.0311" stroke="#D96432" stroke-width="1.97043" stroke-linecap="round" stroke-linejoin="round"></path><path d="M36.3496 54.0168C36.3496 52.1543 37.8594 50.6445 39.7219 50.6445C41.5843 50.6445 43.0941 52.1543 43.0941 54.0168V59.5861C43.0941 59.7272 42.9797 59.8416 42.8386 59.8416H36.6051C36.464 59.8416 36.3496 59.7272 36.3496 59.5861V54.0168Z" fill="#FB517E"></path><path d="M42.4807 59.8412V54.0003C42.4807 52.4854 41.2526 51.2573 39.7377 51.2573V51.2573H39.415" stroke="#891433" stroke-width="1.97043" stroke-linecap="round"></path><path d="M40.0283 31.6372V34.7029H42.4809" stroke="#0A5ADA" stroke-width="1.97043" stroke-linecap="round" stroke-linejoin="round"></path></svg>