<svg xmlns="http://www.w3.org/2000/svg" width="280" height="81" viewBox="0 0 280 81" fill="none"><g clip-path="url(#clip0_1300_6381)"><path d="M61.3482 45.7993C61.3826 45.9198 61.4343 46.0403 61.4687 46.1608C61.7786 46.9527 62.0713 47.7619 62.3812 48.5539C62.4328 48.5883 62.4673 48.6227 62.5189 48.6399C62.7944 48.726 63.087 48.8982 63.3625 48.8982C64.6882 48.9326 65.9966 48.9154 67.3222 48.9154C68.4757 48.9154 68.5274 48.967 68.5274 50.1377C68.5274 54.4074 68.5274 58.677 68.5274 62.9466C68.5274 64.0485 68.5274 64.0657 67.4255 64.0657C58.8002 64.0657 50.1749 64.0657 41.5323 64.0657C41.2569 64.0657 40.9986 64.0657 40.6887 64.0657C40.7232 63.7041 40.7748 63.4803 40.7748 63.2565C40.7232 60.3986 40.6887 57.5407 40.6199 54.6828C40.6027 54.2352 40.7748 54.063 41.2224 54.0803C42.2038 54.0975 43.1679 54.1319 44.1492 54.063C44.8895 54.0114 45.1305 54.2352 45.1305 55.0099C45.1477 56.3012 45.3199 57.5924 45.4404 58.9008C45.5093 59.0041 45.5781 59.1074 45.6298 59.1935C45.9053 59.2623 46.1979 59.4001 46.4734 59.4001C51.8276 59.4173 57.1647 59.4173 62.5189 59.4001C62.7944 59.4001 63.087 59.2451 63.3625 59.1763C63.3625 57.3858 63.3625 55.5953 63.3625 53.6499C62.2262 53.6499 61.0383 53.6326 59.8504 53.6671C59.3511 53.6843 59.1101 53.5638 58.9035 53.0645C54.2551 41.0476 49.5895 29.0479 44.9239 17.0482C44.8378 16.8244 44.769 16.5661 44.6829 16.2562C46.3012 16.2562 47.8507 16.2734 49.3829 16.239C49.6584 16.239 49.9338 16.0841 50.2093 15.998C50.261 16.0152 50.3126 16.0324 50.3643 16.0324C50.3815 16.0324 50.4159 15.998 50.4159 15.9808C50.4159 14.4141 50.4159 12.8646 50.4159 11.2979C50.4159 11.2807 50.2954 11.2807 50.2265 11.2635C50.106 11.143 49.9855 11.0397 49.8478 10.9192L49.865 10.8675C49.5895 10.7642 49.3141 10.5921 49.0386 10.5921C48.591 10.5749 48.1434 10.7126 47.6785 10.7126C43.8221 10.7298 39.9484 10.7126 36.092 10.7126C32.1323 10.7126 28.1898 10.7126 24.23 10.7126C24.0234 10.7126 23.8168 10.8331 23.6102 10.902L23.6619 10.9364C23.6619 12.6752 23.6619 14.4141 23.6619 16.2046C25.4352 16.2046 27.1912 16.2046 29.085 16.2046C28.9473 16.6178 28.8612 16.9621 28.7235 17.2892C24.1267 29.134 19.5128 40.9787 14.9505 52.8235C14.6922 53.5121 14.3479 53.7187 13.6421 53.6671C12.5574 53.5982 11.4728 53.6499 10.3193 53.6499C10.3193 55.5092 10.3193 57.3169 10.3193 59.1074C10.5776 59.2107 10.8358 59.4001 11.1113 59.4001C16.586 59.4173 22.0436 59.4173 27.5183 59.4001C27.7594 59.4001 28.0004 59.2279 28.2586 59.1418C28.2586 57.403 28.2586 55.6469 28.2586 53.8392C29.9802 53.8392 31.6158 53.8392 33.3202 53.8392C33.3202 57.2825 33.3202 60.7429 33.3202 64.2378C23.8857 64.2378 14.4684 64.2378 5.01672 64.2378C5.01672 59.0385 5.01672 53.8737 5.01672 48.6227C6.89329 48.6227 8.71821 48.6055 10.5431 48.6399C11.0941 48.6572 11.3867 48.5194 11.6105 47.9513C14.83 39.2915 18.0838 30.6318 21.3205 21.972C21.3894 21.7998 21.3377 21.576 21.3377 21.3694C20.7179 21.3178 20.1154 21.1973 19.4956 21.2145C18.7897 21.2489 18.5659 21.0423 18.5659 20.302C18.6003 15.8947 18.6003 11.4701 18.5659 7.06276C18.5659 6.21916 18.8241 6.02979 19.6333 6.02979C31.5641 6.06422 43.4778 6.047 55.4086 6.047C55.4086 11.1258 55.4086 16.2046 55.4086 21.3867C54.3928 21.3867 53.3771 21.3867 52.3613 21.3867C51.8104 21.1973 51.8276 21.5932 51.9309 21.8859C52.5335 23.5387 53.1705 25.1914 53.7903 26.8442C54.3068 28.1698 54.7888 29.5127 55.3397 30.8211C55.5291 31.2688 55.8907 31.6303 56.1661 32.0435C56.2006 32.164 56.2522 32.2845 56.2866 32.405C56.2522 33.3347 56.2694 34.23 57.1819 34.7981C57.2335 34.9186 57.268 35.0391 57.3196 35.1596C57.1991 36.1065 57.6123 36.864 58.2149 37.5527L58.1976 37.5355C58.387 38.2413 58.5247 38.9472 58.7658 39.6358C59.4544 41.5641 60.1947 43.4923 60.9178 45.4205C61.0211 45.5582 61.2105 45.6787 61.3482 45.7993Z" fill="#00215C"></path><path d="M52.9989 53.8047C52.8956 53.8047 52.7751 53.8047 52.6718 53.8047C52.3275 53.7358 51.9659 53.5981 51.6216 53.5981C50.1066 53.5809 48.6088 53.5809 47.1454 53.5809C47.1454 52.8234 47.3176 52.1347 47.111 51.5666C46.1985 48.9841 45.2172 46.4361 44.167 43.9054C43.9948 43.4922 43.4267 42.9412 43.0479 42.9412C38.916 42.8724 34.8014 42.8896 30.6695 42.924C30.4457 42.924 30.2391 43.2684 30.0152 43.4577H29.9636L30.0152 43.4749C29.8775 43.6127 29.6881 43.716 29.6193 43.8881C29.0684 45.2826 28.4486 46.6772 28.0009 48.1233C27.45 49.931 26.0211 51.5149 26.6581 53.5809C24.1101 53.5809 21.6826 53.5809 19.0313 53.5809C20.7529 52.3241 21.7859 50.7746 22.4745 49.0874C23.7485 46.0057 24.8332 42.8379 26.0211 39.7218C27.7083 35.2972 29.3955 30.8899 31.0999 26.4653C32.8387 21.9719 34.5775 17.4784 36.3336 12.985C36.4713 12.6407 36.6779 12.3136 36.8845 11.9004C37.1255 12.348 37.3494 12.6579 37.4699 13.0022C38.6922 16.17 39.8974 19.3378 41.1197 22.5056C42.8586 27.0335 44.5802 31.5613 46.3362 36.0892C46.56 36.6573 46.8871 37.191 47.1798 37.7419C47.1454 37.8797 47.0593 38.0346 47.0937 38.1379C47.6102 39.5496 48.1439 40.9614 48.6776 42.3559C49.504 44.5424 50.3132 46.7288 51.1912 48.8808C51.4494 49.5178 51.9487 50.0515 52.3447 50.6369C52.6546 51.0673 52.9645 51.5149 53.2744 51.9453V51.9625C53.567 52.6684 53.8941 53.3226 54.8066 53.3398L54.8238 53.3571C54.5828 53.4604 54.359 53.5809 54.118 53.6325C53.7564 53.7014 53.3777 53.753 52.9989 53.8047ZM33.8372 33.6445L33.82 33.6789C32.8043 34.798 32.5288 36.1925 32.2706 37.6042L32.2534 37.6214C31.8402 38.0346 31.427 38.4478 31.7713 39.1192L31.8057 39.1365C32.0123 39.2398 32.2189 39.4119 32.4255 39.4119C35.3867 39.4291 38.3479 39.4291 41.3091 39.4119C41.5157 39.4119 41.7395 39.1881 41.9461 39.0848C40.3106 34.7119 38.6578 30.339 36.9534 25.7767C36.0581 27.9976 35.2318 30.0291 34.4226 32.0606C34.2504 32.5943 34.0438 33.128 33.8372 33.6445Z" fill="#00215C"></path><path d="M128.474 16.0496C128.199 15.3781 127.924 14.7067 127.631 14.0181C129.266 14.0181 130.954 14.0181 132.83 14.0181C131.608 15.2404 131.711 16.721 131.711 18.1672C131.711 21.1456 131.694 24.124 131.728 27.1024C131.728 27.8943 131.797 28.7035 131.901 29.4955C132.09 30.9244 132.83 31.9402 134.242 32.405C135.826 32.9215 137.392 32.887 138.942 32.25C140.423 31.6303 141.318 30.5112 141.335 28.8929C141.369 24.7093 141.387 20.5258 141.318 16.3423C141.301 15.5675 140.836 14.81 140.577 14.0353C142.144 14.0353 143.831 14.0353 145.467 14.0353C145.191 14.7928 144.899 15.602 144.606 16.3939C144.503 16.6349 144.313 16.8587 144.313 17.0998C144.296 21.8514 144.296 26.6031 144.313 31.372C144.313 31.613 144.503 31.8369 144.606 32.0779C144.899 32.8698 145.174 33.6446 145.467 34.4365C144.279 34.4365 142.971 34.4365 141.61 34.4365C141.576 33.9889 141.559 33.5413 141.542 33.283C140.009 33.8339 138.529 34.5054 136.979 34.9013C135.395 35.2973 133.76 35.1079 132.279 34.4021C129.731 33.1797 128.595 31.0793 128.664 28.2903C128.716 28.1009 128.819 27.9288 128.819 27.7394C128.836 24.0551 128.836 20.3709 128.819 16.6866C128.767 16.4456 128.578 16.239 128.474 16.0496Z" fill="#00215C"></path><path d="M101.445 45.5582C107.333 45.6787 111.448 49.7073 111.31 55.2165C111.173 60.7084 106.662 64.892 101.015 64.7715C95.3508 64.651 91.2878 60.5191 91.4083 55.0271C91.546 49.6901 96.0567 45.4377 101.445 45.5582ZM108.211 54.8377C108.16 54.4417 108.091 53.667 107.919 52.9095C107.247 49.9827 104.837 47.7618 102.134 47.538C98.949 47.2798 96.2461 48.812 95.1442 51.7044C94.0252 54.6483 94.2662 57.5234 96.1428 60.1231C98.3637 63.2048 102.84 63.6868 105.715 61.1905C107.523 59.6238 108.194 57.5579 108.211 54.8377Z" fill="#00215C"></path><path d="M191.366 55.113C191.538 49.5866 195.979 45.4203 201.558 45.5752C207.411 45.7302 211.405 49.8276 211.25 55.4918C211.095 60.7772 206.447 64.9263 200.869 64.7713C195.291 64.6164 191.193 60.45 191.366 55.113ZM208.22 55.2852C208.082 54.4072 208.031 53.5119 207.773 52.6683C206.929 49.9654 205.242 48.0371 202.315 47.5895C199.474 47.1591 196.892 48.4331 195.463 50.8778C194.447 52.6339 194.275 54.5621 194.551 56.542C195.188 61.0182 199.113 63.6867 203.245 62.516C206.189 61.6724 208.134 58.8145 208.22 55.2852Z" fill="#00215C"></path><path d="M132.228 59.7789C133.536 56.4561 134.827 53.1162 136.136 49.7935C137.289 46.8667 138.443 43.9399 139.613 41.0132C139.665 40.8927 139.734 40.7722 139.854 40.5139C140.732 42.6659 141.559 44.6802 142.368 46.6945C144.262 51.429 146.156 56.1462 148.032 60.8807C148.549 62.1891 149.186 63.4115 150.615 64.2723C148.48 64.2723 146.569 64.2723 144.675 64.2723C145.966 63.6353 145.467 62.7056 145.123 61.7932C144.572 60.347 144.004 58.9008 143.487 57.4547C143.315 56.9554 143.057 56.8177 142.557 56.8349C140.268 56.8693 137.978 56.8521 135.671 56.8521C135.43 57.2653 135.103 57.6441 134.948 58.0917C134.328 60.0199 133.175 61.8276 133.45 64.0141C132.469 64.0657 131.505 64.1518 130.558 64.1518C130.403 64.1518 130.248 63.8419 130.093 63.6697L130.076 63.687C130.144 63.6181 130.196 63.5664 130.265 63.4976L130.248 63.5148C130.368 63.3598 130.506 63.1877 130.627 63.0327C131.797 62.2408 132.073 61.0529 132.228 59.7789ZM136.497 54.5279C138.512 54.5279 140.405 54.5279 142.351 54.5279C141.387 52.0144 140.457 49.6041 139.458 46.9872C138.408 49.6213 137.461 52.0488 136.497 54.5279Z" fill="#00215C"></path><path d="M257.768 20.0093C257.717 19.9921 257.7 19.9404 257.7 19.8888C257.682 19.2862 257.545 18.7697 256.839 18.6492C256.581 18.4254 256.322 18.0294 256.047 18.0122C254.945 17.9605 253.843 18.0466 252.741 18.0811C252.569 18.0983 252.397 18.1155 252.225 18.1155C252.104 18.3565 251.898 18.6148 251.898 18.8558C251.88 23.2115 251.898 27.55 251.898 31.9057C252.07 32.7493 252.225 33.5929 252.397 34.4365C252.173 34.4365 251.932 34.4365 251.708 34.4365C250.865 34.316 250.021 34.1954 249.212 34.0749C249.35 33.3518 249.608 32.5771 249.608 31.8024C249.642 27.2229 249.625 22.6434 249.625 18.0294C249.487 17.995 249.35 17.9433 249.212 17.9433C247.869 18.0122 246.526 18.1155 245.201 18.1844C244.977 18.2016 244.65 18.1499 244.564 18.0122C244.357 17.6851 245.338 16.3767 245.769 16.3767C249.849 16.3767 253.912 16.3767 257.992 16.3939C258.233 16.3939 258.56 16.5488 258.681 16.7382C259.352 17.8056 259.938 18.9074 260.609 19.9576C260.833 20.3192 261.16 20.5946 261.453 20.9217L261.487 20.9734C261.986 21.8342 262.486 22.695 262.985 23.5558L262.933 23.5903L262.985 23.5558C263.019 23.6247 263.071 23.6935 263.105 23.7796C263.26 23.7624 263.501 23.7968 263.536 23.728C264.655 21.9031 265.757 20.0609 266.841 18.2016C267.272 17.4613 267.048 16.7726 266.377 16.1184C267.805 16.1184 269.097 16.1184 270.543 16.1184C268.907 18.7353 267.341 21.2661 265.757 23.7968C265.636 23.9862 265.533 24.1756 265.412 24.365L265.361 24.3478L265.395 24.365C265.309 24.4511 265.223 24.5544 265.137 24.6404V24.6232C265.016 24.7954 264.913 24.9848 264.793 25.1569L264.81 25.1397C264.689 25.3119 264.569 25.5013 264.466 25.6734L264.483 25.6562C264.345 25.9661 264.104 26.276 264.121 26.5859C264.225 29.065 263.742 31.5786 264.5 33.9372C264.087 34.1094 263.76 34.2471 263.433 34.3848C263.192 34.3848 262.968 34.3848 262.727 34.3848C262.623 34.3848 262.503 34.3848 262.4 34.3848C262.227 34.3848 262.038 34.3848 261.866 34.3848C261.659 34.2471 261.453 34.1094 261.263 33.9716C261.401 33.5584 261.625 33.1969 261.625 32.8181C261.677 30.5628 261.694 28.3075 261.677 26.0522C261.677 25.8628 261.349 25.6734 261.177 25.484V25.5013C261.108 25.3807 261.04 25.2774 260.971 25.1569L260.988 25.1741C260.867 24.9848 260.764 24.8126 260.644 24.6232L260.661 24.6404C260.592 24.5199 260.523 24.4166 260.437 24.2961L260.454 24.3133C260.385 24.21 260.316 24.1067 260.248 23.9862L260.316 23.9518L260.248 23.969C260.075 23.6935 259.903 23.4009 259.731 23.1254V23.1082C259.611 22.9188 259.507 22.7294 259.387 22.5401C259.352 22.4884 259.335 22.4195 259.301 22.3679C259.163 22.1441 259.025 21.9203 258.887 21.6965L258.905 21.7137C258.956 20.9045 258.388 20.4397 257.768 20.0093Z" fill="#00215C"></path><path d="M87.1553 17.2547C86.9315 16.9276 86.7249 16.5832 86.4666 16.1873C88.0161 16.1873 89.5311 16.1873 91.0978 16.1873C89.5483 18.4426 90.5469 20.9562 90.1509 23.4009C93.4736 23.4009 96.6586 23.4009 99.8436 23.4009C100.326 20.8184 99.9813 17.599 99 16.1184C99.8264 16.1184 100.567 16.1184 101.324 16.1184C102.082 16.1184 102.856 16.1184 103.803 16.1184C102.736 17.2891 102.788 18.5803 102.788 19.8543C102.788 23.6591 102.788 27.4811 102.788 31.2859C102.788 32.3877 102.856 33.4551 103.769 34.402C102.116 34.402 100.601 34.402 98.9656 34.402C99.9125 33.4207 99.9469 32.2328 99.9469 31.0621C99.9641 29.461 99.9641 27.8427 99.9297 26.2415C99.9297 25.9833 99.637 25.7423 99.4821 25.5013C99.5337 25.4668 99.6026 25.4152 99.6542 25.3807C99.5854 25.3635 99.5165 25.3291 99.4304 25.3291C96.5553 25.3291 93.6802 25.3291 90.8051 25.3463C90.6157 25.3463 90.4263 25.5013 90.237 25.5873C90.2197 25.7423 90.2025 25.88 90.1853 26.035C90.082 26.8958 89.9443 27.7566 89.8926 28.6174C89.8754 28.8412 90.082 29.065 90.1853 29.2888C90.1853 30.2013 90.2025 31.131 90.2025 32.0434C90.2197 32.4738 90.1853 32.9042 90.2714 33.3346C90.3919 33.9544 90.3403 34.3504 89.5655 34.2987C89.0835 34.2643 88.5842 34.2815 88.1022 34.2987C87.4996 34.316 87.138 34.161 87.4135 33.4379C87.5512 33.0936 87.6201 32.7148 87.6201 32.3533C87.6373 27.6877 87.6373 23.0221 87.6029 18.3393C87.6029 17.9778 87.3102 17.6162 87.1553 17.2547Z" fill="#00215C"></path><path d="M206.446 16.2217C209.029 16.2217 211.474 16.1356 213.935 16.2561C215.537 16.325 216.914 17.0653 217.861 18.4254C219.031 20.1298 218.79 22.4195 217.207 23.7968C216.449 24.4683 215.537 24.9503 214.555 25.6217C216.742 28.4968 218.98 31.4236 221.183 34.2987C219.651 34.9185 217.689 34.2471 216.415 32.5254C215.089 30.7177 213.815 28.8928 212.524 27.0679C212.042 26.3965 211.56 25.725 211.06 25.0364C211.887 24.7265 212.679 24.4855 213.419 24.1584C214.4 23.728 215.192 23.0737 215.502 22.0063C216.087 20.0265 214.848 18.1843 212.799 17.9777C211.99 17.8917 211.146 17.9605 210.32 17.9605C210.268 18.3565 210.234 18.5631 210.234 18.7525C210.234 22.9877 210.2 27.2401 210.268 31.4753C210.286 32.4566 210.664 33.4379 210.871 34.4192C209.597 34.4192 208.082 34.4192 206.446 34.4192C207.411 33.369 207.411 32.1123 207.411 30.8555C207.411 27.0335 207.411 23.2287 207.411 19.4067C207.411 18.2704 207.359 17.1514 206.446 16.2217Z" fill="#00215C"></path><path d="M213.609 47.2626C213.368 46.8838 213.127 46.4879 212.817 45.9886C214.005 45.9886 215.124 45.9542 216.243 46.023C216.45 46.0402 216.656 46.3673 216.828 46.5912C219.893 50.5165 222.957 54.459 226.005 58.4015C226.297 58.7802 226.607 59.1762 226.986 59.6583C227.021 59.3656 227.055 59.1934 227.055 59.0041C227.055 55.6469 227.107 52.2897 227.02 48.9498C227.003 48.0029 226.642 47.0388 226.435 46.0747C227.416 46.0747 228.639 46.0747 229.913 46.0747C229.672 46.4706 229.448 46.8494 229.224 47.2282C229.086 47.6241 228.811 48.0201 228.811 48.4333C228.777 53.3571 228.794 58.281 228.777 63.222C228.777 63.618 228.656 64.014 228.57 64.6338C227.795 64.0828 227.227 63.6869 226.659 63.2737C226.383 63.0843 226.108 62.9294 225.833 62.74L225.85 62.7572C225.747 62.6367 225.643 62.4989 225.523 62.3784C223.526 59.8649 221.546 57.3513 219.566 54.8377C218.481 53.4604 217.414 52.0831 216.329 50.7058C216.157 50.4992 215.916 50.3443 215.709 50.1721C215.658 50.3443 215.537 50.5337 215.537 50.7058C215.52 54.5623 215.52 58.4359 215.537 62.2923C215.537 62.4817 215.744 62.6883 215.847 62.8777C216.088 63.3253 216.312 63.7729 216.587 64.2722C215.365 64.2722 214.126 64.2722 212.92 64.2722C213.161 63.7041 213.42 63.1187 213.678 62.5334C213.781 62.3268 213.953 62.1202 213.953 61.9136C213.971 57.2996 213.971 52.6857 213.953 48.0718C213.971 47.7963 213.747 47.538 213.609 47.2626Z" fill="#00215C"></path><path d="M162.614 29.633C162.7 29.5125 162.838 29.392 162.838 29.2715C162.855 25.7421 162.889 22.2128 162.803 18.7007C162.786 17.8571 162.39 17.0307 162.166 16.1699C163.199 16.1699 164.422 16.1699 165.713 16.1699C165.489 16.5315 165.265 16.893 165.041 17.2718C164.955 17.4439 164.852 17.6161 164.766 17.7882C164.766 17.8399 164.766 17.8915 164.732 17.9432C164.68 18.2703 164.594 18.5974 164.594 18.9245C164.577 23.8311 164.594 28.755 164.577 33.6616C164.577 33.9543 164.542 34.247 164.525 34.5741C163.836 34.333 163.251 34.1437 162.666 33.9371C162.614 33.8854 162.545 33.8338 162.493 33.7821C162.425 33.7133 162.373 33.6616 162.304 33.5927L162.321 33.61C162.183 33.4722 162.046 33.3345 161.908 33.1968C161.874 33.1796 161.856 33.1623 161.856 33.1279C161.822 33.0935 161.788 33.0418 161.753 33.0074L161.719 32.973C161.667 32.9213 161.633 32.8697 161.581 32.818L161.564 32.8008C161.512 32.7319 161.46 32.6803 161.426 32.6114C161.254 32.4048 161.064 32.181 160.892 31.9572L160.875 31.9228C160.737 31.7334 160.582 31.544 160.445 31.3374C160.359 31.2341 160.29 31.148 160.204 31.0447C160.221 31.0447 160.238 31.0275 160.255 31.0275C160.238 31.0275 160.221 31.0447 160.204 31.0447C160.152 30.9759 160.1 30.907 160.066 30.8381L160.083 30.8554C159.98 30.7176 159.877 30.5971 159.773 30.4594C159.687 30.3561 159.618 30.27 159.532 30.1667L159.584 30.1323L159.549 30.1667C159.446 30.029 159.343 29.9085 159.257 29.7707C159.171 29.6674 159.102 29.5641 159.016 29.4781L159.067 29.4092L159.016 29.4781C158.964 29.4092 158.912 29.3403 158.861 29.2715L158.878 29.2887C158.74 29.1337 158.62 28.9788 158.482 28.8238L158.465 28.7894C158.396 28.7033 158.327 28.6173 158.258 28.5312L158.241 28.4967C158.086 28.3074 157.948 28.1352 157.793 27.9458L157.776 27.9286C157.725 27.8597 157.69 27.8081 157.638 27.7392L157.69 27.7048L157.638 27.7392C157.535 27.6015 157.432 27.481 157.329 27.3433C157.242 27.24 157.174 27.1539 157.088 27.0506C156.967 26.3275 156.692 25.7077 155.882 25.5183L155.865 25.5011C155.727 25.3117 155.572 25.1051 155.435 24.9158C155.349 24.8125 155.28 24.7264 155.194 24.6231L155.263 24.5714L155.211 24.6231C155.039 24.3993 154.867 24.1755 154.677 23.9517L154.712 23.9L154.66 23.9344C154.488 23.7278 154.316 23.504 154.144 23.2974L154.109 23.2458C153.92 22.9875 153.73 22.7465 153.541 22.4883C153.317 21.4725 152.835 20.6461 151.802 20.2502C151.75 20.1124 151.699 19.9747 151.647 19.8198C151.389 20.1985 151.303 20.5601 151.303 20.9388C151.286 24.537 151.286 28.1524 151.32 31.7506C151.32 32.3015 151.544 32.8524 151.596 33.4206C151.63 33.7133 151.509 34.0231 151.475 34.333C151.354 34.333 151.251 34.333 151.131 34.333C150.855 34.2814 150.563 34.1781 150.287 34.1953C149.478 34.1953 149.34 34.0059 149.53 33.2312C149.65 32.7319 149.736 32.2327 149.753 31.7162C149.771 28.4795 149.771 25.2601 149.753 22.0234C149.753 20.2157 149.702 18.408 149.667 16.5142C150.39 16.4282 151.32 16.3077 152.233 16.2044L152.25 16.2216C152.422 16.4454 152.594 16.6692 152.766 16.893L152.783 16.9102C152.938 17.0996 153.076 17.3062 153.231 17.4956C153.283 17.5644 153.334 17.6161 153.386 17.6849C153.644 18.0121 153.885 18.3219 154.144 18.6491L154.092 18.7007L154.144 18.6318C154.247 18.7696 154.333 18.8901 154.436 19.0278C154.522 19.1311 154.591 19.2172 154.677 19.3205L154.626 19.3894L154.677 19.3205C154.729 19.3894 154.781 19.4582 154.832 19.5271L154.815 19.5099C154.953 19.6648 155.073 19.837 155.211 19.9919L155.176 20.0264L155.211 19.9919C155.039 20.4223 155.211 20.5945 155.641 20.5773C155.951 20.9732 156.261 21.3692 156.571 21.7652C156.605 21.8168 156.64 21.8685 156.674 21.9201C156.726 21.989 156.778 22.0579 156.846 22.144C156.933 22.2472 157.001 22.3505 157.088 22.4366L157.036 22.4883L157.088 22.4366C157.191 22.5744 157.294 22.6949 157.38 22.8326V22.8154C157.466 22.9187 157.535 23.0048 157.621 23.1081C157.604 23.1081 157.587 23.1253 157.57 23.1253C157.587 23.1253 157.604 23.1081 157.621 23.1081C157.673 23.1769 157.725 23.2458 157.776 23.2974L157.742 23.3319L157.776 23.2974C157.879 23.4352 157.983 23.5557 158.086 23.6934C158.241 24.778 158.981 25.3806 159.825 25.9315C160.135 27.0334 160.737 27.9114 161.788 28.4279L161.805 28.4623C161.942 28.6517 162.097 28.8411 162.235 29.0477C162.338 29.1682 162.442 29.2887 162.545 29.4264L162.562 29.4608C162.528 29.5641 162.562 29.5986 162.614 29.633Z" fill="#00215C"></path><path d="M152.698 47.0388C152.646 46.9182 152.577 46.8149 152.526 46.6944C152.835 46.5739 153.145 46.3845 153.455 46.3501C154.505 46.264 155.556 46.1952 156.606 46.1779C158.5 46.1435 160.359 46.1952 162.029 47.2798C162.167 47.3659 162.356 47.3486 162.528 47.3659C162.614 47.4347 162.7 47.5036 162.786 47.5725L162.821 47.6069C162.666 48.2783 163.2 48.4505 163.63 48.6915L163.613 48.6743C163.63 48.9498 163.613 49.2424 163.682 49.5007C163.923 50.482 163.974 51.4461 163.475 52.3758C163.406 52.5135 163.423 52.7029 163.406 52.8751C163.062 53.2366 162.718 53.5981 162.373 53.9769C162.322 54.0113 162.27 54.0458 162.218 54.0974C162.098 54.1663 161.994 54.2523 161.874 54.3212L161.891 54.304C161.822 54.3556 161.753 54.4073 161.667 54.4589H161.685C161.375 54.545 161.03 54.5967 160.755 54.7344C160.514 54.8549 160.324 55.1132 160.118 55.3025C162.201 58.0399 164.267 60.7601 166.367 63.4975C166.54 63.7213 166.746 63.9106 166.953 64.1172C165.059 64.5821 163.544 64.3066 162.476 62.9465C160.445 60.3297 158.551 57.5923 156.606 54.941C157.604 54.5278 158.568 54.2179 159.429 53.7531C160.893 52.9611 161.461 51.5494 161.082 50.0516C160.755 48.7432 159.464 47.779 157.897 47.779C157.191 47.779 156.485 47.9684 155.779 48.0717C155.676 48.1406 155.504 48.2095 155.504 48.2611C155.521 48.6743 155.624 49.1047 155.642 49.5179C155.659 52.6857 155.642 55.8535 155.659 59.0212C155.659 59.3311 155.728 59.641 155.762 59.9337C155.762 60.4502 155.762 60.9839 155.762 61.5004C155.745 62.0513 155.676 62.6194 155.728 63.1704C155.745 63.3425 156.055 63.4802 156.244 63.6352L156.261 63.6524C156.106 63.7901 155.934 64.0312 155.779 64.0484C154.85 64.0828 153.92 64.0656 152.87 64.0656C152.956 63.6524 153.042 63.3597 153.059 63.0671C153.076 62.826 152.99 62.6022 152.939 62.3612C152.956 62.189 152.973 62.0169 152.99 61.8447C153.076 61.5692 153.249 61.311 153.249 61.0355C153.266 56.7143 153.266 52.393 153.266 48.0717C153.042 47.7274 152.87 47.3831 152.698 47.0388Z" fill="#00215C"></path><path d="M233.218 16.3079C233.218 17.2376 233.218 18.1672 233.218 19.2346C232.925 19.0453 232.684 18.9075 232.46 18.7698C230.859 17.7885 229.155 17.3236 227.295 17.7713C226.297 18.0123 225.471 18.5288 225.247 19.6134C225.023 20.698 225.522 21.5416 226.417 22.0925C227.45 22.7468 228.57 23.2977 229.637 23.9002C230.618 24.4339 231.634 24.916 232.564 25.5186C235.077 27.1885 235.422 30.408 233.338 32.5772C231.479 34.5226 229.086 35.108 226.504 34.9014C225.316 34.8153 224.145 34.471 222.974 34.1955C222.733 34.1439 222.423 33.8684 222.354 33.6274C222.062 32.7322 221.872 31.8197 221.614 30.8212C222.492 31.2688 223.267 31.7164 224.093 32.0607C225.798 32.7838 227.554 33.0765 229.379 32.5428C230.549 32.1985 231.479 31.5615 231.651 30.253C231.823 28.979 231.169 28.1182 230.119 27.5329C229.172 26.9992 228.191 26.5343 227.244 25.9834C226.056 25.2948 224.816 24.6578 223.766 23.7969C221.476 21.9376 221.683 18.4427 224.231 16.9449C225.247 16.3423 226.504 16.0496 227.691 15.8258C229.206 15.5332 231.927 15.8775 233.218 16.3079Z" fill="#00215C"></path><path d="M236.024 57.5064C235.49 58.9009 234.957 60.2782 234.389 61.6555C234.01 62.5679 233.907 63.4288 234.836 64.2551C233.425 64.2551 232.133 64.2551 230.756 64.2551C232.047 62.9467 232.495 61.2767 233.115 59.6928C234.578 55.9569 236.024 52.221 237.488 48.4851C237.797 47.6759 238.073 46.8495 237.281 45.9715C238.624 45.9715 239.812 45.9371 241 46.0059C241.206 46.0231 241.465 46.4191 241.568 46.6946C243.324 51.3602 245.046 56.0258 246.853 60.6742C247.335 61.9309 248.093 63.0844 248.695 64.2551C247.335 64.2551 245.734 64.2551 243.926 64.2551C245.063 63.446 244.667 62.5507 244.34 61.6555C243.909 60.4676 243.496 59.2796 243.048 58.1089C242.945 57.8507 242.756 57.6441 242.601 57.4031C242.497 57.3342 242.377 57.1965 242.274 57.1965C240.345 57.1793 238.417 57.1793 236.489 57.1965C236.317 57.1965 236.179 57.4031 236.024 57.5064ZM239.536 48.5539C238.572 51.0159 237.694 53.2884 236.782 55.5954C238.607 55.5954 240.294 55.5954 242.067 55.5954C241.241 53.2884 240.432 51.0159 239.536 48.5539Z" fill="#00215C"></path><path d="M192.915 16.1531C196.255 16.1531 199.457 16.1531 202.711 16.1531C202.711 17.0828 202.711 17.978 202.711 18.9421C200.851 17.7198 198.872 17.9263 196.823 18.374C196.823 20.0956 196.823 21.7656 196.823 23.5216C198.286 23.5216 199.715 23.5216 201.179 23.5216C201.179 24.3824 201.179 25.1744 201.179 25.7769C199.767 25.6564 198.321 25.5531 196.823 25.4326C196.823 27.7568 196.823 29.8916 196.823 32.0609C199.646 32.6118 202.401 32.6462 205.104 30.8557C204.622 32.2158 204.226 33.3349 203.83 34.4539C200.214 34.4539 196.634 34.4539 192.898 34.4539C193.931 33.4037 193.896 32.1642 193.896 30.9418C193.896 27.2059 193.896 23.4872 193.896 19.7513C193.913 18.4945 193.965 17.2205 192.915 16.1531Z" fill="#00215C"></path><path d="M176.8 62.1546C176.835 62.103 176.852 62.0341 176.886 61.9825C177.007 61.7931 177.127 61.6037 177.248 61.4143L177.231 61.4316C177.3 61.3283 177.368 61.2077 177.455 61.1045L177.437 61.1217C177.506 61.0012 177.575 60.8979 177.644 60.7773L177.627 60.7946C177.696 60.674 177.764 60.5707 177.833 60.4502C177.919 60.3125 177.988 60.1748 178.074 60.037L178.092 60.0198C178.178 59.8821 178.281 59.7444 178.367 59.5894C179.951 56.9381 181.518 54.2696 183.101 51.6183C183.738 50.5681 184.375 49.5179 185.064 48.3644C182.206 47.5897 179.503 47.4864 176.697 49.0531C177.145 47.9685 177.472 47.1077 177.868 46.2641C177.937 46.1263 178.212 45.9886 178.401 45.9886C182.069 45.9714 185.736 45.9886 189.403 45.9886C189.454 45.9886 189.489 46.0403 189.609 46.1091C186.459 51.3429 183.308 56.5766 180.089 61.9308C183.756 62.3957 187.319 62.6883 190.9 60.8979C190.642 61.5004 190.47 61.9308 190.281 62.344C190.143 62.5506 189.971 62.7228 189.867 62.9466C189.523 63.6697 189.162 64.1173 188.163 64.1001C184.479 64.014 180.777 64.0656 177.093 64.0656C176.8 64.0656 176.508 64.0312 176.215 64.014C177.093 63.6352 176.611 62.981 176.628 62.4817L176.611 62.499C176.663 62.3957 176.731 62.2752 176.8 62.1546Z" fill="#00215C"></path><path d="M185.409 32.009C185.047 32.9731 184.686 33.92 184.324 34.9185C182.981 34.5914 182.189 33.6962 181.673 32.5943C181.07 31.2342 180.571 29.8397 180.072 28.428C178.918 25.1397 177.799 21.8342 176.629 18.5459C176.336 17.7539 175.906 16.9964 175.527 16.1873C176.732 16.1873 177.903 16.1873 178.936 16.1873C180.554 21.0594 182.138 25.8456 183.791 30.821C185.082 27.4467 186.321 24.2444 187.544 21.0594C188.284 20.2847 188.542 19.355 188.37 18.3049C188.353 18.0638 188.353 17.84 188.336 17.599C188.301 17.2374 188.267 16.8759 188.215 16.4455C189.162 16.4455 190.074 16.4455 191.125 16.4455C191.039 16.7898 190.987 17.0653 190.884 17.3063C190.109 19.269 189.334 21.2316 188.559 23.1943C187.63 25.5701 186.683 27.9459 185.788 30.339C185.598 30.8555 185.529 31.4408 185.409 32.009Z" fill="#00215C"></path><path d="M79.5974 33.4036C79.8212 33.6963 80.0278 33.989 80.3205 34.385C78.53 34.385 76.8256 34.385 75.0007 34.385C76.2058 33.1454 76.0853 31.6131 76.0853 30.0981C76.0853 25.5014 76.0853 20.8874 76.0853 16.1874C74.0882 16.1702 72.1256 15.9464 70.3179 16.9966C70.2834 16.9449 70.249 16.9105 70.2146 16.8761C70.4728 15.9636 70.7311 15.0511 71.0065 14.1387C75.6549 14.1387 80.3205 14.1387 85.141 14.1387C84.9 15.0339 84.6934 15.7742 84.4868 16.5662C84.0392 16.3596 83.7293 16.0841 83.4022 16.0669C82.2487 15.9636 81.078 15.8947 79.9073 15.8947C79.6146 15.8947 79.322 16.2046 79.0293 16.3768C79.0293 21.5933 79.0293 26.827 79.0293 32.0435C79.0809 32.2157 79.1498 32.3879 79.2014 32.56C79.322 32.8527 79.4597 33.1282 79.5974 33.4036Z" fill="#00215C"></path><path d="M113.118 16.1531C113.445 16.1531 113.789 16.1531 114.116 16.1531C114.323 16.2219 114.512 16.3597 114.719 16.3597C115.889 16.3425 115.889 16.1703 115.889 17.6853C115.889 18.3223 115.631 18.3912 115.08 18.1674C114.753 18.0296 114.34 18.1157 113.961 18.0813C113.858 18.0641 113.737 18.0641 113.634 18.0469C112.963 17.978 112.274 17.7886 111.62 17.9091C111.138 17.9952 110.398 17.6165 110.156 18.4428C110.139 18.5117 110.139 18.5633 110.122 18.6322C109.726 19.1831 109.726 20.8531 110.122 21.404C110.122 21.5073 110.122 21.6278 110.122 21.7311C109.692 21.9722 109.692 22.196 110.122 22.437C110.122 22.5403 110.122 22.6608 110.122 22.7641C109.726 22.9363 109.743 23.1256 110.122 23.2978C110.38 23.3667 110.621 23.5216 110.88 23.5216C112.085 23.5388 113.273 23.5388 114.529 23.5388C114.529 24.3996 114.529 25.2088 114.529 25.8114C113.118 25.6909 111.706 25.5703 110.139 25.4326C110.139 26.655 110.139 27.7396 110.139 28.807C110.139 29.8916 110.139 30.9762 110.139 32.0609C112.963 32.6462 115.648 32.6118 118.162 31.0968C118.196 31.1484 118.231 31.2001 118.265 31.2345C118.024 31.9748 117.766 32.7151 117.525 33.4382C116.991 34.3162 116.165 34.3678 115.252 34.3334C114.065 34.2818 112.859 34.3162 111.654 34.3334C111.207 34.3334 110.776 34.4195 110.329 34.4711C110.105 34.4711 109.864 34.4711 109.64 34.4711C108.728 34.3678 107.832 34.2818 107.058 34.1957C107.195 33.4898 107.281 32.9561 107.385 32.4224C107.454 32.1642 107.574 31.8887 107.574 31.6305C107.591 27.4469 107.591 23.2634 107.574 19.0971C107.574 18.8216 107.471 18.5633 107.402 18.2879C107.299 17.6681 107.195 17.0483 107.092 16.463C107.402 16.3769 107.746 16.2736 108.108 16.1531C109.124 16.1531 110.156 16.1531 111.172 16.1531C111.844 16.1531 112.481 16.1531 113.118 16.1531Z" fill="#00215C"></path><path d="M122.707 46.3499C122.707 46.4705 122.707 46.591 122.707 46.7115C122.586 46.9869 122.104 47.2796 122.707 47.5551C122.707 47.7272 122.707 47.8994 122.707 48.0716C122.242 48.0027 121.76 47.8994 121.295 47.865C120.916 47.8305 120.538 47.865 120.176 47.8822C120.056 47.8822 119.935 47.865 119.832 47.865C119.66 47.7617 119.47 47.5723 119.298 47.5895C118.541 47.6584 117.783 47.7961 117.026 47.8994C116.389 47.9855 116.32 48.2954 116.716 48.7602C116.716 49.621 116.716 50.4818 116.716 51.3426C116.63 51.4804 116.457 51.6181 116.457 51.7558C116.44 52.1174 116.492 52.4789 116.492 52.8405C116.475 53.598 116.767 53.7701 117.542 53.7357C118.747 53.6841 119.969 53.7357 121.192 53.7357C121.192 53.8562 121.192 53.9595 121.192 54.08C121.089 54.2005 120.899 54.3211 120.899 54.4243C120.968 54.9925 120.658 55.2507 120.193 55.4401C120.073 55.4229 119.952 55.4229 119.832 55.4057C119.763 55.3196 119.694 55.1646 119.625 55.1646C118.713 55.1474 117.8 55.0958 116.888 55.1646C116.716 55.1819 116.406 55.5778 116.423 55.8016C116.44 57.8504 116.492 59.9163 116.578 61.9651C116.612 62.6365 116.767 63.2907 116.871 63.9966C115.803 63.9966 114.787 63.9966 113.841 63.9966C113.961 63.2735 114.133 62.6021 114.15 61.9478C114.185 57.6266 114.168 53.3053 114.15 48.9668C114.15 48.7258 113.995 48.4848 113.909 48.2265C113.892 48.106 113.875 47.9855 113.858 47.865C113.789 47.2452 113.72 46.6254 113.634 46.0056C113.754 46.0056 113.875 46.0056 113.995 46.0056C114.099 46.1089 114.219 46.2983 114.323 46.2983C115.39 46.3155 116.457 46.2983 117.525 46.2983C119.246 46.3327 120.968 46.3327 122.707 46.3499Z" fill="#00215C"></path><path d="M173.529 64.3067C171.842 64.3067 170.362 64.3067 168.76 64.3067C170.017 62.7745 169.69 61.0012 169.707 59.2968C169.742 55.974 169.725 52.6513 169.707 49.3114C169.707 48.1751 169.707 47.0044 168.674 46.0403C170.344 46.0403 171.842 46.0403 173.46 46.0403C172.359 47.2971 172.531 48.7777 172.531 50.2238C172.531 53.8909 172.531 57.5579 172.531 61.2422C172.531 62.3096 172.634 63.3426 173.529 64.3067Z" fill="#00215C"></path><path d="M172.806 32.7319C173.064 33.3001 173.305 33.851 173.564 34.4363C172.083 34.4363 170.585 34.4363 168.932 34.4363C170.034 33.1623 169.897 31.6817 169.897 30.2356C169.897 26.689 169.897 23.1253 169.897 19.5787C169.897 18.3736 169.914 17.1685 168.846 16.1355C170.534 16.1355 172.031 16.1355 173.512 16.1355C173.254 16.8241 172.995 17.5472 172.72 18.2703C172.651 18.4941 172.496 18.7179 172.496 18.9417C172.479 23.2974 172.479 27.6532 172.496 32.0089C172.513 32.2671 172.703 32.5081 172.806 32.7319Z" fill="#00215C"></path><path d="M241.034 34.4365C239.794 34.4365 238.555 34.4365 237.229 34.4365C237.47 34.1094 237.677 33.8512 237.866 33.5757C238.056 33.2314 238.417 32.8871 238.417 32.5427C238.452 27.8083 238.452 23.0566 238.417 18.3221C238.417 17.9606 238.124 17.5991 237.952 17.2375C237.935 17.1859 237.918 17.1342 237.901 17.0654C237.969 16.8415 238.021 16.635 238.107 16.3767C238.796 16.3767 239.485 16.3767 240.156 16.3767C241.154 16.3767 241.137 16.3767 240.879 17.3064C240.81 17.5474 240.845 17.8229 240.845 18.0811C240.845 22.4885 240.845 26.8786 240.845 31.286C240.845 31.9574 240.913 32.6288 240.948 33.3003C240.982 33.679 241 34.0578 241.034 34.4365Z" fill="#00215C"></path><path d="M47.1626 37.7249C46.8871 37.1739 46.5428 36.6402 46.319 36.0721C44.5629 31.5442 42.8413 27.0164 41.1025 22.4885C39.8801 19.3207 38.675 16.1529 37.4526 12.9851C37.3149 12.6408 37.1083 12.3309 36.8673 11.8833C36.6607 12.2965 36.4541 12.6236 36.3164 12.9679C34.5775 17.4614 32.8215 21.9548 31.0999 26.4482C29.3954 30.8556 27.7083 35.2802 26.0211 39.7047C24.8331 42.8209 23.7313 45.9886 22.4745 49.0703C21.7859 50.7575 20.7529 52.307 19.0313 53.5638C21.6826 53.5638 24.1101 53.5638 26.6581 53.5638C26.0211 51.4978 27.45 49.9139 28.0009 48.1062C28.4313 46.6601 29.0511 45.2828 29.6193 43.871C29.6881 43.6989 29.8775 43.5956 30.0152 43.4579C29.0511 45.9714 28.1042 48.5022 27.1229 50.9986C26.7097 52.0315 26.4687 52.9784 27.691 53.822C24.3167 53.822 21.1144 53.822 17.8261 53.822C20.5291 52.6858 21.6654 50.3788 22.6123 47.8824C27.2262 35.8999 31.8401 23.9174 36.4541 11.935C36.5574 11.6423 36.6607 11.3496 36.7812 10.9881C36.1959 10.9536 35.731 10.9192 35.249 10.8848C35.8515 10.8848 36.4369 10.8848 37.0394 10.8848C37.1255 11.2635 37.1772 11.6423 37.3149 12.0038C40.5516 20.4053 43.7882 28.8069 47.0249 37.2084C47.0937 37.3977 47.1282 37.5699 47.1626 37.7249Z" fill="#00215C"></path><path d="M45.4404 58.9008C45.3371 57.6095 45.1477 56.3183 45.1305 55.0099C45.1305 54.2352 44.8895 54.0114 44.1492 54.063C43.1851 54.1319 42.2037 54.0974 41.2224 54.0802C40.7748 54.063 40.6026 54.2524 40.6198 54.6828C40.6715 57.5407 40.7231 60.3986 40.7748 63.2565C40.7748 63.4803 40.7404 63.7041 40.6887 64.0656C40.9814 64.0656 41.2569 64.0656 41.5323 64.0656C50.1576 64.0656 58.783 64.0656 67.4255 64.0656C68.5101 64.0656 68.5274 64.0656 68.5274 62.9466C68.5274 58.677 68.5274 54.4073 68.5274 50.1377C68.5274 48.967 68.4757 48.9154 67.3222 48.9154C65.9966 48.9154 64.6881 48.9326 63.3625 48.8981C63.0698 48.8981 62.7943 48.726 62.5189 48.6399C64.6021 48.6399 66.6852 48.6399 68.82 48.6399C68.82 53.8564 68.82 59.0041 68.82 64.2206C59.3855 64.2206 49.951 64.2206 40.4649 64.2206C40.4649 60.7773 40.4649 57.3341 40.4649 53.8392C42.1177 53.8392 43.7532 53.8392 45.4404 53.8392C45.4404 55.5436 45.4404 57.2308 45.4404 58.9008Z" fill="#00215C"></path><path d="M55.4088 6.06413C43.478 6.06413 31.5644 6.06413 19.6335 6.04691C18.8244 6.04691 18.5661 6.23629 18.5661 7.07988C18.6005 11.4872 18.6005 15.9118 18.5661 20.3192C18.5661 21.0422 18.7899 21.2661 19.4958 21.2316C20.0984 21.1972 20.7181 21.3177 21.3379 21.3866C20.3738 21.3866 19.4097 21.3866 18.3423 21.3866C18.3423 21.1455 18.3423 20.9217 18.3423 20.7151C18.3423 15.9462 18.3423 11.1601 18.3423 6.39124C18.3423 6.21907 18.3767 6.04691 18.3939 5.89197C18.5145 5.85753 18.6522 5.8231 18.7727 5.80588C30.7724 5.80588 42.7549 5.80588 54.7546 5.80588C54.9784 5.77145 55.185 5.96083 55.4088 6.06413Z" fill="#00215C"></path><path d="M261.418 20.9218C261.143 20.6119 260.798 20.3193 260.574 19.9577C259.92 18.8903 259.318 17.7885 258.646 16.7383C258.526 16.5489 258.199 16.394 257.958 16.394C253.895 16.3767 249.814 16.3767 245.734 16.3767C245.304 16.3767 244.322 17.6852 244.529 18.0123C244.615 18.15 244.959 18.1844 245.166 18.1844C246.509 18.1156 247.852 18.0295 249.177 17.9434C249.315 17.9434 249.453 17.9951 249.591 18.0295C249.591 22.6434 249.608 27.223 249.573 31.8025C249.573 32.5772 249.298 33.3519 249.177 34.075C249.987 34.1955 250.83 34.316 251.674 34.4366C250.624 34.4366 249.556 34.4366 248.368 34.4366C249.677 32.8699 249.246 31.0105 249.263 29.2545C249.315 25.8801 249.281 22.4885 249.281 19.1141C249.281 18.8042 249.281 18.4943 249.281 18.15C247.438 18.1328 245.665 17.9778 243.926 19.0453C244.219 18.0811 244.443 17.2375 244.736 16.4112C244.787 16.2562 245.114 16.0841 245.304 16.0841C249.539 16.0668 253.791 16.0668 258.026 16.1013C258.319 16.1013 258.698 16.3767 258.87 16.635C259.783 18.0295 260.592 19.4929 261.418 20.9218Z" fill="#00215C"></path><path d="M113.875 48.2439C113.961 48.4849 114.116 48.726 114.116 48.9842C114.133 53.3055 114.133 57.6267 114.116 61.9652C114.116 62.6194 113.927 63.2909 113.806 64.014C114.753 64.014 115.769 64.014 116.836 64.014C116.733 63.3081 116.561 62.6539 116.544 61.9824C116.457 59.9337 116.406 57.8678 116.389 55.819C116.389 55.5952 116.681 55.182 116.853 55.182C117.766 55.1304 118.678 55.1648 119.591 55.182C119.66 55.182 119.729 55.337 119.797 55.4231C118.799 55.4231 117.8 55.4231 116.853 55.4231C116.853 57.885 116.819 60.3297 116.888 62.7916C116.905 63.2909 117.301 63.7557 117.542 64.2894C116.079 64.2894 114.564 64.2894 112.928 64.2894C113.858 63.2737 113.875 62.0341 113.875 60.8117C113.892 56.611 113.892 52.4274 113.875 48.2439Z" fill="#00215C"></path><path d="M30.0146 43.4579C30.2384 43.2685 30.445 42.9414 30.6688 42.9242C34.8007 42.8897 38.9326 42.8725 43.0473 42.9414C43.4432 42.9414 43.9941 43.4923 44.1663 43.9055C45.1993 46.4363 46.1978 48.9843 47.1103 51.5667C47.3169 52.1349 47.1447 52.8235 47.1447 53.581C48.6081 53.581 50.1059 53.5638 51.6209 53.5982C51.9825 53.5982 52.3268 53.736 52.6711 53.8048C50.5535 53.8048 48.4359 53.8048 46.1117 53.8048C47.5579 52.8579 46.9381 51.7561 46.5077 50.6543C45.6297 48.4506 44.7689 46.2297 43.9253 44.0088C43.7187 43.4579 43.4777 43.2168 42.8234 43.2168C38.8637 43.2513 34.9212 43.2341 30.9615 43.2341C30.6516 43.2513 30.3417 43.389 30.0146 43.4579Z" fill="#00215C"></path><path d="M251.312 61.5692C251.329 60.0714 252.5 58.9351 254.015 58.9523C255.513 58.9696 256.701 60.1403 256.701 61.6036C256.701 63.0498 255.461 64.2377 253.981 64.2205C252.448 64.2205 251.295 63.067 251.312 61.5692ZM253.981 63.7729C255.186 63.7729 256.15 62.8088 256.15 61.5864C256.15 60.3641 255.168 59.4 253.963 59.4172C252.775 59.4344 251.88 60.3469 251.863 61.5692C251.846 62.8088 252.775 63.7729 253.981 63.7729Z" fill="#00215C"></path><path d="M152.267 16.3077C151.355 16.411 150.425 16.5315 149.702 16.6176C149.736 18.5114 149.788 20.3191 149.788 22.1268C149.805 25.3634 149.805 28.5829 149.788 31.8195C149.788 32.3188 149.685 32.8353 149.564 33.3345C149.375 34.1265 149.512 34.2986 150.322 34.2986C150.597 34.2986 150.89 34.3847 151.165 34.4364C150.339 34.4364 149.53 34.4364 148.583 34.4364C149.581 33.3345 149.564 32.0433 149.564 30.7521C149.564 26.999 149.564 23.263 149.564 19.5099C149.564 18.3392 149.512 17.1685 148.703 16.0322C149.891 16.1183 151.079 16.2044 152.267 16.3077Z" fill="#00215C"></path><path d="M79.0296 16.3765C79.3222 16.2043 79.6149 15.8944 79.9076 15.8944C81.0783 15.8944 82.249 15.946 83.4025 16.0666C83.7296 16.101 84.0395 16.3592 84.4871 16.5658C84.6937 15.7739 84.9003 15.0508 85.1413 14.1383C80.3208 14.1383 75.6552 14.1383 71.0068 14.1383C71.179 14.0523 71.3683 13.8801 71.5405 13.8801C76.0856 13.8629 80.6307 13.8629 85.1758 13.8801C85.2446 13.8801 85.3307 13.9145 85.4684 13.9662C85.1758 15.0164 84.8831 16.0321 84.5732 17.1168C82.9549 15.7911 81.1299 16.1699 79.3567 16.2043C79.305 16.2043 79.2534 16.3248 79.1845 16.3765C79.1329 16.3765 79.0812 16.3765 79.0296 16.3765Z" fill="#00215C"></path><path d="M87.1553 17.2546C87.3102 17.6162 87.6029 17.9777 87.6029 18.3565C87.6373 23.0221 87.6201 27.6877 87.6201 32.3705C87.6201 32.732 87.5512 33.1108 87.4135 33.4551C87.1381 34.1782 87.4996 34.3159 88.1022 34.3159C88.5842 34.2987 89.0835 34.2815 89.5655 34.3159C90.3403 34.3676 90.3919 33.9716 90.2714 33.3518C90.1853 32.9386 90.2198 32.491 90.2025 32.0606C90.4608 32.8525 90.7018 33.6445 90.9601 34.4536C89.5655 34.4536 88.0505 34.4536 86.4322 34.4536C87.5168 33.2313 87.3963 31.7851 87.3963 30.3734C87.3963 26.7924 87.4135 23.2115 87.3791 19.6477C87.3791 18.8385 87.2414 18.0466 87.1553 17.2546Z" fill="#00215C"></path><path d="M225.849 62.7228C226.124 62.8949 226.417 63.0671 226.675 63.2565C227.244 63.6524 227.812 64.0656 228.586 64.6165C228.672 63.9968 228.793 63.6008 228.793 63.2048C228.81 58.281 228.793 53.3571 228.827 48.4161C228.827 48.0201 229.086 47.6241 229.241 47.2109C229.172 48.0373 229.051 48.8637 229.034 49.6901C229.017 54.304 229.017 58.9008 229.034 63.5147C229.034 63.9107 229.034 64.3066 229.034 64.7543C227.536 64.6165 226.624 63.7902 225.849 62.7228Z" fill="#00215C"></path><path d="M185.408 32.0089C185.546 31.4407 185.615 30.8554 185.821 30.3217C186.734 27.9286 187.663 25.5528 188.593 23.1769C189.368 21.2143 190.143 19.2516 190.917 17.289C191.021 17.048 191.055 16.7725 191.158 16.4282C190.108 16.4282 189.196 16.4282 188.249 16.4282C188.283 16.8586 188.335 17.2201 188.369 17.5817C188.111 17.1168 187.853 16.652 187.56 16.1355C188.937 16.1355 190.229 16.1355 191.623 16.1355C190.986 17.8055 190.366 19.3894 189.747 20.9905C188.3 24.6575 186.854 28.3418 185.408 32.0089Z" fill="#00215C"></path><path d="M176.611 62.4988C176.593 62.9981 177.075 63.6523 176.197 64.0311C176.49 64.0483 176.783 64.0827 177.075 64.0827C180.76 64.0827 184.461 64.0311 188.146 64.1171C189.127 64.1344 189.488 63.6867 189.85 62.9637C189.953 62.7398 190.125 62.5677 190.263 62.3611C190.246 62.4472 190.246 62.5332 190.229 62.6193C189.609 64.3409 189.609 64.3409 187.75 64.3409C183.721 64.3409 179.692 64.3409 175.457 64.3409C175.87 63.6351 176.232 63.0669 176.611 62.4988Z" fill="#00215C"></path><path d="M28.2416 59.1589C28.0006 59.245 27.7595 59.4172 27.5013 59.4172C22.0265 59.4344 16.569 59.4344 11.0942 59.4172C10.836 59.4172 10.5778 59.2278 10.3023 59.1245C14.0382 59.1417 17.7913 59.1589 21.5273 59.1589C23.7826 59.1589 26.0207 59.1589 28.2416 59.1589Z" fill="#00215C"></path><path d="M241.034 34.4363C241.017 34.0576 241 33.6788 240.965 33.3001C240.931 32.6286 240.862 31.9572 240.862 31.2858C240.845 26.8784 240.862 22.4883 240.862 18.0809C240.862 17.8227 240.827 17.5472 240.896 17.3062C241.154 16.3765 241.172 16.3765 240.173 16.3765C239.485 16.3765 238.796 16.3765 238.124 16.3765C238.056 16.6348 237.987 16.8586 237.918 17.0652C237.711 16.7897 237.522 16.5142 237.264 16.1699C238.848 16.1699 240.363 16.1699 241.998 16.1699C240.948 17.289 241.051 18.6491 241.051 19.9919C241.051 23.8139 241.017 27.6187 241.086 31.4407C241.103 32.422 241.464 33.4034 241.671 34.4363C241.602 34.4363 241.309 34.4363 241.034 34.4363Z" fill="#00215C"></path><path d="M63.38 59.1934C63.1045 59.2794 62.8118 59.4172 62.5364 59.4172C57.1821 59.4344 51.8451 59.4344 46.4908 59.4172C46.2154 59.4172 45.9227 59.2794 45.6472 59.2106C48.1092 59.1934 50.5539 59.1589 53.0158 59.1589C56.459 59.1589 59.9195 59.1761 63.38 59.1934Z" fill="#00215C"></path><path d="M237.97 17.2375C238.125 17.5991 238.435 17.9606 238.435 18.3222C238.469 23.0566 238.469 27.8083 238.435 32.5428C238.435 32.8871 238.073 33.2314 237.884 33.5757C238.004 32.6461 238.211 31.7164 238.211 30.7867C238.245 26.9819 238.228 23.1771 238.211 19.3551C238.176 18.6665 238.039 17.9606 237.97 17.2375Z" fill="#00215C"></path><path d="M144.572 32.0434C144.469 31.8023 144.279 31.5785 144.279 31.3375C144.262 26.5858 144.262 21.8341 144.279 17.0652C144.279 16.8242 144.469 16.6004 144.572 16.3594C144.572 21.6103 144.572 26.8268 144.572 32.0434Z" fill="#00215C"></path><path d="M151.51 34.4366C151.561 34.1267 151.665 33.834 151.63 33.5242C151.579 32.9732 151.355 32.4223 151.355 31.8542C151.32 28.256 151.337 24.6406 151.337 21.0424C151.337 20.6636 151.424 20.3021 151.682 19.9233C151.733 20.0611 151.785 20.1988 151.837 20.3537C151.733 20.5087 151.561 20.6636 151.561 20.8186C151.544 24.4856 151.51 28.1355 151.596 31.8025C151.613 32.6633 151.992 33.5242 152.216 34.4194C152.095 34.4366 151.802 34.4366 151.51 34.4366Z" fill="#00215C"></path><path d="M107.419 18.2705C107.471 18.546 107.591 18.8042 107.591 19.0797C107.608 23.2632 107.608 27.4468 107.591 31.6131C107.591 31.8713 107.471 32.1468 107.402 32.405C107.35 32.405 107.316 32.3878 107.264 32.3878C107.281 27.7911 107.281 23.2116 107.298 18.6148C107.333 18.5115 107.385 18.391 107.419 18.2705Z" fill="#00215C"></path><path d="M37.0565 10.9192C36.454 10.9192 35.8514 10.9192 35.266 10.9192C31.4785 10.9192 27.6909 10.9192 23.9033 10.9192C23.8172 10.9192 23.7139 10.902 23.6279 10.902C23.8345 10.8331 24.0411 10.7126 24.2477 10.7126C28.2074 10.6954 32.1499 10.7126 36.1096 10.7126C39.9661 10.7126 43.8397 10.7126 47.6961 10.7126C48.1438 10.7126 48.6086 10.5748 49.0562 10.5921C49.3317 10.6093 49.6072 10.7814 49.8826 10.8675L49.8654 10.9192C49.5211 10.9192 49.1595 10.9192 48.8152 10.9192C44.8899 10.9192 40.9646 10.9192 37.0565 10.9192Z" fill="#021646"></path><path d="M251.88 31.9057C251.88 27.55 251.863 23.2115 251.88 18.8558C251.88 18.6147 252.104 18.3565 252.208 18.1155C252.19 22.5228 252.19 26.9474 252.173 31.3548C252.173 31.5269 252.173 31.6991 252.156 31.8712C252.087 31.8885 251.984 31.8885 251.88 31.9057Z" fill="#00215C"></path><path d="M153.214 48.0544C153.214 52.3757 153.214 56.697 153.197 61.0183C153.197 61.2937 153.025 61.552 152.938 61.8274C152.921 57.2307 152.921 52.6512 152.904 48.0544C153.025 48.0717 153.128 48.0717 153.214 48.0544Z" fill="#00215C"></path><path d="M52.3442 50.6369C51.9482 50.0515 51.4489 49.5178 51.1907 48.8808C50.3127 46.7288 49.5035 44.5424 48.6771 42.3559C48.1434 40.9442 47.6097 39.5496 47.0932 38.1379C47.0588 38.0346 47.1449 37.8625 47.1793 37.7419C48.2639 40.4793 49.3314 43.2339 50.4332 45.9713C51.053 47.5208 51.7072 49.0874 52.3442 50.6369Z" fill="#00215C"></path><path d="M130.11 63.687C130.265 63.8592 130.42 64.1691 130.575 64.1691C131.539 64.1519 132.486 64.083 133.467 64.0313C133.192 61.8449 134.345 60.0544 134.965 58.109C135.103 57.6613 135.43 57.2826 135.688 56.8694C135.068 58.6254 134.431 60.3643 133.811 62.1203C133.501 62.9984 133.605 63.7559 134.827 64.2896C132.847 64.2896 131.126 64.2896 129.215 64.2896C129.593 64.0141 129.852 63.842 130.11 63.687Z" fill="#00215C"></path><path d="M56.1833 32.0261C55.9078 31.6129 55.5463 31.2513 55.3569 30.8037C54.806 29.4953 54.3067 28.1524 53.8074 26.8268C53.1704 25.174 52.5507 23.5385 51.9481 21.8685C51.8448 21.5758 51.8104 21.1798 52.3785 21.3692C52.6884 22.3161 52.9811 23.263 53.3082 24.1927C54.2379 26.8268 55.2192 29.4264 56.1833 32.0261Z" fill="#00215C"></path><path d="M162.683 33.9543C163.268 34.1609 163.854 34.3503 164.542 34.5913C164.56 34.2642 164.594 33.9715 164.594 33.6789C164.594 28.7722 164.594 23.8484 164.611 18.9418C164.611 18.6147 164.697 18.2876 164.749 17.9604C164.766 19.4755 164.818 20.9905 164.818 22.5055C164.835 26.3447 164.818 30.1668 164.818 34.006C164.818 34.2814 164.818 34.5569 164.818 35.1767C163.957 34.6774 163.32 34.3159 162.683 33.9543Z" fill="#00215C"></path><path d="M261.143 25.5183C261.315 25.7077 261.642 25.8971 261.642 26.0864C261.659 28.3418 261.642 30.5971 261.59 32.8524C261.59 33.2312 261.367 33.5927 261.229 34.0059C261.418 34.1264 261.625 34.2814 261.831 34.4191C261.418 34.4191 261.005 34.4191 260.471 34.4191C261.47 33.3517 261.453 32.0949 261.47 30.8381C261.47 29.5813 261.504 28.3246 261.453 27.0678C261.435 26.5513 261.246 26.0348 261.143 25.5183Z" fill="#00215C"></path><path d="M61.3483 45.7991C61.2106 45.6613 61.0212 45.558 60.9696 45.4031C60.2293 43.4749 59.5062 41.5639 58.8175 39.6184C58.5765 38.9298 58.4388 38.2239 58.2494 37.5181C59.2651 40.2899 60.2981 43.0445 61.3483 45.7991Z" fill="#00215C"></path><path d="M213.609 47.2627C213.729 47.5209 213.97 47.7964 213.97 48.0546C213.987 52.6686 213.987 57.2825 213.97 61.8965C213.97 62.1031 213.781 62.3097 213.695 62.5163C213.677 57.4375 213.643 52.3587 213.609 47.2627Z" fill="#00215C"></path><path d="M162.511 47.3829C162.339 47.3485 162.15 47.3829 162.012 47.2969C160.359 46.2122 158.483 46.1434 156.589 46.195C155.539 46.2122 154.489 46.2811 153.438 46.3672C153.129 46.4016 152.819 46.591 152.509 46.7115C152.354 46.5221 152.182 46.3327 151.837 45.9023C154.764 46.0229 157.467 46.0401 160.153 46.2811C160.979 46.3327 161.737 46.987 162.511 47.3829Z" fill="#00215C"></path><path d="M79.0292 16.3767C79.0809 16.3767 79.1497 16.3767 79.2014 16.3767C79.2186 19.9749 79.2358 23.5731 79.2358 27.1541C79.2358 28.7724 79.253 30.4079 79.2702 32.0263C79.1842 32.0263 79.1153 32.0263 79.0292 32.0263C79.0292 26.827 79.0292 21.6104 79.0292 16.3767Z" fill="#00215C"></path><path d="M110.363 34.4536C110.81 34.402 111.241 34.3159 111.688 34.3159C112.893 34.2987 114.081 34.2642 115.286 34.3159C116.199 34.3503 117.025 34.2987 117.559 33.4207C117.49 34.2298 117.129 34.5569 116.25 34.5225C114.288 34.4192 112.325 34.4708 110.363 34.4536Z" fill="#00215C"></path><path d="M172.806 32.732C172.703 32.491 172.513 32.2672 172.513 32.0261C172.496 27.6704 172.496 23.3147 172.513 18.959C172.513 18.7352 172.651 18.5114 172.737 18.2876C172.72 18.4425 172.703 18.5975 172.703 18.7524C172.703 18.8213 172.703 18.8902 172.703 18.959C172.703 23.1426 172.703 27.3261 172.703 31.5097C172.703 31.5785 172.703 31.6474 172.703 31.7163C172.703 31.8023 172.703 31.8884 172.703 31.9917C172.72 32.1122 172.737 32.25 172.754 32.3705C172.771 32.491 172.789 32.6115 172.806 32.732Z" fill="#00215C"></path><path d="M263.415 34.4193C263.743 34.2816 264.087 34.1438 264.483 33.9717C263.743 31.6131 264.207 29.0995 264.104 26.6204C264.087 26.3105 264.345 26.0006 264.466 25.6907C264.293 28.6174 263.777 31.5786 265.085 34.4193C264.586 34.4193 264.001 34.4193 263.415 34.4193Z" fill="#00215C"></path><path d="M152.905 62.3611C152.956 62.6021 153.025 62.8431 153.025 63.0669C153.008 63.3596 152.922 63.6523 152.836 64.0655C153.886 64.0655 154.816 64.0827 155.745 64.0483C155.917 64.0483 156.072 63.79 156.227 63.6523C156.365 63.8245 156.503 63.9966 156.727 64.2549C155.108 64.2549 153.593 64.2549 152.147 64.2549C152.405 63.6523 152.664 62.9981 152.905 62.3611Z" fill="#00215C"></path><path d="M215.881 62.8606C215.777 62.6712 215.571 62.4646 215.571 62.2753C215.554 58.4188 215.554 54.5452 215.571 50.6887C215.571 50.5166 215.691 50.3272 215.743 50.155C215.76 53.1679 215.743 56.1807 215.777 59.1935C215.76 60.3987 215.829 61.6383 215.881 62.8606Z" fill="#00215C"></path><path d="M113.961 18.0813C114.34 18.0985 114.753 18.0296 115.08 18.1674C115.631 18.3912 115.889 18.3223 115.889 17.6853C115.889 16.1703 115.889 16.3252 114.719 16.3597C114.512 16.3597 114.323 16.2219 114.116 16.1531C114.753 16.1531 115.407 16.1531 116.113 16.1531C116.113 17.0655 116.113 17.9608 116.113 18.8732C115.425 18.615 114.702 18.3395 113.961 18.0813Z" fill="#00215C"></path><path d="M236.024 57.5062C236.162 57.4029 236.3 57.1963 236.454 57.1963C238.383 57.179 240.311 57.179 242.239 57.1963C242.342 57.1963 242.463 57.334 242.566 57.4029C240.69 57.4201 238.83 57.4373 236.954 57.4545C236.644 57.4717 236.334 57.4889 236.024 57.5062Z" fill="#00215C"></path><path d="M128.474 16.0496C128.578 16.2562 128.767 16.4627 128.767 16.6693C128.784 20.3536 128.784 24.0379 128.767 27.7222C128.767 27.9115 128.664 28.0837 128.612 28.2731C128.612 27.9288 128.595 27.6016 128.595 27.2573C128.595 24.1928 128.595 21.1456 128.595 18.0811C128.56 17.3924 128.509 16.721 128.474 16.0496Z" fill="#00215C"></path><path d="M122.707 46.3501C120.968 46.3501 119.229 46.3329 117.491 46.3329C116.423 46.3329 115.356 46.3501 114.288 46.3329C114.168 46.3329 114.065 46.1435 113.961 46.0402C116.716 46.023 119.453 46.0058 122.208 46.023C122.38 46.0058 122.552 46.2296 122.707 46.3501Z" fill="#00215C"></path><path d="M155.745 59.9338C155.71 59.6239 155.641 59.314 155.641 59.0213C155.641 55.8535 155.641 52.6857 155.624 49.5179C155.624 49.1048 155.521 48.6743 155.486 48.2612C155.486 48.2095 155.676 48.1406 155.762 48.0718C155.762 52.0143 155.762 55.974 155.745 59.9338Z" fill="#00215C"></path><path d="M107.264 32.405C107.315 32.405 107.35 32.405 107.401 32.4222C107.298 32.9559 107.212 33.4897 107.074 34.1955C107.849 34.2816 108.744 34.3677 109.657 34.471C108.589 34.471 107.505 34.471 106.437 34.471C106.713 33.7651 106.988 33.0765 107.264 32.405Z" fill="#00215C"></path><path d="M90.2373 25.5873C90.4267 25.5013 90.6161 25.3463 90.8055 25.3463C93.6806 25.3291 96.5557 25.3291 99.4308 25.3291C99.4997 25.3291 99.5685 25.3635 99.6546 25.3808C99.603 25.4152 99.5341 25.4668 99.4824 25.5013C99.3275 25.5013 99.1725 25.5013 99.0176 25.5013C98.8282 25.5013 98.6388 25.5013 98.4495 25.5013C95.7121 25.5357 92.9747 25.5529 90.2373 25.5873Z" fill="#00215C"></path><path d="M121.174 53.7532C119.952 53.7532 118.747 53.7015 117.524 53.7532C116.75 53.7876 116.474 53.6154 116.474 52.8579C116.474 52.4964 116.423 52.1348 116.44 51.7733C116.457 51.6356 116.612 51.4978 116.698 51.3601C116.698 52.0143 116.698 52.6513 116.698 53.4088C118.058 53.4088 119.332 53.3916 120.606 53.4261C120.796 53.4088 120.985 53.6327 121.174 53.7532Z" fill="#00215C"></path><path d="M107.419 18.2704C107.385 18.391 107.333 18.5115 107.299 18.632C107.04 17.7884 106.782 16.962 106.524 16.084C106.989 16.1012 107.557 16.1356 108.142 16.1701C107.781 16.2734 107.436 16.3767 107.126 16.48C107.212 17.0481 107.316 17.6507 107.419 18.2704Z" fill="#00215C"></path><path d="M110.174 18.4254C110.398 17.599 111.155 17.9777 111.637 17.8917C112.274 17.7712 112.98 17.9777 113.651 18.0294C112.481 18.1671 111.327 18.3049 110.174 18.4254Z" fill="#00215C"></path><path d="M163.389 52.8922C163.406 52.72 163.389 52.5306 163.458 52.3929C163.957 51.4632 163.922 50.4991 163.664 49.5178C163.595 49.2595 163.613 48.9669 163.595 48.6914C164.353 50.1376 164.301 51.5321 163.389 52.8922Z" fill="#00215C"></path><path d="M116.698 48.7431C116.32 48.2783 116.371 47.9684 117.008 47.8823C117.766 47.779 118.523 47.6413 119.281 47.5724C119.453 47.5552 119.625 47.7445 119.815 47.8478C119.005 47.9339 118.179 48.0028 117.37 48.0889C116.991 48.1233 116.647 48.2438 116.698 48.7431Z" fill="#00215C"></path><path d="M52.9982 53.8047C53.3598 53.753 53.7385 53.7014 54.1001 53.6153C54.3411 53.5637 54.5649 53.4259 54.8059 53.3398C55.1675 53.4776 55.5462 53.6325 55.9939 53.8047C54.9437 53.8047 53.9796 53.8047 52.9982 53.8047Z" fill="#00215C"></path><path d="M151.837 20.3535C152.87 20.7495 153.352 21.5587 153.576 22.5916C152.991 21.8513 152.405 21.0938 151.837 20.3535Z" fill="#00215C"></path><path d="M161.736 28.5142C160.686 27.9977 160.083 27.1197 159.773 26.0178C160.428 26.8442 161.082 27.6706 161.736 28.5142Z" fill="#00215C"></path><path d="M132.227 59.7788C132.072 61.0356 131.797 62.2407 130.661 63.0327C131.177 61.9481 131.694 60.8634 132.227 59.7788Z" fill="#00215C"></path><path d="M120.176 47.8652C120.555 47.8652 120.933 47.8136 121.295 47.848C121.76 47.8825 122.242 47.9857 122.707 48.0546C122.707 48.2784 122.707 48.5022 122.707 48.64C121.863 48.3817 121.019 48.1235 120.176 47.8652Z" fill="#00215C"></path><path d="M159.791 26.0177C158.964 25.4667 158.207 24.8642 158.052 23.7795C158.637 24.5198 159.205 25.2601 159.791 26.0177Z" fill="#00215C"></path><path d="M252.741 18.0812C253.843 18.0467 254.945 17.9779 256.047 18.0123C256.322 18.0295 256.58 18.4255 256.838 18.6493C255.857 18.0123 254.755 18.1156 253.671 18.1156C253.361 18.0984 253.051 18.0812 252.741 18.0812Z" fill="#00215C"></path><path d="M251.881 31.9058C251.984 31.8886 252.07 31.8886 252.173 31.8713C252.414 32.7149 252.656 33.5585 252.897 34.4366C252.828 34.4366 252.604 34.4366 252.38 34.4366C252.225 33.593 252.053 32.7494 251.881 31.9058Z" fill="#00215C"></path><path d="M110.139 21.3866C109.743 20.8356 109.743 19.1657 110.139 18.6147C110.139 19.5444 110.139 20.4569 110.139 21.3866Z" fill="#00215C"></path><path d="M57.1988 34.7981C56.2864 34.23 56.2692 33.3175 56.3036 32.405C56.6135 33.197 56.9062 33.9889 57.1988 34.7981Z" fill="#00215C"></path><path d="M188.37 18.2876C188.524 19.3378 188.283 20.2675 187.543 21.0422C187.819 20.1297 188.094 19.2001 188.37 18.2876Z" fill="#00215C"></path><path d="M120.176 55.4402C120.641 55.268 120.951 54.9925 120.882 54.4244C120.865 54.3211 121.071 54.2006 121.174 54.0801C121.174 54.6654 121.174 55.2508 121.174 55.8878C120.813 55.7328 120.503 55.5951 120.176 55.4402Z" fill="#00215C"></path><path d="M50.2442 11.2634C50.3131 11.2806 50.4336 11.2806 50.4336 11.2979C50.4336 12.8645 50.4336 14.414 50.4336 15.9807C50.4336 15.9979 50.3992 16.0323 50.382 16.0323C50.3303 16.0323 50.2787 16.0151 50.227 15.9979C50.2442 14.414 50.2442 12.8473 50.2442 11.2634Z" fill="#00215C"></path><path d="M262.95 23.5558C262.451 22.695 261.952 21.8342 261.452 20.9734C261.952 21.8342 262.451 22.695 262.95 23.5558Z" fill="#00215C"></path><path d="M58.2325 37.5354C57.6299 36.8467 57.2167 36.1064 57.3372 35.1423C57.6299 35.9515 57.9398 36.7434 58.2325 37.5354Z" fill="#00215C"></path><path d="M90.1853 29.2888C90.082 29.065 89.8754 28.8239 89.8926 28.6173C89.9615 27.7565 90.082 26.8957 90.1853 26.0349C90.1853 27.1195 90.1853 28.2042 90.1853 29.2888Z" fill="#00215C"></path><path d="M62.3812 48.5537C62.0713 47.7618 61.7786 46.9526 61.4688 46.1606C61.7786 46.9698 62.0713 47.7618 62.3812 48.5537Z" fill="#00215C"></path><path d="M113.617 46.0232C113.686 46.643 113.755 47.2628 113.841 47.8825C113.6 47.2628 113.342 46.6602 113.083 46.0232C113.204 46.0232 113.41 46.0232 113.617 46.0232Z" fill="#00215C"></path><path d="M155.9 25.5874C156.709 25.7768 156.985 26.3966 157.105 27.1196C156.709 26.6204 156.296 26.1039 155.9 25.5874Z" fill="#00215C"></path><path d="M54.8066 53.3399C53.9113 53.3227 53.567 52.6513 53.2743 51.9626C53.7736 52.4103 54.2901 52.8751 54.8066 53.3399Z" fill="#00215C"></path><path d="M257.768 20.0093C258.388 20.4569 258.956 20.9217 258.87 21.7825C258.508 21.1972 258.13 20.5946 257.768 20.0093Z" fill="#00215C"></path><path d="M156.244 63.6353C156.072 63.4804 155.745 63.3426 155.728 63.1705C155.676 62.6195 155.745 62.0686 155.762 61.5005C155.917 62.2064 156.072 62.9294 156.244 63.6353Z" fill="#00215C"></path><path d="M160.118 55.2855C160.325 55.0961 160.514 54.8551 160.755 54.7173C161.031 54.5624 161.375 54.528 161.685 54.4419C161.151 54.7346 160.635 55.01 160.118 55.2855Z" fill="#00215C"></path><path d="M162.356 53.9771C162.701 53.6155 163.045 53.254 163.389 52.8752C163.045 53.254 162.701 53.6155 162.356 53.9771Z" fill="#00215C"></path><path d="M53.2565 51.9454C52.9466 51.515 52.6367 51.0674 52.3268 50.637C52.654 51.0674 52.9466 51.515 53.2565 51.9454Z" fill="#00215C"></path><path d="M256.839 18.6318C257.562 18.7351 257.7 19.2688 257.7 19.8714C257.424 19.4582 257.132 19.045 256.839 18.6318Z" fill="#00215C"></path><path d="M156.571 21.8686C156.261 21.4726 155.952 21.0766 155.642 20.6807C155.952 21.0766 156.261 21.4726 156.571 21.8686Z" fill="#00215C"></path><path d="M163.612 48.7089C163.182 48.4679 162.666 48.2957 162.803 47.6243C163.079 47.9858 163.354 48.3473 163.612 48.7089Z" fill="#00215C"></path><path d="M154.144 18.7353C153.886 18.4082 153.645 18.0983 153.387 17.7712C153.645 18.0983 153.886 18.4082 154.144 18.7353Z" fill="#00215C"></path><path d="M153.214 48.0545C153.111 48.0545 153.025 48.0545 152.921 48.0545C152.853 47.7101 152.766 47.3658 152.698 47.0215C152.87 47.383 153.042 47.7273 153.214 48.0545Z" fill="#00215C"></path><path d="M259.697 23.1943C259.869 23.4698 260.041 23.7625 260.213 24.0379C260.041 23.7453 259.869 23.4698 259.697 23.1943Z" fill="#00215C"></path><path d="M153.559 22.5918C153.748 22.85 153.937 23.0911 154.127 23.3493C153.937 23.0911 153.748 22.8328 153.559 22.5918Z" fill="#00215C"></path><path d="M154.694 24.0378C154.866 24.2617 155.038 24.4855 155.228 24.7093C155.038 24.4855 154.866 24.2617 154.694 24.0378Z" fill="#00215C"></path><path d="M152.784 16.9793C152.611 16.7555 152.439 16.5317 152.267 16.3079C152.439 16.5317 152.611 16.7555 152.784 16.9793Z" fill="#00215C"></path><path d="M110.139 22.4195C109.708 22.1785 109.708 21.9547 110.139 21.7136C110.139 21.9547 110.139 22.1785 110.139 22.4195Z" fill="#00215C"></path><path d="M79.5976 33.4034C79.4599 33.1279 79.3222 32.8525 79.1844 32.5598C79.2361 32.5598 79.2877 32.5598 79.3394 32.5598C79.4255 32.8525 79.5116 33.1279 79.5976 33.4034Z" fill="#00215C"></path><path d="M155.642 20.6808C155.195 20.7152 155.04 20.5259 155.212 20.0955C155.349 20.3021 155.504 20.4914 155.642 20.6808Z" fill="#00215C"></path><path d="M160.875 31.9746C161.047 32.1984 161.237 32.405 161.409 32.6288C161.237 32.405 161.065 32.1984 160.875 31.9746Z" fill="#00215C"></path><path d="M154.178 23.3838C154.35 23.5904 154.522 23.8142 154.695 24.0208C154.522 23.8142 154.35 23.6076 154.178 23.3838Z" fill="#00215C"></path><path d="M122.707 47.5382C122.104 47.2627 122.586 46.97 122.707 46.6946C122.707 46.97 122.707 47.2627 122.707 47.5382Z" fill="#00215C"></path><path d="M155.452 25.002C155.59 25.1913 155.745 25.3979 155.882 25.5873C155.745 25.3807 155.59 25.1913 155.452 25.002Z" fill="#00215C"></path><path d="M153.248 17.5817C153.093 17.3923 152.956 17.1857 152.801 16.9963C152.956 17.1857 153.093 17.3923 153.248 17.5817Z" fill="#00215C"></path><path d="M162.201 29.1166C162.063 28.9272 161.908 28.7378 161.771 28.5312C161.908 28.7206 162.046 28.9272 162.201 29.1166Z" fill="#00215C"></path><path d="M160.428 31.3721C160.566 31.5614 160.721 31.7508 160.858 31.9574C160.721 31.768 160.583 31.5614 160.428 31.3721Z" fill="#00215C"></path><path d="M110.139 23.2805C109.761 23.1084 109.743 22.919 110.139 22.7468C110.139 22.919 110.139 23.1084 110.139 23.2805Z" fill="#00215C"></path><path d="M161.926 33.2141C162.064 33.3518 162.201 33.4896 162.339 33.6273C162.201 33.4896 162.064 33.3518 161.926 33.2141Z" fill="#00215C"></path><path d="M264.809 25.1914C264.93 25.0193 265.033 24.8299 265.154 24.6577C265.033 24.8471 264.913 25.0193 264.809 25.1914Z" fill="#00215C"></path><path d="M258.852 21.7651C258.99 21.9889 259.128 22.2128 259.266 22.4366C259.128 22.2128 258.99 21.9889 258.852 21.7651Z" fill="#00215C"></path><path d="M157.777 28.0149C157.932 28.2043 158.069 28.3764 158.224 28.5658C158.087 28.3764 157.932 28.2043 157.777 28.0149Z" fill="#00215C"></path><path d="M79.3395 32.5773C79.2878 32.5773 79.2362 32.5773 79.1846 32.5773C79.1329 32.4051 79.064 32.233 79.0124 32.0608C79.0985 32.0608 79.1673 32.0608 79.2534 32.0608C79.2878 32.2157 79.3051 32.3879 79.3395 32.5773Z" fill="#00215C"></path><path d="M130.661 63.0325C130.54 63.1874 130.403 63.3596 130.282 63.5145C130.403 63.3596 130.54 63.1874 130.661 63.0325Z" fill="#00215C"></path><path d="M259.353 22.6089C259.473 22.7983 259.576 22.9876 259.697 23.177C259.576 22.9876 259.473 22.7983 259.353 22.6089Z" fill="#00215C"></path><path d="M260.627 24.6748C260.747 24.8642 260.85 25.0363 260.971 25.2257C260.85 25.0363 260.73 24.847 260.627 24.6748Z" fill="#00215C"></path><path d="M264.465 25.7251C264.586 25.5529 264.706 25.3636 264.81 25.1914C264.706 25.3636 264.586 25.5357 264.465 25.7251Z" fill="#00215C"></path><path d="M265.395 24.3821C265.516 24.1927 265.619 24.0033 265.74 23.814C265.636 24.0033 265.516 24.1927 265.395 24.3821Z" fill="#00215C"></path><path d="M159.756 30.5112C159.86 30.649 159.963 30.7695 160.066 30.9072C159.963 30.7695 159.86 30.6317 159.756 30.5112Z" fill="#00215C"></path><path d="M158.465 28.8928C158.603 29.0478 158.723 29.2027 158.861 29.3577C158.74 29.2027 158.603 29.0478 158.465 28.8928Z" fill="#00215C"></path><path d="M157.38 22.9189C157.277 22.7812 157.174 22.6607 157.088 22.5229C157.174 22.6435 157.277 22.7812 157.38 22.9189Z" fill="#00215C"></path><path d="M178.074 60.0371C177.988 60.1748 177.919 60.3126 177.833 60.4503C177.919 60.3126 177.988 60.1748 178.074 60.0371Z" fill="#00215C"></path><path d="M154.436 19.1313C154.333 18.9936 154.247 18.8731 154.144 18.7354C154.247 18.8731 154.333 18.9936 154.436 19.1313Z" fill="#00215C"></path><path d="M158.052 23.7798C157.949 23.642 157.846 23.5215 157.742 23.3838C157.863 23.5215 157.949 23.642 158.052 23.7798Z" fill="#00215C"></path><path d="M155.194 20.0956C155.056 19.9406 154.936 19.7685 154.798 19.6135C154.936 19.7685 155.074 19.9234 155.194 20.0956Z" fill="#00215C"></path><path d="M157.329 27.4124C157.432 27.5501 157.535 27.6706 157.638 27.8083C157.535 27.6706 157.432 27.5501 157.329 27.4124Z" fill="#00215C"></path><path d="M177.248 61.4143C177.127 61.6037 177.007 61.7931 176.886 61.9824C177.007 61.7931 177.127 61.6037 177.248 61.4143Z" fill="#00215C"></path><path d="M159.223 29.8225C159.326 29.9602 159.429 30.0808 159.515 30.2185C159.429 30.0808 159.326 29.9602 159.223 29.8225Z" fill="#00215C"></path><path d="M23.6279 10.9019C23.7139 10.9019 23.8172 10.9191 23.9033 10.9191C23.8172 10.9191 23.7484 10.9363 23.6623 10.9363L23.6279 10.9019Z" fill="#BA2F53"></path><path d="M162.493 29.4781C162.39 29.3576 162.287 29.2371 162.184 29.0994C162.287 29.2199 162.39 29.3576 162.493 29.4781Z" fill="#00215C"></path><path d="M178.349 59.5896C178.263 59.7273 178.16 59.8651 178.074 60.02C178.177 59.8651 178.263 59.7273 178.349 59.5896Z" fill="#00215C"></path><path d="M164.766 17.7885C164.852 17.6163 164.955 17.4441 165.041 17.272C164.955 17.4441 164.852 17.6163 164.766 17.7885Z" fill="#00215C"></path><path d="M225.539 62.344C225.643 62.4645 225.746 62.6022 225.866 62.7227C225.746 62.6022 225.643 62.4817 225.539 62.344Z" fill="#00215C"></path><path d="M172.754 32.3705C172.737 32.2499 172.72 32.1122 172.703 31.9917C172.72 32.1294 172.737 32.2499 172.754 32.3705Z" fill="#00215C"></path><path d="M159.515 30.2185C159.601 30.3218 159.67 30.4079 159.756 30.5112C159.687 30.4079 159.601 30.3046 159.515 30.2185Z" fill="#00215C"></path><path d="M176.8 62.1548C176.731 62.2753 176.662 62.3958 176.594 62.4991C176.662 62.3958 176.731 62.2753 176.8 62.1548Z" fill="#00215C"></path><path d="M260.213 24.0378C260.282 24.1411 260.351 24.2444 260.419 24.365C260.351 24.2617 260.282 24.1411 260.213 24.0378Z" fill="#00215C"></path><path d="M158.999 29.5298C159.085 29.6331 159.154 29.7364 159.24 29.8225C159.154 29.7364 159.085 29.6331 158.999 29.5298Z" fill="#00215C"></path><path d="M160.204 31.0967C160.29 31.2 160.359 31.2861 160.445 31.3894C160.359 31.2861 160.273 31.1828 160.204 31.0967Z" fill="#00215C"></path><path d="M260.403 24.3479C260.471 24.4684 260.54 24.5717 260.626 24.6922C260.557 24.5717 260.489 24.4512 260.403 24.3479Z" fill="#00215C"></path><path d="M158.258 28.6001C158.327 28.6862 158.396 28.7723 158.465 28.8583C158.379 28.7723 158.31 28.6862 158.258 28.6001Z" fill="#00215C"></path><path d="M177.454 61.1045C177.385 61.2078 177.317 61.3283 177.23 61.4316C177.299 61.3111 177.385 61.2078 177.454 61.1045Z" fill="#00215C"></path><path d="M177.644 60.7773C177.575 60.8979 177.507 61.0012 177.438 61.1217C177.507 61.0012 177.575 60.8806 177.644 60.7773Z" fill="#00215C"></path><path d="M18.7899 5.77148C18.6694 5.80592 18.5316 5.84035 18.4111 5.85757C18.5316 5.84035 18.6521 5.80592 18.7899 5.77148Z" fill="#5F708A"></path><path d="M157.105 27.1196C157.191 27.2229 157.26 27.309 157.346 27.4123C157.26 27.3262 157.191 27.2229 157.105 27.1196Z" fill="#00215C"></path><path d="M161.856 54.3212C161.977 54.2524 162.08 54.1663 162.201 54.0974C162.08 54.1663 161.977 54.2351 161.856 54.3212Z" fill="#00215C"></path><path d="M265.137 24.6749C265.223 24.5888 265.309 24.4855 265.395 24.3994C265.309 24.4855 265.223 24.5716 265.137 24.6749Z" fill="#00215C"></path><path d="M162.786 47.5897C162.7 47.5208 162.614 47.4519 162.528 47.3831C162.597 47.4519 162.7 47.5208 162.786 47.5897Z" fill="#00215C"></path><path d="M177.833 60.4502C177.764 60.5707 177.695 60.674 177.627 60.7945C177.695 60.674 177.764 60.5707 177.833 60.4502Z" fill="#00215C"></path><path d="M155.211 24.7092C155.297 24.8125 155.366 24.8986 155.452 25.0019C155.366 24.8986 155.297 24.8125 155.211 24.7092Z" fill="#00215C"></path><path d="M157.088 22.5229C157.002 22.4196 156.933 22.3163 156.847 22.2302C156.933 22.3163 157.002 22.4196 157.088 22.5229Z" fill="#00215C"></path><path d="M260.936 25.1914C261.005 25.3119 261.074 25.4152 261.143 25.5357C261.074 25.4152 261.005 25.3119 260.936 25.1914Z" fill="#00215C"></path><path d="M154.678 19.424C154.591 19.3207 154.523 19.2346 154.436 19.1313C154.523 19.2174 154.591 19.3207 154.678 19.424Z" fill="#00215C"></path><path d="M157.604 23.1943C157.518 23.091 157.449 23.0049 157.363 22.9016C157.449 23.0049 157.535 23.091 157.604 23.1943Z" fill="#00215C"></path><path d="M161.753 33.0249C161.788 33.0593 161.822 33.111 161.856 33.1454C161.805 33.1282 161.77 33.0938 161.753 33.0249Z" fill="#00215C"></path><path d="M161.581 32.8354C161.633 32.8871 161.667 32.9387 161.719 32.9904C161.667 32.9387 161.633 32.8871 161.581 32.8354Z" fill="#00215C"></path><path d="M70.3179 17.0138C70.2491 17.0138 70.1802 17.0138 70.1113 17.0138C70.1458 16.9794 70.1802 16.9277 70.2146 16.8933C70.2491 16.9105 70.2835 16.9622 70.3179 17.0138Z" fill="#00215C"></path><path d="M49.8653 10.92L49.8828 10.8677L49.8653 10.92Z" fill="#BA2F53"></path><path d="M263.071 23.7797C263.037 23.7109 262.985 23.642 262.95 23.5559C263.002 23.6248 263.037 23.7109 263.071 23.7797Z" fill="#00215C"></path><path d="M156.847 22.2302C156.795 22.1613 156.744 22.0924 156.675 22.0063C156.744 22.0924 156.795 22.1613 156.847 22.2302Z" fill="#00215C"></path><path d="M161.667 54.4418C161.736 54.3902 161.805 54.3385 161.891 54.2869C161.805 54.3385 161.736 54.3902 161.667 54.4418Z" fill="#00215C"></path><path d="M157.638 27.8083C157.69 27.8772 157.724 27.9289 157.776 27.9977C157.724 27.9289 157.673 27.86 157.638 27.8083Z" fill="#00215C"></path><path d="M161.426 32.6287C161.477 32.6975 161.529 32.7492 161.581 32.818C161.512 32.7492 161.477 32.6975 161.426 32.6287Z" fill="#00215C"></path><path d="M154.815 19.6133C154.763 19.5445 154.711 19.4756 154.66 19.4067C154.711 19.4756 154.763 19.5445 154.815 19.6133Z" fill="#00215C"></path><path d="M158.843 29.3406C158.895 29.4094 158.947 29.4783 158.998 29.5472C158.947 29.4783 158.895 29.4094 158.843 29.3406Z" fill="#00215C"></path><path d="M162.614 29.6332C162.563 29.5988 162.528 29.5643 162.511 29.5127C162.545 29.5471 162.58 29.5988 162.614 29.6332Z" fill="#00215C"></path><path d="M160.049 30.8899C160.1 30.9588 160.152 31.0276 160.186 31.0965C160.152 31.0276 160.1 30.9588 160.049 30.8899Z" fill="#00215C"></path><path d="M118.196 31.0793C118.265 31.0793 118.334 31.0966 118.403 31.0966C118.368 31.131 118.334 31.1826 118.299 31.2171C118.265 31.1654 118.231 31.131 118.196 31.0793Z" fill="#00215C"></path><path d="M157.759 23.4008C157.707 23.3319 157.655 23.2631 157.604 23.2114C157.655 23.2631 157.707 23.3319 157.759 23.4008Z" fill="#00215C"></path><path d="M172.685 31.7334C172.685 31.6646 172.685 31.5957 172.685 31.5269C172.702 31.5785 172.72 31.6302 172.737 31.6646C172.737 31.6818 172.702 31.7162 172.685 31.7334Z" fill="#00215C"></path><path d="M130.282 63.5146C130.213 63.5835 130.161 63.6352 130.092 63.704C130.161 63.6352 130.23 63.5663 130.282 63.5146Z" fill="#00215C"></path><path d="M162.321 33.6101C162.39 33.679 162.442 33.7306 162.511 33.7995C162.442 33.7306 162.39 33.679 162.321 33.6101Z" fill="#00215C"></path><path d="M31.8399 39.1539C34.8872 39.1539 37.9172 39.1367 40.9645 39.1367C41.3088 39.1367 41.6532 39.1023 41.9975 39.1023C41.7909 39.2228 41.5671 39.4294 41.3605 39.4294C38.3993 39.4466 35.4381 39.4466 32.4769 39.4294C32.2531 39.4294 32.0465 39.24 31.8399 39.1539Z" fill="#00215C"></path><path d="M33.8367 33.6963C33.3202 35.0047 32.8037 36.3132 32.2873 37.6216C32.5455 36.2099 32.821 34.7981 33.8367 33.6963Z" fill="#00215C"></path><path d="M34.4563 32.0608C34.2497 32.5945 34.0431 33.111 33.8365 33.6447C34.0431 33.1282 34.2497 32.5945 34.4563 32.0608Z" fill="#00215C"></path><path d="M32.2702 37.6387C32.1152 38.1379 31.9603 38.6372 31.7881 39.1365C31.4438 38.4651 31.857 38.0519 32.2702 37.6387Z" fill="#00215C"></path><path d="M254.393 61.9482C254.6 62.2925 254.824 62.6196 255.03 62.9639C254.961 63.0328 254.91 63.0844 254.841 63.1533C254.411 62.6712 253.98 62.2064 253.55 61.7244C253.481 61.776 253.412 61.8276 253.343 61.8621C253.309 62.2753 253.274 62.6712 253.24 63.0844C253.137 63.0844 253.033 63.1017 252.93 63.1017C252.723 62.1548 252.93 61.1734 252.827 60.106C253.619 60.2093 254.497 59.7273 254.961 60.5881C255.134 60.898 254.772 61.4833 254.652 61.931C254.565 61.931 254.479 61.9309 254.393 61.9482ZM253.326 60.3471C253.326 60.8291 253.326 61.0701 253.326 61.5178C253.791 61.3628 254.17 61.2595 254.531 61.1046C254.583 61.0874 254.583 60.743 254.531 60.7258C254.17 60.5881 253.791 60.4848 253.326 60.3471Z" fill="#00215C"></path></g><defs><clipPath id="clip0_1300_6381"><rect width="265.526" height="59" fill="white" transform="translate(5 5.77148)"></rect></clipPath></defs></svg>