<svg xmlns="http://www.w3.org/2000/svg" width="280" height="68" viewBox="0 0 280 68" fill="none"><path d="M70.5421 43.0124C63.1239 43.0124 62.0509 37.3672 62.0509 28.6893V28.2228H81.1328C81.1328 20.5247 76.8405 15.2061 68.8625 15.2061C60.138 15.2061 55.4725 21.9244 55.4725 29.9957C55.4725 38.3936 59.9048 44.7853 68.8159 44.7853C74.3678 44.7853 78.8467 42.6858 81.1794 36.574L79.8264 36.1541C78.1935 39.9798 75.4875 43.0124 70.5421 43.0124ZM62.0975 25.1436C62.4241 20.8513 63.9637 16.699 68.4893 16.699C73.2947 16.699 74.3678 20.4314 74.4611 24.4437C74.4611 24.817 74.4611 26.0767 74.4611 26.4499H62.0509C62.0509 26.03 62.0509 25.5168 62.0975 25.1436Z" fill="#00215C"></path><path d="M87.0579 59.808C85.0518 59.1548 84.3986 58.7815 84.3986 57.7551C84.3986 56.8687 85.1917 56.2155 86.4514 56.2155C87.6645 56.2155 88.5042 56.7287 88.9708 57.9418L89.7639 57.5685C89.2974 56.3088 88.271 55.3757 86.4981 55.3757C84.7719 55.3757 83.5588 56.4488 83.5588 57.8018C83.5588 59.3881 84.5852 59.9479 86.638 60.5544C88.6442 61.2076 89.1574 61.7208 89.1574 62.7006C89.1574 63.7736 88.2243 64.4268 86.778 64.4268C85.425 64.4268 84.4919 63.727 84.0254 62.4206L83.2322 62.7006C83.6988 64.2402 84.9585 65.2199 86.7314 65.2199C88.6442 65.2199 90.0439 64.1935 90.0439 62.6073C90.0439 61.1143 89.0641 60.4611 87.0579 59.808Z" fill="#00215C"></path><path d="M78.1005 58.1288C78.1005 56.4492 76.9341 55.5627 74.788 55.5627H71.6154V65.0804H72.5019V60.7881H74.8813L77.214 65.0804H78.2404L75.8144 60.6948C77.1674 60.4149 78.1005 59.6684 78.1005 58.1288ZM74.6946 59.995H72.4552V56.4025H74.648C76.2343 56.4025 77.1207 56.8691 77.1207 58.1754C77.1674 59.5284 76.2809 59.995 74.6946 59.995Z" fill="#00215C"></path><path d="M60.5115 4.10204V2.70239H48.8011V4.10204H53.9798L52.6268 8.81418L44.5088 33.6346H44.4155L35.3178 8.67422L33.7315 4.10204H39.5634V2.70239H21.5546V4.10204H26.5467L29.4859 12.0334L22.0211 33.588H21.8812L12.8768 8.76754L11.3372 4.10204H16.5159V2.70239H0V4.10204H4.01233L6.1118 9.70064L18.9886 44.7385H20.1549C20.1549 44.7385 28.0396 22.1575 30.559 14.8793L41.6629 44.7385H42.8759L54.493 9.28073L56.3125 4.10204H60.5115Z" fill="#00215C"></path><path d="M18.6154 61.7212C18.6154 63.3075 17.8222 64.4272 16.0494 64.4272C14.2765 64.4272 13.4833 63.2608 13.4833 61.7212V55.5627H12.5502V61.8612C12.5502 63.774 13.67 65.267 16.0027 65.267C18.3354 65.267 19.5018 63.7274 19.5018 61.8612V55.5627H18.5687V61.7212H18.6154Z" fill="#00215C"></path><path d="M96.6221 43.1984C90.9769 43.1984 87.711 39.5593 86.4513 34.1474H85.0517L86.9179 44.4581C87.5244 43.7583 88.3175 43.4784 89.1107 43.4784C90.7436 43.4784 92.7964 44.738 96.4355 44.738C102.314 44.738 106.746 41.4722 106.746 35.9202C106.746 24.8164 90.7903 27.7556 90.7903 20.5708C90.7903 18.2847 92.4232 16.6051 95.3624 16.6051C100.028 16.6051 102.641 19.9176 103.76 23.79H105.16L103.574 14.9722C103.061 15.5787 102.314 15.9053 101.474 15.9053C99.5147 15.9053 98.3484 15.1121 95.3624 15.1121C90.2771 15.1121 86.358 17.8648 86.358 22.8569C86.358 33.1209 102.081 30.9282 102.081 38.253C102.081 41.6122 99.6547 43.1984 96.6221 43.1984Z" fill="#00215C"></path><path d="M32.3319 63.3998L27.0599 55.5151H26.0801V65.0794H26.9199V56.9614H26.9666L32.3786 65.0794H33.2183V55.5151H32.3319V63.3998Z" fill="#00215C"></path><path d="M41.243 55.5151H40.3099V65.0327H41.243V55.5151Z" fill="#00215C"></path><path d="M50.7606 63.8664H50.7139L47.868 55.5151H46.9349L50.294 65.0794H51.1338L54.493 55.5151H53.6065L50.7606 63.8664Z" fill="#00215C"></path><path d="M60.9314 60.4606H64.5238V59.6208H60.9314V56.4016H65.7368V55.5151H60.0449V65.0794H66.0168V64.2396H60.9314V60.4606Z" fill="#00215C"></path><path d="M96.7623 55.5151H95.8292V65.0327H96.7623V55.5151Z" fill="#00215C"></path><path d="M183.354 55.5151L179.808 65.0794H180.695L181.768 62.1401H185.967L187.04 65.0794H188.019L184.474 55.5151H183.354ZM182.048 61.3004L183.82 56.4482H183.867L185.64 61.3004H182.048Z" fill="#00215C"></path><path d="M101.708 56.4016H104.787V65.0794H105.72V56.4016H108.799V55.5151H101.708V56.4016Z" fill="#00215C"></path><path d="M181.675 19.125C181.675 16.8389 179.995 15.1127 176.869 15.1127C172.204 15.1127 169.871 19.3116 168.658 22.6241H168.565V14.8794C167.631 15.6259 166.698 16.3724 164.226 16.3724C162.406 16.3724 157.787 16.3724 157.787 16.3724V17.8187H162.733V42.6858H157.787V44.1321H173.37V42.6858H168.565V30.4155C168.565 23.8838 171.784 16.8389 175.889 16.8389C176.216 16.8389 176.403 16.8856 176.589 16.9322C175.889 17.4921 175.423 18.3785 175.423 19.3583C175.423 21.1778 176.823 22.4375 178.502 22.4375C180.368 22.4375 181.675 20.8979 181.675 19.125Z" fill="#00215C"></path><path d="M196.604 55.5151H194.178V65.0327H196.604C199.684 65.0327 201.363 63.3998 201.363 60.2739C201.363 57.1481 199.684 55.5151 196.604 55.5151ZM196.698 64.2863H195.065V56.3549H196.698C199.077 56.3549 200.43 57.568 200.43 60.2739C200.43 63.0732 199.077 64.2863 196.698 64.2863Z" fill="#00215C"></path><path d="M209.901 55.5151L206.355 65.0794H207.241L208.314 62.1401H212.513L213.586 65.0794H214.566L211.02 55.5151H209.901ZM208.594 61.3004L210.367 56.4482H210.414L212.187 61.3004H208.594Z" fill="#00215C"></path><path d="M212.513 42.6386V23.3234C212.513 17.5848 209.714 15.1121 204.069 15.1121C199.357 15.1121 195.904 17.3982 194.131 21.3172H194.038V14.9722C193.245 15.6253 192.219 16.3718 189.652 16.3718C187.973 16.3718 183.587 16.3718 183.587 16.3718V17.8181H188.206V42.6852H183.261V44.1315H198.61V42.6852H194.085V27.709C194.085 22.3436 196.837 17.165 202.063 17.165C205.002 17.165 206.775 18.7979 206.775 23.1368V42.6386H202.249V44.0849H217.226V42.6386H212.513Z" fill="#00215C"></path><path d="M172.856 63.3998H172.81L167.538 55.5151H166.558V65.0794H167.444V56.9614H167.491L172.903 65.0794H173.696V55.5151H172.856V63.3998Z" fill="#00215C"></path><path d="M123.029 42.452C120.836 42.452 119.95 41.099 119.95 37.6932V17.7715H127.041V16.3252H119.95V6.80762H118.737C117.944 12.9194 114.864 16.092 109.312 16.6052V17.7249H113.978V37.4133C113.978 41.099 114.678 44.5981 120.696 44.5981C124.475 44.5981 126.761 42.8719 127.928 40.5858L128.394 39.6527L127.135 39.0462C126.388 40.8191 125.175 42.452 123.029 42.452Z" fill="#00215C"></path><path d="M155.781 55.5151L152.235 65.0794H153.122L154.195 62.1401H158.394L159.467 65.0794H160.446L156.901 55.5151H155.781ZM154.475 61.3004L156.247 56.4482H156.294L158.067 61.3004H154.475Z" fill="#00215C"></path><path d="M116.638 60.0873L113.932 55.5151H112.952L116.124 60.8805V65.0794H117.057V60.8805L120.277 55.5151H119.297L116.638 60.0873Z" fill="#00215C"></path><path d="M129.514 59.3882C128.954 59.3882 128.534 59.8081 128.534 60.3679C128.534 60.9278 128.954 61.3477 129.514 61.3477C130.074 61.3477 130.494 60.9278 130.494 60.3679C130.494 59.7614 130.074 59.3882 129.514 59.3882Z" fill="#00215C"></path><path d="M143.324 64.4275C141.458 64.4275 140.245 62.8879 140.245 60.2286C140.245 57.8025 141.458 56.1696 143.278 56.1696C144.724 56.1696 145.424 56.9628 145.844 58.4557L146.73 58.2224C146.264 56.4496 145.19 55.3298 143.278 55.3298C140.898 55.3298 139.312 57.336 139.312 60.2286C139.312 63.2612 140.852 65.2207 143.278 65.2207C145.19 65.2207 146.403 64.0543 146.87 62.1881L145.984 62.0015C145.61 63.5878 144.724 64.4275 143.324 64.4275Z" fill="#00215C"></path><path d="M155.548 36.574L154.195 36.1541C152.562 39.9798 149.856 43.0124 144.91 43.0124C137.492 43.0124 136.419 37.3672 136.419 28.6893V28.2228H155.501C155.501 20.5247 151.209 15.2061 143.231 15.2061C134.506 15.2061 129.841 21.9244 129.841 29.9957C129.841 38.3936 134.273 44.7853 143.184 44.7853C148.689 44.7853 153.215 42.6858 155.548 36.574ZM136.466 25.1436C136.792 20.8513 138.332 16.699 142.858 16.699C147.663 16.699 148.736 20.4314 148.829 24.4437C148.829 24.817 148.829 26.0767 148.829 26.4499H136.373C136.373 26.03 136.419 25.5168 136.466 25.1436Z" fill="#00215C"></path><path d="M279.93 28.0844V4.05706C273.725 1.86427 263.927 0.417969 252.964 0.417969C242.186 0.417969 232.575 1.81762 226.324 4.05706V28.4576C226.324 32.05 226.184 38.3951 229.449 46.0465C233.508 55.5175 241.346 62.609 252.59 67.0879L253.15 67.3212L253.71 67.0879C264.907 62.609 272.792 55.5175 276.851 46.0465C280.07 38.3951 279.93 31.5368 279.93 28.0844Z" fill="white"></path><path d="M279.93 28.0844V4.05706C273.725 1.86427 263.927 0.417969 252.964 0.417969C242.186 0.417969 232.575 1.81762 226.324 4.05706V28.4576C226.324 32.05 226.184 38.3951 229.449 46.0465C233.508 55.5175 241.346 62.609 252.59 67.0879L253.15 67.3212L253.71 67.0879C264.907 62.609 272.792 55.5175 276.851 46.0465C280.07 38.3951 279.93 31.5368 279.93 28.0844ZM258.982 54.3511C258.842 54.3978 258.702 54.4444 258.609 54.4911C258.515 54.5377 258.469 54.5377 258.469 54.631C258.469 54.6777 258.515 54.7243 258.515 54.771C258.469 55.0043 257.816 55.0043 257.629 55.0509C257.442 55.0976 257.256 55.2842 257.162 55.4242C257.069 55.5641 257.069 55.5175 256.882 55.5641C256.556 55.6108 256.649 55.9374 256.743 56.1707C256.836 56.4039 257.022 56.5905 257.209 56.7305C257.302 56.7772 257.629 56.9171 257.816 56.9171C257.629 57.1038 257.396 57.0571 257.162 57.1504C257.022 57.1971 256.929 57.2904 256.789 57.2904C256.603 57.337 256.509 57.337 256.369 57.2904C256.136 57.2437 255.949 57.2437 255.716 57.2904C255.576 57.2904 255.436 57.2904 255.296 57.1971C255.25 57.1504 255.11 57.0571 255.063 57.0571C254.876 57.0105 255.016 57.2904 255.063 57.3837C254.83 57.617 254.223 57.2904 253.99 57.1504C253.803 57.0104 253.663 56.7305 253.43 56.6839C253.43 56.9171 253.43 57.1971 253.43 57.4303C253.477 58.1768 253.477 58.9233 253.477 59.6698C253.477 60.0897 253.523 60.5562 253.523 60.9761H252.684L252.777 56.6372C252.497 56.6372 252.404 56.9171 252.217 57.0104C252.077 57.0571 251.937 57.0571 251.844 57.1037C251.704 57.1971 251.657 57.2904 251.517 57.3837C251.377 57.4303 251.237 57.477 251.097 57.477C250.911 57.477 250.724 57.4303 250.631 57.337C250.724 57.1971 250.631 57.0104 250.537 56.9638C250.397 56.9171 250.211 57.0104 250.118 57.0104C249.558 57.1504 248.858 56.8238 248.345 56.5906C248.345 56.5906 249.604 56.3573 249.604 55.6575C249.604 55.4708 249.511 55.2842 249.371 55.1442C249.231 55.0043 248.951 54.8643 248.765 54.8643C248.438 54.8177 248.251 54.911 248.065 54.8177C248.111 54.7243 247.925 54.5844 247.785 54.4911C247.645 54.3978 247.505 54.3511 247.365 54.3045C247.132 54.1645 246.758 53.9312 246.852 53.6046C247.038 53.6979 247.272 53.7446 247.412 53.6513C247.552 53.558 247.598 53.4647 247.598 53.278C247.598 53.0448 247.318 52.9048 247.272 52.7182C247.178 52.5782 247.132 52.4383 246.992 52.345C246.852 52.2516 246.665 52.205 246.665 52.065C246.898 52.1583 246.992 51.9251 246.852 51.7851C246.712 51.5985 246.478 51.5052 246.338 51.3185C246.245 51.1319 246.152 50.8986 246.152 50.6654C246.152 50.6187 246.152 50.3854 246.245 50.3854C246.338 50.3854 246.385 50.4788 246.385 50.5254C246.525 50.7587 246.758 50.852 246.992 50.9453C247.272 51.0853 247.365 51.1786 247.691 51.2252C248.298 51.3185 248.671 51.2252 249.044 50.8986C249.091 50.852 249.278 50.7587 249.324 50.712C249.464 50.8986 249.791 51.2252 250.071 51.3185C250.304 51.3652 250.584 51.7384 250.677 51.8317C251.097 52.205 251.377 51.9717 251.377 51.6451C251.377 51.3652 251.284 50.9453 251.191 50.712C251.097 50.2455 251.004 50.0122 250.957 49.5457C250.911 49.2657 250.771 49.0324 250.631 48.7992C250.537 48.6126 250.351 48.0527 250.771 48.2393C250.911 48.3326 251.144 48.4726 251.377 48.4259C251.844 48.3793 251.89 47.8661 251.984 47.4928C252.03 47.3062 252.03 47.1662 252.124 46.9796C252.17 46.8863 252.217 46.793 252.264 46.793C252.264 46.8397 252.357 46.933 252.45 46.933C252.637 46.933 252.777 46.653 252.824 46.4664C252.87 46.3265 252.87 46.1398 252.917 45.9999C253.01 45.7666 253.01 45.4867 253.15 45.2534C253.197 45.44 253.29 45.7199 253.29 45.8133C253.383 46.0932 253.477 46.3731 253.663 46.5597C253.803 46.7464 253.99 46.793 254.177 46.6997C254.27 46.933 254.27 47.7728 254.503 48.1927C254.643 48.4259 254.783 48.5192 254.97 48.5192C255.156 48.5192 255.25 48.4726 255.39 48.3793C255.529 48.286 255.716 48.1927 255.809 48.1927C255.856 48.1927 255.903 48.2393 255.903 48.286C255.903 48.4726 255.623 48.9391 255.576 49.0324C255.483 49.2657 255.343 49.499 255.296 49.7323C255.25 49.9189 255.203 50.1522 255.156 50.3854C255.11 50.6187 255.063 50.852 255.063 51.2252C255.063 51.4119 255.063 51.8317 255.203 51.9251C255.436 52.065 255.716 51.7851 255.903 51.6451C256.136 51.4585 256.323 51.3185 256.509 51.0853C256.649 50.8986 256.882 50.4788 257.116 50.4788C257.116 50.6654 257.349 50.8986 257.722 50.9453C257.956 50.992 258.142 50.9453 258.282 50.852C258.469 50.712 258.469 50.712 258.655 50.8053C259.075 50.9919 259.775 50.3854 260.055 50.1988C260.148 50.2921 260.055 50.4787 259.962 50.6187C259.775 50.9453 259.542 51.0386 259.542 51.2719C259.542 51.4585 259.309 51.8317 259.309 52.065C259.215 52.205 258.982 52.3449 258.889 52.4383C258.562 52.7182 258.375 52.9981 258.515 53.418C258.609 53.7912 258.935 53.9779 259.215 53.9779C259.495 53.9779 259.682 53.7912 259.775 53.8379C259.822 53.8846 259.682 54.0245 259.635 54.0712C259.402 54.2111 259.122 54.3045 258.982 54.3511ZM274.985 20.3396H231.269L228.47 17.4004L234.068 19.2666C233.602 17.8669 232.342 17.4004 231.502 16.1874C230.989 15.4875 230.849 14.7877 230.896 14.0879C231.036 14.3678 231.316 14.6944 231.735 14.9743C232.155 15.2542 232.669 15.4875 233.415 15.6275C234.721 15.9074 235.421 16.3273 235.981 16.8405L233.135 11.7551L238.034 14.9277C237.847 13.4814 236.821 12.6882 236.308 11.3352C236.028 10.5421 236.028 9.79562 236.261 9.14245C236.354 9.42238 236.494 9.84227 236.868 10.2155C237.194 10.5887 237.661 10.9153 238.314 11.2886C239.574 11.8951 240.133 12.5016 240.553 13.2014L239.06 7.46286L243.026 11.7085C243.166 10.2622 242.419 9.28242 242.28 7.83611C242.186 6.99632 242.373 6.2965 242.746 5.68998C242.746 5.96991 242.839 6.43646 243.026 6.90301C243.259 7.32291 243.632 7.78946 244.192 8.30266C245.265 9.23576 245.639 9.98224 245.919 10.7754L245.872 4.75688L248.625 9.84227C249.184 8.53593 248.578 7.36956 248.811 5.96991C248.951 5.13013 249.324 4.47695 249.838 4.0104C249.791 4.29033 249.744 4.75688 249.838 5.22343C249.931 5.68998 250.164 6.24984 250.631 6.85636C251.471 8.06939 251.657 8.86251 251.657 9.74896L253.103 3.87044L254.503 9.51568C255.343 8.34931 255.156 7.04298 255.716 5.68998C256.043 4.89685 256.556 4.4303 257.209 4.10372C257.069 4.38365 256.929 4.80353 256.882 5.31673C256.882 5.78328 256.976 6.38981 257.209 7.08963C257.722 8.44263 257.676 9.23576 257.489 10.0755L260.335 4.80354L260.288 10.5888C261.408 9.70231 261.455 8.34931 262.341 7.22959C262.854 6.52977 263.508 6.20318 264.207 6.06322C264.021 6.29649 263.741 6.66974 263.601 7.13629C263.461 7.60284 263.414 8.20935 263.508 8.95583C263.647 10.4021 263.414 11.1953 263.041 11.9884L267.147 7.55618L265.654 13.1548C266.913 12.5483 267.333 11.3819 268.453 10.4954C269.106 9.98223 269.806 9.70231 270.552 9.70231C270.319 9.88893 269.993 10.1689 269.713 10.5888C269.479 11.0086 269.293 11.5685 269.153 12.315C268.919 13.7613 268.5 14.4611 267.94 15.1143H267.986L273.072 11.8484L270.272 16.8872C271.625 16.7006 272.325 15.5808 273.585 15.021C274.378 14.6944 275.125 14.6011 275.824 14.7877C275.544 14.881 275.125 15.0676 274.798 15.4409C274.471 15.7675 274.145 16.2807 273.818 16.9805C273.258 18.3335 272.652 18.8933 271.952 19.4065L271.999 19.4532L277.737 17.5403L274.985 20.3396ZM252.31 32.7032C252.217 32.5632 251.937 31.9101 250.257 31.9101H245.359V23.9787H245.732V31.5368H250.211C250.537 31.5368 250.864 31.5368 251.097 31.5835C251.984 31.7235 252.357 32.0967 252.544 32.33H253.71C253.897 32.0967 254.223 31.7235 255.156 31.5835C255.39 31.5368 255.716 31.5368 256.043 31.5368H260.522V24.0254H260.895V31.9101H255.996C254.316 31.9101 254.037 32.6099 253.99 32.7032C253.943 32.7032 252.31 32.7032 252.31 32.7032ZM252.917 31.3969V31.7701C252.217 30.4638 249.138 30.697 246.478 30.977V23.6055C247.925 23.6055 249.324 23.4189 250.397 23.4189C251.797 23.4189 252.73 23.6521 252.917 24.4453V31.0236C252.077 29.9972 249.558 30.0905 246.898 30.3705V30.6037C249.511 30.3238 252.264 30.2305 252.917 31.3969ZM247.365 28.5043C247.691 28.5043 248.018 28.5043 248.251 28.5043C248.578 28.5043 248.858 28.5043 249.138 28.5043V28.3643H248.998C248.531 28.3643 248.531 28.3176 248.531 28.0377V26.778C248.531 26.4514 248.578 26.4048 248.858 26.4048H249.138V26.2648C248.858 26.2648 248.531 26.2648 248.251 26.2648C247.971 26.2648 247.645 26.2648 247.365 26.2648V26.4048H247.645C247.925 26.4048 247.971 26.4514 247.971 26.778V28.0377C247.971 28.3176 247.925 28.3643 247.505 28.3643H247.365V28.5043ZM250.537 26.918C250.211 26.7314 249.978 26.4048 249.978 26.0316C249.978 25.705 250.211 25.0985 251.004 25.0985C251.611 25.0985 251.89 25.4717 251.89 25.8449C251.89 26.2182 251.75 26.4048 251.237 26.6847C251.75 26.918 251.984 27.1979 251.984 27.6178C251.984 28.1777 251.564 28.5509 250.911 28.5509C250.304 28.5509 249.931 28.131 249.931 27.7111C249.884 27.2446 250.258 27.0113 250.537 26.918ZM251.377 27.8511C251.377 27.5712 251.237 27.3845 250.631 27.0113C250.351 27.1513 250.211 27.4312 250.211 27.6645C250.211 28.131 250.537 28.3643 250.817 28.3643C251.237 28.3643 251.377 28.0844 251.377 27.8511ZM251.097 26.6381C251.331 26.4514 251.471 26.2648 251.471 25.9382C251.471 25.565 251.237 25.3317 250.911 25.3317C250.584 25.3317 250.397 25.6116 250.397 25.8916C250.397 26.1249 250.631 26.3581 251.097 26.6381ZM255.809 23.4189C256.929 23.4189 258.282 23.6055 259.728 23.6055V30.9303C257.069 30.6504 253.99 30.4638 253.29 31.7234V31.3502C253.897 30.1838 256.696 30.2771 259.309 30.5571V30.3238C256.649 30.0905 254.083 29.9506 253.29 30.977V24.3986C253.477 23.6055 254.41 23.4189 255.809 23.4189ZM254.083 27.058H254.223L254.363 26.7314H255.763L254.41 29.484L254.643 29.5307L256.323 26.2182L256.276 26.1715H254.223L254.083 27.058ZM257.396 26.918C257.069 26.7314 256.836 26.4048 256.836 26.0316C256.836 25.705 257.069 25.0985 257.862 25.0985C258.469 25.0985 258.749 25.4717 258.749 25.8449C258.749 26.2182 258.609 26.4048 258.096 26.6847C258.609 26.918 258.842 27.1979 258.842 27.6178C258.842 28.1777 258.422 28.5509 257.769 28.5509C257.162 28.5509 256.789 28.131 256.789 27.7111C256.743 27.2446 257.116 27.0113 257.396 26.918ZM258.236 27.8511C258.236 27.5712 258.096 27.3845 257.489 27.0113C257.209 27.1513 257.069 27.4312 257.069 27.6645C257.069 28.131 257.396 28.3643 257.676 28.3643C258.096 28.3643 258.236 28.0844 258.236 27.8511ZM257.956 26.6381C258.189 26.4514 258.329 26.2648 258.329 25.9382C258.329 25.565 258.096 25.3317 257.769 25.3317C257.442 25.3317 257.256 25.6116 257.256 25.8916C257.302 26.1249 257.489 26.3581 257.956 26.6381ZM269.479 53.7913L253.103 40.4479L236.728 53.7913C228.283 43.9937 228.33 32.7032 228.376 27.9911V20.293H228.423L253.103 40.4013L277.784 20.293H277.831V27.9911C277.831 32.7032 277.924 43.9937 269.479 53.7913ZM238.827 46.653C242.326 46.653 245.125 43.8071 245.125 40.308C245.125 36.8088 242.326 33.9629 238.827 33.9629C235.328 33.9629 232.529 36.8088 232.529 40.308C232.529 43.8071 235.328 46.653 238.827 46.653ZM242.886 37.6486C242.886 37.8353 242.793 38.1618 242.746 38.2551C242.699 38.2551 242.513 38.3018 242.373 38.3018C242.28 38.3018 242.28 38.3018 242.233 38.3951C242.093 38.675 241.953 38.9083 241.766 39.2349C241.72 39.6081 241.72 39.9814 241.72 40.4013C241.72 40.5412 241.72 40.7745 241.626 40.9611C241.486 41.1478 241.346 41.2411 241.206 41.3344C241.16 41.3344 241.16 41.381 241.253 41.381C241.3 41.381 241.626 41.1944 241.673 41.1944C241.86 41.1478 242.14 40.8678 242.466 41.1944C242.606 41.3344 242.886 41.4743 243.166 41.7076C243.259 41.7543 243.306 41.7543 243.446 41.8942C243.539 41.9876 243.632 42.2208 243.679 42.3141C243.866 42.5941 243.866 42.7807 243.866 42.874C243.772 42.9206 243.353 42.9206 243.166 42.874C243.119 42.7807 243.119 42.5941 243.073 42.5474C243.026 42.4074 242.979 42.3141 242.886 42.2675C242.746 42.1742 242.653 42.0809 242.513 41.9875C242.186 41.8009 242.14 41.7543 241.906 41.8942C241.673 41.9876 241.346 42.3141 241.02 42.5008C240.74 42.6407 239.993 42.5008 239.76 42.3141C239.807 42.5008 240.273 42.734 240.553 42.9206C240.507 43.014 240.413 43.6205 240.18 43.9471C240.18 43.8537 240.133 43.8071 240.04 43.8071C239.807 43.8071 239.853 44.2736 239.667 44.5069C239.667 44.4136 239.62 44.3669 239.527 44.3669C239.34 44.3669 239.34 44.7868 239.107 45.0201C239.06 44.9268 239.014 44.8802 238.92 44.8802C238.827 44.8802 238.734 44.9735 238.687 45.0668C238.407 45.3467 238.267 45.5333 238.034 45.8133C237.147 45.7666 235.888 45.1601 235.421 44.6002C236.261 43.7138 236.961 42.8273 237.334 42.5941C237.521 42.0809 238.034 40.9611 238.221 40.4946C238.174 40.4479 238.174 40.4013 238.127 40.3546C237.987 40.4479 237.847 40.4479 237.801 40.4013C237.847 40.2613 237.847 40.028 237.801 39.8414C237.707 39.8881 237.567 39.9347 237.474 39.8881C237.521 39.7015 237.521 39.5148 237.474 39.3749C237.334 39.4215 237.241 39.4682 237.147 39.4215C237.194 39.2349 237.241 39.0483 237.194 38.815V38.7684C237.054 38.8617 236.494 38.955 236.354 38.9083C236.261 38.8617 236.728 38.3485 237.147 37.9752C236.774 38.1618 236.308 38.3018 235.561 38.4884C235.141 38.5817 234.255 38.7217 233.602 38.6284C233.508 38.6284 233.508 38.4884 233.602 38.4884C233.928 38.4884 234.395 38.4884 234.721 38.3951C234.815 38.3951 234.955 38.3018 234.675 38.2551C234.395 38.2085 233.928 38.1152 233.648 38.0219C233.555 37.9752 233.602 37.8819 233.695 37.8819C233.975 37.8819 234.348 37.9752 234.628 37.9752C234.768 37.9752 234.861 37.9752 234.721 37.8819C234.675 37.8353 234.441 37.6953 234.208 37.5553C234.162 37.5087 234.162 37.462 234.208 37.462C234.395 37.4154 235.048 37.8352 235.515 37.9752C235.608 38.0219 235.701 38.0219 235.794 38.0219C235.888 38.0219 235.888 37.9752 235.888 37.9286C235.888 37.8353 235.421 37.602 235.188 37.462C235.095 37.4154 235.188 37.322 235.281 37.3687C235.515 37.4154 236.074 37.7419 236.308 37.7419C236.494 37.7886 236.588 37.6953 236.588 37.6486C236.541 37.5087 235.794 37.1354 235.608 37.0421C235.561 36.9955 235.608 36.9488 235.654 36.9488C236.028 36.9955 236.821 37.5087 237.147 37.462C237.194 37.462 237.241 37.4154 237.241 37.3687C237.194 37.2287 236.588 36.9022 236.448 36.7622C236.354 36.7155 236.448 36.6689 236.588 36.6689C236.821 36.7155 237.194 36.9022 237.381 36.9955C237.474 37.0421 237.567 37.0888 237.661 37.0421C237.801 36.9955 237.941 36.8555 237.847 36.5756C237.801 36.249 237.521 36.1557 237.287 36.109C237.054 36.0624 237.241 35.9691 237.427 35.9691C237.801 36.0157 238.034 36.2023 238.127 36.5289C238.127 36.5756 238.127 36.6689 238.127 36.7155C238.127 36.9022 238.267 36.8088 238.36 36.6689C238.547 36.389 238.594 36.109 238.547 35.9224C238.5 35.5958 238.034 35.4559 238.034 35.3625C238.034 35.3159 238.081 35.3159 238.081 35.3159C238.267 35.2692 238.734 35.5025 238.827 35.8757C238.874 36.0624 238.827 36.2023 238.78 36.3889C238.78 36.4356 238.78 36.4823 238.874 36.3889C239.107 36.1557 239.294 35.7358 239.247 35.3625C239.154 34.9426 238.78 34.8027 238.734 34.756L238.78 34.7094C238.967 34.6627 239.434 34.9426 239.48 35.4092C239.574 35.8291 239.387 36.6222 238.127 37.2754C238.64 37.1821 238.78 37.1821 238.827 37.2287C239.434 37.0888 239.807 36.9488 239.947 36.9955C240.133 37.2754 239.76 37.3687 239.76 37.5553C239.76 37.7419 240.18 37.4154 240.087 37.7419C239.947 37.9752 239.807 37.9752 239.62 38.0685C239.527 38.1152 239.154 38.3951 238.967 38.5817C239.574 39.0016 240.18 39.6081 240.227 39.6548C240.273 39.7481 240.413 40.028 240.553 40.4013C240.647 40.168 240.787 39.7015 240.833 39.5148C240.88 39.3282 240.88 39.2816 240.926 39.1416C240.973 39.0483 241.16 38.9083 241.3 38.675C241.44 38.4884 241.626 38.1618 241.72 38.0685C241.86 37.8819 241.953 37.9286 242.186 37.8353C242.513 37.6953 242.793 37.6486 242.886 37.6486ZM238.221 37.6953C238.267 37.6486 238.314 37.602 238.36 37.602C238.454 37.5553 238.594 37.5087 238.687 37.5087C238.734 37.5553 238.734 37.6953 238.64 37.7886C238.547 37.8819 238.5 37.8353 238.407 37.7886C238.36 37.7419 238.314 37.7419 238.267 37.7419C238.221 37.7419 238.221 37.6953 238.221 37.6953ZM261.035 40.308C261.035 36.8088 263.881 33.9629 267.333 33.9629C270.832 33.9629 273.632 36.8088 273.632 40.308C273.632 43.8071 270.786 46.653 267.333 46.653C263.881 46.653 261.035 43.7138 261.035 40.308ZM270.272 35.9691C270.319 36.0157 270.319 36.0624 270.319 36.1557C270.319 36.2956 270.179 36.4356 270.039 36.4356C269.899 36.4356 269.759 36.2956 269.759 36.1557C269.759 36.0157 269.853 35.8757 269.993 35.8757L269.666 35.3625L269.106 35.5958C269.153 35.6425 269.199 35.7358 269.199 35.7824C269.199 35.9224 269.059 36.0624 268.919 36.0624C268.78 36.0624 268.64 35.9224 268.64 35.7824C268.64 35.6425 268.733 35.5492 268.826 35.5025C268.64 35.3159 268.313 35.0826 267.94 34.9426C268.22 35.4092 268.36 36.0157 268.36 36.5289C268.733 36.4823 269.713 36.8088 270.086 37.0888C270.366 36.6222 270.832 36.2023 271.346 36.0624C271.066 35.9691 270.599 35.9224 270.272 35.9691ZM268.5 37.2287C268.453 37.2287 268.406 37.2287 268.36 37.2287C268.313 37.2287 268.313 37.1821 268.313 37.1821C268.313 37.1821 268.266 37.1354 268.173 37.1354C267.986 37.1354 267.94 37.2287 267.893 37.322C267.893 37.3687 267.893 37.462 267.94 37.462C267.986 37.5087 268.033 37.5087 268.08 37.5087C268.126 37.5087 268.173 37.5087 268.173 37.5087C268.22 37.462 268.266 37.4154 268.313 37.3687C268.313 37.322 268.406 37.322 268.5 37.322C268.5 37.2754 268.5 37.2754 268.5 37.2287ZM266.773 37.322C266.727 37.3687 266.727 37.462 266.773 37.5087C266.773 37.5087 266.773 37.5553 266.82 37.5553C266.82 37.6486 266.82 37.7886 266.82 37.9286C266.82 38.0219 266.913 38.0685 267.1 38.0685C267.1 38.1152 267.1 38.1618 267.1 38.2085C267.007 38.2551 266.913 38.2551 266.82 38.2551C266.54 38.2551 266.4 38.1152 266.447 37.8353C266.447 37.7886 266.447 37.7419 266.493 37.6953V37.6486C266.4 37.602 266.12 37.8353 266.074 38.1618C266.027 38.4418 266.213 38.6284 266.447 38.6284C266.587 38.6284 266.773 38.6284 266.96 38.5351C267.287 38.3951 267.66 38.3485 267.893 38.5817C267.706 38.5351 267.287 38.5817 267.147 38.6284C266.96 38.675 266.867 39.0483 267.053 39.0483C267.193 39.0483 267.8 39.0016 267.846 39.0483C267.8 39.3282 267.38 39.6548 267.007 39.7015C266.773 39.6081 266.12 39.6081 265.794 39.7015C265.42 39.2816 265.14 38.4884 265.094 38.2085C265.094 38.0685 265.094 37.9286 265.14 37.8353C265.28 37.602 265.514 37.6486 265.607 37.462C265.654 37.3687 265.654 37.2287 265.654 37.1354C265.654 37.0888 265.747 36.9021 265.654 36.8555C265.607 36.9021 265.514 36.9488 265.42 36.9488C265.327 36.9022 265.28 36.9022 265.187 36.9488C265.047 36.9955 265.047 37.1821 264.907 37.2754C264.861 37.322 264.767 37.3221 264.814 37.2287C264.86 37.0888 264.907 36.9488 264.907 36.7622C264.861 36.6222 264.767 36.4823 264.627 36.3889C264.581 36.3423 264.487 36.2956 264.394 36.249C264.301 36.249 264.254 36.249 264.254 36.2956C264.301 36.3423 264.301 36.3423 264.301 36.4356C264.301 36.5756 264.161 36.6689 264.161 36.7622C264.161 36.9488 264.301 37.1354 264.301 37.2754C264.301 37.3687 264.254 37.3687 264.207 37.322C264.114 37.2754 263.927 37.1821 263.787 37.1821C263.647 37.1821 263.601 37.2754 263.461 37.322C263.414 37.322 263.228 37.3221 263.274 37.4154C263.368 37.4154 263.461 37.5087 263.508 37.602C263.554 37.6953 263.554 37.7419 263.601 37.7886C263.741 37.8819 263.974 37.8353 264.114 37.8819C264.207 37.8819 264.301 37.9286 264.301 38.1152C264.301 38.2085 264.254 38.3485 264.207 38.4418C264.114 38.6284 264.067 38.7683 264.114 38.955C264.161 38.9083 264.207 38.8617 264.254 38.8617C264.347 38.8617 264.394 39.0016 264.301 39.1416C264.207 39.2816 264.207 39.4682 264.254 39.6548C264.301 39.6081 264.347 39.5615 264.394 39.5615C264.487 39.5615 264.534 39.6548 264.487 39.8414C264.441 40.028 264.394 40.168 264.487 40.3546C264.534 40.2613 264.581 40.2147 264.627 40.2147C264.721 40.2147 264.767 40.308 264.814 40.4013C264.954 40.6812 265.14 40.8212 265.607 40.8212C265.42 41.1478 264.067 40.9145 263.508 40.8678C263.368 40.8678 263.321 40.8212 263.274 40.7279C263.181 40.4946 263.368 40.308 263.274 40.1213C263.228 40.028 263.134 39.9814 263.041 39.9347C262.994 39.8881 262.854 39.7481 262.808 39.7948C262.854 39.8881 262.854 39.9347 262.761 40.028C262.714 40.0747 262.621 40.1213 262.621 40.2147C262.621 40.3546 262.714 40.4946 262.761 40.6346C262.808 40.7279 262.714 40.7745 262.668 40.7279C262.528 40.6346 262.341 40.4013 262.155 40.4013C262.015 40.4013 261.968 40.4946 261.875 40.5412C261.828 40.5412 261.595 40.5879 261.641 40.6812C261.735 40.6812 261.828 40.7279 261.828 40.8678C261.828 40.9611 261.875 41.0544 261.921 41.1011C262.108 41.2411 262.388 41.1944 262.574 41.1944C262.621 41.1944 262.668 41.2877 262.574 41.2877C262.434 41.381 262.248 41.4277 262.155 41.5676C262.108 41.7076 262.155 41.8009 262.108 41.9409C262.108 41.9875 262.061 42.1742 262.155 42.1742C262.201 42.0808 262.294 42.0342 262.434 42.0809C262.528 42.0809 262.574 42.1275 262.668 42.0809C262.808 41.9875 262.808 41.8942 262.901 41.7543C262.948 41.7076 262.994 41.6143 263.088 41.6143C263.134 41.6143 263.228 41.6143 263.274 41.661C263.368 41.7543 263.368 41.9875 263.694 42.0342C263.694 41.9875 263.647 41.9409 263.647 41.8942C263.647 41.8476 263.694 41.7543 263.741 41.7543C263.834 41.7543 263.881 41.8009 263.927 41.8942C264.021 42.0342 264.114 42.0809 264.254 42.1275C264.254 42.0809 264.207 42.0342 264.207 41.9875C264.207 41.9409 264.254 41.8942 264.301 41.8942C264.347 41.8942 264.394 41.8942 264.487 42.0342C264.581 42.2208 264.674 42.2675 264.814 42.3141C264.767 42.2208 264.814 42.0809 264.907 42.0809C265.047 42.0809 265.374 42.1742 265.607 42.3141C265.607 42.9206 265.98 43.5738 266.587 43.9937C266.587 43.9004 266.633 43.8071 266.727 43.8071C266.96 43.8071 267.1 44.367 267.613 44.6469C267.566 44.5536 267.66 44.4603 267.706 44.4603C267.753 44.4603 267.846 44.5069 267.893 44.5069C268.36 44.7868 268.873 45.1134 269.153 45.3C269.666 45.1601 270.459 44.6469 271.019 44.087C270.692 43.9937 269.759 43.2939 269.479 42.9673C268.919 42.3608 268.733 41.7543 268.733 41.2877C268.733 41.1478 268.733 41.0078 268.78 40.8678C268.966 40.9611 269.199 40.9611 269.339 40.8212C269.059 40.6345 269.106 40.2146 269.199 40.0747C269.339 40.2146 269.619 40.168 269.759 40.028C269.573 39.8881 269.433 39.5615 269.573 39.2816C269.666 39.3749 269.946 39.4215 270.086 39.2816C269.899 39.0949 269.759 38.815 269.806 38.4884C269.899 38.6284 270.086 38.6284 270.226 38.5817C270.133 38.3951 270.133 38.1152 270.133 37.9286C270.086 37.6486 270.039 37.3687 269.946 37.1821C269.666 36.9488 268.78 36.5756 268.22 36.5756C268.126 36.5756 268.08 36.5756 268.033 36.6222C267.893 36.6689 267.753 36.7155 267.753 36.7155C267.66 36.8555 267.473 36.8555 267.287 36.9022C267.24 37.1354 266.913 37.2287 266.773 37.322ZM267.613 41.5676C267.52 41.9409 267.333 42.5007 267.193 42.6874L267.427 42.5008L267.566 42.6874L267.706 42.5008L267.94 42.6874C267.846 42.5007 267.66 41.9409 267.613 41.5676ZM271.812 43.3872C271.859 43.2939 271.905 43.2006 271.905 43.2006C271.672 42.8273 271.486 42.4541 271.532 41.9875C271.579 41.521 271.859 41.3344 272.045 41.381C272.232 41.381 272.372 41.521 272.372 41.7543C272.559 41.6143 272.605 41.4743 272.605 41.2877C272.605 41.1478 272.559 40.9611 272.325 40.9145C272.699 40.5412 272.652 39.8414 272.279 39.5615C272.325 40.0747 271.952 40.4479 271.625 40.7745C271.159 41.2411 271.112 41.7543 271.159 42.2675C270.879 41.7543 270.739 41.2411 270.786 40.7279C270.832 40.168 271.112 39.6081 271.532 39.6081C271.672 39.6081 271.812 39.7015 271.859 39.7948C272.045 39.4682 271.905 39.0949 271.625 39.0949C271.952 38.3485 271.439 37.5553 271.019 37.4154C271.112 37.6486 271.206 37.8819 271.159 38.1618C271.112 38.9083 270.459 39.4682 270.412 40.5879C270.319 41.7543 271.019 42.7807 271.719 43.5738C271.719 43.5738 271.765 43.4805 271.812 43.3872ZM269.059 43.2006C268.966 43.5738 268.78 44.1337 268.64 44.3669L268.873 44.1803L269.013 44.3669L269.153 44.1803L269.386 44.3669C269.293 44.1337 269.059 43.5738 269.059 43.2006ZM267.94 38.3951C267.986 38.3018 267.986 38.2085 267.986 38.1618C267.986 38.1152 267.986 38.0685 267.94 38.0219C267.893 37.9752 267.8 37.9752 267.66 37.9752C267.52 37.9752 267.427 37.9752 267.333 38.0219C267.333 38.0685 267.287 38.1152 267.287 38.1618C267.52 38.1618 267.753 38.2085 267.94 38.3951Z" fill="#00215C"></path></svg>